<?xml version="1.0" encoding="UTF-8" standalone="no"?>
<svg
   width="800"
   height="600"
   version="1.1"
   id="svg16"
   sodipodi:docname="hexafloor.svg"
   inkscape:version="1.1 (ce6663b3b7, 2021-05-25)"
   xmlns:inkscape="http://www.inkscape.org/namespaces/inkscape"
   xmlns:sodipodi="http://sodipodi.sourceforge.net/DTD/sodipodi-0.dtd"
   xmlns="http://www.w3.org/2000/svg"
   xmlns:svg="http://www.w3.org/2000/svg">
  <sodipodi:namedview
     id="namedview18"
     pagecolor="#ffffff"
     bordercolor="#666666"
     borderopacity="1.0"
     inkscape:pageshadow="2"
     inkscape:pageopacity="0.0"
     inkscape:pagecheckerboard="0"
     showgrid="false"
     showborder="false"
     inkscape:zoom="1.255"
     inkscape:cx="399.60159"
     inkscape:cy="300"
     inkscape:window-width="1848"
     inkscape:window-height="1016"
     inkscape:window-x="72"
     inkscape:window-y="27"
     inkscape:window-maximized="1"
     inkscape:current-layer="svg16" />
  <defs
     id="defs10">
    <clipPath
       id="A">
      <path
         d="M2781.78 947.609l-336.33 194.181-4.94 2.85c27.69 18.73 26.26 46.89-4.42 64.6-9.39 5.42-20.55 9.07-32.35 11.33l62.25 134.14 62.57 134.83c26.24-3.08 54.57 1.21 74.92 12.96 19.61 11.32 27.22 26.91 22.98 41.59l232.13 35.9 233.93 36.19c4.01-6.21 10.26-12.04 18.91-17.04 30.65-17.69 79.21-18.36 111.65-2.42l338.15-195.22 3.11-1.8c-27.68-18.73-26.25-46.89 4.43-64.6 9.38-5.42 20.55-9.07 32.35-11.34l-62.25-134.14-62.57-134.82c-26.24 3.08-54.57-1.21-74.92-12.96-19.61-11.33-27.22-26.92-22.98-41.59l-232.12-35.91-233.94-36.192c-4.01 6.211-10.26 12.051-18.91 17.043-30.65 17.7-79.21 18.368-111.65 2.418m-462.47 261.631c-19.61-11.32-27.22-26.91-22.98-41.59l-232.12-35.91-233.93-36.18c-4.01 6.21-10.26 12.05-18.91 17.04-30.66 17.7-79.21 18.36-111.66 2.42l-341.26 197.02c27.69 18.73 26.26 46.89-4.42 64.6-9.39 5.43-20.56 9.08-32.36 11.34l62.25 134.14 62.57 134.83c26.25-3.09 54.57 1.2 74.93 12.95 19.61 11.33 27.22 26.92 22.98 41.6l232.12 35.91 233.93 36.18c4.01-6.21 10.26-12.05 18.91-17.04 30.66-17.7 79.21-18.37 111.66-2.42l341.26-197.03c-27.69-18.73-26.26-46.89 4.42-64.6 9.39-5.42 20.56-9.07 32.35-11.33l-62.25-134.14-62.57-134.83c-26.24 3.08-54.56-1.21-74.92-12.96m-909.55 530.51l-338.15 195.23-3.11 1.79c27.68 18.74 26.25 46.89-4.43 64.6-9.38 5.43-20.55 9.08-32.35 11.34l62.25 134.14 62.57 134.82c26.25-3.08 54.57 1.21 74.92 12.97 19.61 11.32 27.22 26.91 22.98 41.58l232.13 35.91 233.93 36.19c4.01-6.21 10.26-12.05 18.91-17.04 30.65-17.7 79.21-18.37 111.65-2.42l338.15-195.22 3.12-1.81c-27.69-18.73-26.26-46.88 4.42-64.6 9.39-5.42 20.55-9.07 32.35-11.33l-62.25-134.14-62.57-134.83c-26.25 3.09-54.57-1.21-74.92-12.96-19.61-11.32-27.22-26.91-22.98-41.58l-232.13-35.91-233.93-36.19c-4.01 6.21-10.26 12.05-18.9 17.04-30.66 17.7-79.21 18.37-111.66 2.42m-289.95 624.73L781.664 2559.7l-3.121 1.81c27.687 18.73 26.258 46.88-4.422 64.59-9.387 5.43-20.555 9.08-32.351 11.34l62.25 134.14 62.57 134.83c26.242-3.09 54.566 1.21 74.922 12.96 19.605 11.32 27.215 26.91 22.98 41.58l232.118 35.91 233.94 36.19c4.01-6.21 10.26-12.05 18.9-17.04 30.66-17.7 79.21-18.37 111.65-2.42l338.15-195.23 3.12-1.8c-27.68-18.73-26.25-46.89 4.42-64.6 9.39-5.42 20.56-9.07 32.36-11.33l-62.25-134.14-62.57-134.83c-26.24 3.09-54.57-1.21-74.92-12.96-19.61-11.32-27.22-26.91-22.99-41.59l-232.12-35.9-233.93-36.19c-4.01 6.21-10.26 12.05-18.91 17.04-30.65 17.7-79.21 18.37-111.65 2.42m-289.962 624.73l-341.254 197.03c27.683 18.73 26.254 46.88-4.426 64.6-9.391 5.42-20.559 9.07-32.355 11.33l62.253 134.14 62.571 134.83c26.242-3.09 54.562 1.21 74.922 12.96 19.609 11.32 27.218 26.91 22.98 41.59l232.121 35.9 233.93 36.19c4.01-6.21 10.26-12.05 18.91-17.04 30.65-17.7 79.21-18.36 111.66-2.42l338.14-195.22 3.12-1.8c-27.69-18.74-26.26-46.89 4.42-64.61 9.39-5.42 20.56-9.07 32.35-11.33l-62.25-134.14-62.57-134.83c-26.24 3.09-54.56-1.2-74.92-12.96-19.61-11.32-27.22-26.91-22.98-41.59l-232.12-35.91-233.932-36.18c-4.008 6.21-10.258 12.05-18.91 17.04-30.656 17.7-79.215 18.37-111.66 2.42m903.772 387.48c19.61 11.32 27.22 26.92 22.98 41.59l232.13 35.91 233.92 36.19c4.02-6.21 10.27-12.05 18.92-17.05 30.65-17.69 79.21-18.36 111.65-2.41l341.26-197.03c-27.68-18.73-26.25-46.89 4.43-64.6 9.39-5.42 20.55-9.07 32.35-11.34l-62.25-134.14-62.57-134.82c-26.24 3.08-54.57-1.21-74.92-12.96-19.61-11.32-27.22-26.92-22.98-41.59l-232.13-35.91-233.93-36.19c-4.01 6.21-10.26 12.05-18.91 17.05-30.65 17.7-79.21 18.36-111.66 2.41l-338.14 195.23-3.12 1.8c27.69 18.73 26.26 46.89-4.42 64.6-9.38 5.42-20.55 9.07-32.35 11.34l62.25 134.14 62.57 134.82c26.24-3.08 54.57 1.21 74.92 12.96m654.62 309.54l62.57 134.83c26.25-3.09 54.57 1.21 74.92 12.96 19.61 11.32 27.22 26.91 22.98 41.59l232.13 35.91 233.93 36.18c4.01-6.21 10.26-12.04 18.91-17.04 30.65-17.7 79.21-18.36 111.65-2.42l341.27-197.02c-27.69-18.74-26.26-46.89 4.42-64.6 9.39-5.42 20.55-9.07 32.35-11.34l-62.25-134.14-62.57-134.83c-26.24 3.09-54.56-1.2-74.92-12.96-19.61-11.32-27.22-26.91-22.98-41.59l-232.12-35.91-233.93-36.18c-4.01 6.21-10.26 12.05-18.91 17.04-30.66 17.7-79.22 18.37-111.66 2.42l-341.26 197.03c27.68 18.73 26.25 46.89-4.42 64.6-9.39 5.42-20.56 9.07-32.36 11.33l62.25 134.14m1219.56-19.61c19.61 11.32 27.22 26.92 22.98 41.59l542.44 83.91 452.25-261.1-144.85-312.11c-26.25 3.08-54.57-1.21-74.92-12.96-19.61-11.32-27.22-26.92-22.98-41.59l-232.13-35.91-233.93-36.18c-4.01 6.21-10.26 12.04-18.91 17.04-30.65 17.7-79.21 18.36-111.65 2.42l-338.15 195.22-3.12 1.8c27.69 18.73 26.26 46.89-4.42 64.6-9.39 5.42-20.55 9.07-32.35 11.34l62.25 134.14 62.57 134.83c26.24-3.09 54.56 1.2 74.92 12.96m909.55-530.51l341.27-197.03c-27.69-18.73-26.26-46.89 4.42-64.6 9.39-5.42 20.55-9.07 32.35-11.33l-62.25-134.14-62.57-134.83c-26.25 3.08-54.57-1.21-74.92-12.96-19.61-11.32-27.22-26.91-22.98-41.59l-232.13-35.91-233.93-36.18c-4.01 6.21-10.26 12.04-18.9 17.04-30.66 17.7-79.22 18.36-111.66 2.42l-338.15 195.22-3.11 1.8c27.68 18.73 26.25 46.89-4.42 64.6-9.39 5.42-20.56 9.07-32.36 11.34l62.25 134.14 62.57 134.82c26.25-3.08 54.57 1.21 74.92 12.96 19.61 11.32 27.22 26.92 22.98 41.59l232.13 35.91 233.93 36.19c4.01-6.21 10.26-12.05 18.91-17.05 30.65-17.69 79.21-18.36 111.65-2.41m289.96-624.73l338.14-195.23 3.12-1.8c-27.69-18.73-26.26-46.89 4.42-64.6 9.39-5.42 20.56-9.07 32.35-11.33l-62.25-134.14-62.57-134.83c-26.24 3.08-54.56-1.21-74.92-12.96-19.61-11.32-27.22-26.92-22.98-41.59l-232.12-35.91-233.93-36.19c-4.01 6.21-10.26 12.05-18.91 17.05-30.66 17.7-79.22 18.36-111.66 2.41l-341.26 197.03c27.69 18.73 26.25 46.89-4.42 64.6-9.39 5.42-20.56 9.07-32.36 11.34l62.25 134.14 62.57 134.82c26.25-3.08 54.57 1.21 74.93 12.96 19.61 11.32 27.22 26.92 22.98 41.59l232.12 35.91 233.93 36.19c4.01-6.21 10.26-12.05 18.91-17.05 30.65-17.69 79.21-18.36 111.66-2.41m289.95-624.74l338.14-195.22 3.12-1.8c-27.68-18.73-26.25-46.89 4.42-64.6 9.39-5.42 20.56-9.07 32.36-11.34l-62.25-134.14-62.57-134.82c-26.25 3.08-54.57-1.21-74.93-12.96-19.6-11.32-27.21-26.92-22.97-41.59l-232.13-35.91-233.93-36.18c-4.01 6.21-10.26 12.04-18.91 17.04-30.65 17.69-79.21 18.36-111.65 2.41l-338.15 195.23-3.12 1.8c27.69 18.73 26.26 46.89-4.42 64.6-9.39 5.42-20.56 9.07-32.35 11.34l62.25 134.13 62.57 134.83c26.24-3.08 54.57 1.21 74.92 12.96 19.61 11.32 27.22 26.91 22.98 41.59l232.12 35.91 233.94 36.18c4.01-6.21 10.26-12.04 18.9-17.04 30.66-17.69 79.21-18.36 111.66-2.42m-1026.34 530.51c9.39-5.42 20.56-9.07 32.36-11.33l-62.25-134.14-62.57-134.83c-26.25 3.09-54.57-1.21-74.92-12.96-19.61-11.32-27.22-26.91-22.98-41.58l-232.13-35.91-233.93-36.19c-4.01 6.21-10.26 12.05-18.91 17.04-30.65 17.7-79.2 18.37-111.65 2.42l-338.15 195.23-3.11 1.8c27.68 18.73 26.25 46.89-4.43 64.6-9.39 5.42-20.55 9.07-32.35 11.33l62.25 134.14 62.57 134.83c26.24-3.09 54.57 1.21 74.92 12.96 19.61 11.32 27.22 26.91 22.98 41.59l232.12 35.9 233.94 36.19c4-6.21 10.26-12.05 18.9-17.04 30.66-17.7 79.22-18.37 111.66-2.42l338.14-195.22 3.12-1.8c-27.68-18.74-26.25-46.89 4.42-64.61m-1232.25 833.72l232.12 35.91 233.94 36.19c4.01-6.21 10.26-12.05 18.9-17.04 30.65-17.7 79.21-18.36 111.65-2.42l338.15-195.23 3.12-1.8c-27.69-18.73-26.25-46.88 4.42-64.59 9.39-5.43 20.56-9.08 32.36-11.34l-62.25-134.14-62.58-134.83c-26.24 3.09-54.56-1.21-74.92-12.96-19.6-11.32-27.22-26.91-22.98-41.58l-232.12-35.91-233.93-36.19c-4.01 6.21-10.26 12.05-18.91 17.04-30.65 17.7-79.22 18.37-111.66 2.42l-338.14 195.22-3.12 1.81c27.69 18.73 26.26 46.89-4.42 64.6-9.39 5.42-20.56 9.07-32.35 11.33l62.24 134.14 62.58 134.83c26.24-3.09 54.56 1.21 74.92 12.96 19.6 11.32 27.21 26.91 22.98 41.58m-982.48-792.17c-9.39 5.42-20.56 9.07-32.35 11.34l62.24 134.13 62.57 134.83c26.25-3.08 54.57 1.21 74.92 12.96 19.61 11.32 27.22 26.91 22.99 41.59l232.12 35.91 233.93 36.18c4.01-6.21 10.26-12.04 18.91-17.04 30.65-17.69 79.21-18.36 111.65-2.42l338.15-195.22 3.12-1.8c-27.69-18.73-26.26-46.89 4.42-64.6 9.39-5.42 20.56-9.07 32.35-11.34l-62.25-134.13-62.57-134.83c-26.24 3.08-54.56-1.21-74.92-12.96-19.61-11.32-27.22-26.92-22.98-41.59l-232.12-35.91-233.93-36.18c-4.01 6.21-10.27 12.04-18.91 17.04-30.66 17.69-79.21 18.36-111.65 2.41l-338.15 195.23-3.12 1.8c27.69 18.73 26.26 46.89-4.42 64.6m1232.25-833.72l-232.12-35.91-233.93-36.19c-4.01 6.21-10.26 12.05-18.91 17.04-30.65 17.7-79.21 18.37-111.66 2.42l-341.26 197.03c27.69 18.73 26.26 46.89-4.42 64.6-9.39 5.42-20.56 9.07-32.35 11.34l62.25 134.14 62.57 134.82c26.24-3.08 54.56 1.21 74.92 12.96 19.61 11.32 27.22 26.92 22.98 41.59l232.12 35.91 233.93 36.19c4.01-6.21 10.26-12.05 18.91-17.05 30.66-17.69 79.22-18.36 111.66-2.41l338.15-195.23 3.11-1.8c-27.69-18.73-26.26-46.89 4.42-64.6 9.39-5.42 20.56-9.07 32.36-11.34l-62.25-134.14-62.57-134.82c-26.25 3.08-54.57-1.21-74.93-12.96-19.61-11.32-27.22-26.92-22.98-41.59m139.77 41.59c-9.39 5.42-20.56 9.07-32.36 11.33l62.25 134.14 62.57 134.83c26.25-3.09 54.57 1.2 74.92 12.96 19.61 11.32 27.22 26.91 22.98 41.59l232.13 35.91 233.93 36.18c4.01-6.21 10.26-12.05 18.91-17.04 30.65-17.7 79.22-18.37 111.66-2.42l341.26-197.03c-27.69-18.73-26.26-46.88 4.42-64.6 9.39-5.42 20.56-9.07 32.35-11.33l-62.25-134.14-62.57-134.83c-26.24 3.09-54.56-1.21-74.92-12.96-19.61-11.32-27.22-26.91-22.98-41.59l-232.12-35.91-233.94-36.18c-4 6.21-10.26 12.05-18.9 17.04-30.66 17.7-79.22 18.37-111.66 2.42l-338.14 195.22-3.12 1.8c27.68 18.73 26.25 46.89-4.42 64.61m1392.73-644.35l-62.58-134.829c-26.24 3.089-54.56-1.211-74.92-12.961-19.6-11.321-27.22-26.91-22.98-41.578l-232.12-35.911-233.93-36.191c-4.01 6.211-10.26 12.051-18.91 17.039-30.65 17.703-79.21 18.359-111.65 2.422L3525.7 975.43l-3.12 1.808c27.69 18.731 26.26 46.882-4.42 64.602-9.39 5.41-20.56 9.06-32.35 11.33l62.25 134.14 62.57 134.83c26.24-3.09 54.56 1.2 74.92 12.96 19.61 11.32 27.22 26.91 22.98 41.58l232.12 35.91 233.93 36.19c4.01-6.21 10.26-12.05 18.91-17.04 30.65-17.7 79.21-18.37 111.66-2.42l338.14-195.23 3.12-1.8c-27.69-18.73-26.25-46.89 4.42-64.6 9.39-5.42 20.56-9.07 32.35-11.33l-62.24-134.14M2726.05 584.512c-9.39 5.418-20.56 9.07-32.36 11.328l62.25 134.14 62.58 134.829c26.24-3.09 54.56 1.211 74.91 12.961 19.61 11.32 27.22 26.91 22.99 41.589l232.12 35.911 233.93 36.179c4.01-6.211 10.26-12.051 18.91-17.039 30.65-17.699 79.21-18.359 111.66-2.422l338.14-195.218 3.12-1.801c-27.69-18.731-26.26-46.887 4.42-64.598 9.39-5.422 20.56-9.07 32.35-11.34l-62.25-134.14-6.91-14.891h10.26l5.84 12.582 62.57 134.816c26.24-3.078 54.57 1.211 74.92 12.961 19.61 11.332 27.22 26.922 22.98 41.602l232.13 35.898 233.92 36.192c4.01-6.211 10.27-12.051 18.91-17.039 30.66-17.703 79.22-18.371 111.66-2.422l341.26-197.031c-24.25-16.411-26.15-40.039-5.64-57.559h136.73c12.08 10.309 16.52 22.711 13.1 34.539l232.12 35.91 233.93 36.192c4.01-6.211 10.27-12.051 18.91-17.039 30.65-17.692 79.21-18.364 111.65-2.422l17.84-10.301v10.762l-5.17 2.98-3.12 1.801c3.16 2.137 5.89 4.41 8.29 6.758v48.3c-3.47 3.399-7.65 6.629-12.71 9.551-9.39 5.41-20.55 9.059-32.35 11.328l45.06 97.102v22.109l-54.57-117.582c-26.24 3.082-54.57-1.207-74.92-12.957-19.61-11.332-27.22-26.922-22.98-41.601l-232.12-35.91-233.93-36.18c-4.01 6.211-10.26 12.051-18.92 17.039-30.65 17.703-79.21 18.371-111.65 2.422l-341.26 197.031c27.68 18.727 26.25 46.887-4.42 64.598-9.39 5.422-20.56 9.07-32.36 11.332l62.25 134.148 62.57 134.82c26.25-3.08 54.57 1.21 74.92 12.96 19.61 11.32 27.22 26.92 22.98 41.59l232.13 35.91 233.93 36.19c4.01-6.22 10.26-12.05 18.91-17.05 30.65-17.69 79.21-18.36 111.65-2.41l307.79-177.7v10.75l-295.12 170.39-3.12 1.8c27.69 18.73 26.26 46.89-4.42 64.6-9.39 5.42-20.56 9.07-32.36 11.33l62.25 134.14 62.58 134.83c26.24-3.09 54.56 1.21 74.91 12.96 19.61 11.32 27.22 26.91 22.99 41.58l112.29 17.38v9.42l-116.37-18c-4.01 6.21-10.26 12.05-18.91 17.04-30.65 17.7-79.21 18.37-111.65 2.42l-338.15 195.22-3.12 1.81c27.69 18.73 26.26 46.89-4.42 64.6-9.38 5.42-20.55 9.07-32.35 11.33l62.25 134.14 62.57 134.83c26.24-3.09 54.57 1.21 74.92 12.96 19.61 11.32 27.22 26.92 22.98 41.59l232.12 35.91 170.13 26.32v9.42l-172.39-26.67-233.93-36.18c-4.01 6.21-10.26 12.04-18.91 17.03-30.65 17.7-79.21 18.37-111.65 2.42l-338.15 195.23-3.12 1.8c27.69 18.73 26.26 46.89-4.42 64.6-9.39 5.42-20.56 9.07-32.36 11.33l62.25 134.14 62.58 134.83c26.24-3.08 54.56 1.21 74.92 12.96 19.61 11.32 27.22 26.92 22.98 41.59l542.45 83.91 149.75-86.46v10.75l-146.52 84.6-1.42.82-548.33-84.83c-4.01 6.21-10.26 12.05-18.91 17.04-30.66 17.7-79.22 18.37-111.66 2.42l-341.26 197.03c27.69 18.73 26.26 46.89-4.42 64.6-9.39 5.42-20.56 9.07-32.35 11.33l147.36 317.54L4176.46 3801l-1.42.82-548.33-84.82c-4.01 6.21-10.26 12.05-18.91 17.04-30.66 17.7-79.21 18.36-111.66 2.42l-341.26 197.02c7.34 4.97 12.57 10.6 15.81 16.52h-202.01l-190.11-29.41-233.93-36.19c-4.01 6.21-10.26 12.05-18.91 17.05-30.65 17.69-79.21 18.36-111.65 2.41l-79.92 46.14h-18.62l85.87-49.58 3.12-1.8c-27.69-18.73-26.26-46.89 4.42-64.6 9.39-5.42 20.56-9.07 32.35-11.33l-62.24-134.14-62.58-134.83c-26.24 3.08-54.56-1.21-74.91-12.96-19.61-11.32-27.22-26.91-22.99-41.59l-232.12-35.9-233.93-36.19c-4.01 6.21-10.26 12.04-18.91 17.04-30.65 17.69-79.21 18.36-111.65 2.42l-338.15 195.22-3.12 1.8c27.69 18.73 26.26 46.89-4.42 64.6-9.39 5.42-20.56 9.07-32.35 11.34l62.25 134.14 44.72 96.36h-10.26l-43.65-94.05-62.57-134.82c-26.24 3.08-54.57-1.22-74.92-12.97-19.61-11.32-27.22-26.91-22.98-41.58l-232.125-35.91-233.93-36.19c-4.012 6.21-10.262 12.05-18.91 17.04-30.653 17.7-79.211 18.37-111.653 2.42L305 3749.56v-10.75l222.234-128.31 3.121-1.8c-27.687-18.73-26.257-46.89 4.418-64.6 9.391-5.42 20.559-9.07 32.356-11.33l-62.25-134.14-62.574-134.83c-26.242 3.08-54.563-1.21-74.918-12.96-19.606-11.32-27.219-26.92-22.981-41.59L305 3203.16v-9.43l43.477 6.73c4.011-6.21 10.261-12.05 18.91-17.05 30.656-17.7 79.215-18.36 111.66-2.41l341.258-197.03c-27.684-18.73-26.254-46.89 4.422-64.6 9.39-5.42 20.558-9.07 32.359-11.34l-62.254-134.14-62.566-134.82c-26.246 3.08-54.571-1.21-74.926-12.96-19.61-11.32-27.219-26.92-22.981-41.59l-232.121-35.91L305 2533.57v-9.43l99.504 15.39 233.93 36.19c4.011-6.21 10.261-12.04 18.91-17.04 30.652-17.7 79.211-18.36 111.652-2.42l338.144-195.22 3.12-1.8c-27.69-18.73-26.26-46.89 4.42-64.6 9.39-5.42 20.56-9.07 32.36-11.34l-62.25-134.14-62.58-134.82c-26.237 3.08-54.562-1.21-74.917-12.96-19.605-11.32-27.219-26.92-22.98-41.59l-232.122-35.91-233.933-36.19c-4.012 6.21-10.262 12.05-18.91 17.04-30.653 17.7-79.207 18.37-111.653 2.42L305 1920.26v-10.76l13.148-7.59c-5.589-3.78-9.933-7.96-13.148-12.34v-37.26c4.016-5.45 9.867-10.55 17.57-15 9.387-5.42 20.555-9.07 32.352-11.33L305 1718.4v-22.1l59.43 128.05c26.242-3.08 54.566 1.21 74.922 12.96 19.609 11.32 27.218 26.91 22.98 41.59l232.121 35.91 233.934 36.18c4.008-6.21 10.258-12.04 18.91-17.04 30.652-17.7 79.213-18.36 111.653-2.42l338.14-195.22 3.13-1.8c-27.69-18.73-26.26-46.89 4.41-64.6 9.39-5.42 20.56-9.07 32.36-11.34l-62.25-134.14-62.57-134.82c-26.25 3.08-54.57-1.21-74.92-12.96-19.61-11.33-27.22-26.92-22.98-41.6l-542.446-83.91L305 1462.93v-10.75l363.59-209.92 1.418-.83 548.332 84.83c4.01-6.21 10.26-12.05 18.91-17.04 30.65-17.7 79.21-18.36 111.65-2.42l341.27-197.02c-27.69-18.73-26.26-46.89 4.42-64.61 9.39-5.41 20.56-9.06 32.35-11.33l-147.36-317.539L1867.62 550h18.62L1591.6 720.109l144.85 312.101c26.24-3.08 54.57 1.21 74.92 12.96 19.61 11.33 27.22 26.92 22.98 41.59l232.12 35.91 233.93 36.19c4.02-6.21 10.27-12.05 18.91-17.04 30.66-17.7 79.21-18.37 111.66-2.42l336.33-194.181 4.93-2.848c-27.69-18.73-26.25-46.891 4.42-64.601 9.39-5.418 20.56-9.071 32.36-11.329l-62.25-134.14-62.57-134.832c-26.25 3.082-54.57-1.207-74.92-12.957-16.48-9.512-24.37-22.043-24-34.512h164.83c.38 12.461-7.57 24.988-24.05 34.512"
         id="path2" />
    </clipPath>
    <linearGradient
       x1="0"
       y1="0"
       x2="1"
       y2="0"
       gradientUnits="userSpaceOnUse"
       gradientTransform="matrix(-4040.98,3566.87,3566.87,4040.98,5116.31,320.21)"
       spreadMethod="pad"
       id="B">
      <stop
         offset="0"
         stop-color="#f4718f"
         id="stop5" />
      <stop
         offset="1"
         stop-color="#6b217f"
         id="stop7" />
    </linearGradient>
  </defs>
  <g
     clip-path="url(#A)"
     transform="matrix(.133333 0 0 -.133333 0 600)"
     id="g14"
     style="fill:#b14a87;fill-opacity:0.4156585">
    <path
       d="M2781.78 947.609l-336.33 194.181-4.94 2.85c27.69 18.73 26.26 46.89-4.42 64.6-9.39 5.42-20.55 9.07-32.35 11.33l62.25 134.14 62.57 134.83c26.24-3.08 54.57 1.21 74.92 12.96 19.61 11.32 27.22 26.91 22.98 41.59l232.13 35.9 233.93 36.19c4.01-6.21 10.26-12.04 18.91-17.04 30.65-17.69 79.21-18.36 111.65-2.42l338.15-195.22 3.11-1.8c-27.68-18.73-26.25-46.89 4.43-64.6 9.38-5.42 20.55-9.07 32.35-11.34l-62.25-134.14-62.57-134.82c-26.24 3.08-54.57-1.21-74.92-12.96-19.61-11.33-27.22-26.92-22.98-41.59l-232.12-35.91-233.94-36.192c-4.01 6.211-10.26 12.051-18.91 17.043-30.65 17.7-79.21 18.368-111.65 2.418m-462.47 261.631c-19.61-11.32-27.22-26.91-22.98-41.59l-232.12-35.91-233.93-36.18c-4.01 6.21-10.26 12.05-18.91 17.04-30.66 17.7-79.21 18.36-111.66 2.42l-341.26 197.02c27.69 18.73 26.26 46.89-4.42 64.6-9.39 5.43-20.56 9.08-32.36 11.34l62.25 134.14 62.57 134.83c26.25-3.09 54.57 1.2 74.93 12.95 19.61 11.33 27.22 26.92 22.98 41.6l232.12 35.91 233.93 36.18c4.01-6.21 10.26-12.05 18.91-17.04 30.66-17.7 79.21-18.37 111.66-2.42l341.26-197.03c-27.69-18.73-26.26-46.89 4.42-64.6 9.39-5.42 20.56-9.07 32.35-11.33l-62.25-134.14-62.57-134.83c-26.24 3.08-54.56-1.21-74.92-12.96m-909.55 530.51l-338.15 195.23-3.11 1.79c27.68 18.74 26.25 46.89-4.43 64.6-9.38 5.43-20.55 9.08-32.35 11.34l62.25 134.14 62.57 134.82c26.25-3.08 54.57 1.21 74.92 12.97 19.61 11.32 27.22 26.91 22.98 41.58l232.13 35.91 233.93 36.19c4.01-6.21 10.26-12.05 18.91-17.04 30.65-17.7 79.21-18.37 111.65-2.42l338.15-195.22 3.12-1.81c-27.69-18.73-26.26-46.88 4.42-64.6 9.39-5.42 20.55-9.07 32.35-11.33l-62.25-134.14-62.57-134.83c-26.25 3.09-54.57-1.21-74.92-12.96-19.61-11.32-27.22-26.91-22.98-41.58l-232.13-35.91-233.93-36.19c-4.01 6.21-10.26 12.05-18.9 17.04-30.66 17.7-79.21 18.37-111.66 2.42m-289.95 624.73L781.664 2559.7l-3.121 1.81c27.687 18.73 26.258 46.88-4.422 64.59-9.387 5.43-20.555 9.08-32.351 11.34l62.25 134.14 62.57 134.83c26.242-3.09 54.566 1.21 74.922 12.96 19.605 11.32 27.215 26.91 22.98 41.58l232.118 35.91 233.94 36.19c4.01-6.21 10.26-12.05 18.9-17.04 30.66-17.7 79.21-18.37 111.65-2.42l338.15-195.23 3.12-1.8c-27.68-18.73-26.25-46.89 4.42-64.6 9.39-5.42 20.56-9.07 32.36-11.33l-62.25-134.14-62.57-134.83c-26.24 3.09-54.57-1.21-74.92-12.96-19.61-11.32-27.22-26.91-22.99-41.59l-232.12-35.9-233.93-36.19c-4.01 6.21-10.26 12.05-18.91 17.04-30.65 17.7-79.21 18.37-111.65 2.42m-289.962 624.73l-341.254 197.03c27.683 18.73 26.254 46.88-4.426 64.6-9.391 5.42-20.559 9.07-32.355 11.33l62.253 134.14 62.571 134.83c26.242-3.09 54.562 1.21 74.922 12.96 19.609 11.32 27.218 26.91 22.98 41.59l232.121 35.9 233.93 36.19c4.01-6.21 10.26-12.05 18.91-17.04 30.65-17.7 79.21-18.36 111.66-2.42l338.14-195.22 3.12-1.8c-27.69-18.74-26.26-46.89 4.42-64.61 9.39-5.42 20.56-9.07 32.35-11.33l-62.25-134.14-62.57-134.83c-26.24 3.09-54.56-1.2-74.92-12.96-19.61-11.32-27.22-26.91-22.98-41.59l-232.12-35.91-233.932-36.18c-4.008 6.21-10.258 12.05-18.91 17.04-30.656 17.7-79.215 18.37-111.66 2.42m903.772 387.48c19.61 11.32 27.22 26.92 22.98 41.59l232.13 35.91 233.92 36.19c4.02-6.21 10.27-12.05 18.92-17.05 30.65-17.69 79.21-18.36 111.65-2.41l341.26-197.03c-27.68-18.73-26.25-46.89 4.43-64.6 9.39-5.42 20.55-9.07 32.35-11.34l-62.25-134.14-62.57-134.82c-26.24 3.08-54.57-1.21-74.92-12.96-19.61-11.32-27.22-26.92-22.98-41.59l-232.13-35.91-233.93-36.19c-4.01 6.21-10.26 12.05-18.91 17.05-30.65 17.7-79.21 18.36-111.66 2.41l-338.14 195.23-3.12 1.8c27.69 18.73 26.26 46.89-4.42 64.6-9.38 5.42-20.55 9.07-32.35 11.34l62.25 134.14 62.57 134.82c26.24-3.08 54.57 1.21 74.92 12.96m654.62 309.54l62.57 134.83c26.25-3.09 54.57 1.21 74.92 12.96 19.61 11.32 27.22 26.91 22.98 41.59l232.13 35.91 233.93 36.18c4.01-6.21 10.26-12.04 18.91-17.04 30.65-17.7 79.21-18.36 111.65-2.42l341.27-197.02c-27.69-18.74-26.26-46.89 4.42-64.6 9.39-5.42 20.55-9.07 32.35-11.34l-62.25-134.14-62.57-134.83c-26.24 3.09-54.56-1.2-74.92-12.96-19.61-11.32-27.22-26.91-22.98-41.59l-232.12-35.91-233.93-36.18c-4.01 6.21-10.26 12.05-18.91 17.04-30.66 17.7-79.22 18.37-111.66 2.42l-341.26 197.03c27.68 18.73 26.25 46.89-4.42 64.6-9.39 5.42-20.56 9.07-32.36 11.33l62.25 134.14m1219.56-19.61c19.61 11.32 27.22 26.92 22.98 41.59l542.44 83.91 452.25-261.1-144.85-312.11c-26.25 3.08-54.57-1.21-74.92-12.96-19.61-11.32-27.22-26.92-22.98-41.59l-232.13-35.91-233.93-36.18c-4.01 6.21-10.26 12.04-18.91 17.04-30.65 17.7-79.21 18.36-111.65 2.42l-338.15 195.22-3.12 1.8c27.69 18.73 26.26 46.89-4.42 64.6-9.39 5.42-20.55 9.07-32.35 11.34l62.25 134.14 62.57 134.83c26.24-3.09 54.56 1.2 74.92 12.96m909.55-530.51l341.27-197.03c-27.69-18.73-26.26-46.89 4.42-64.6 9.39-5.42 20.55-9.07 32.35-11.33l-62.25-134.14-62.57-134.83c-26.25 3.08-54.57-1.21-74.92-12.96-19.61-11.32-27.22-26.91-22.98-41.59l-232.13-35.91-233.93-36.18c-4.01 6.21-10.26 12.04-18.9 17.04-30.66 17.7-79.22 18.36-111.66 2.42l-338.15 195.22-3.11 1.8c27.68 18.73 26.25 46.89-4.42 64.6-9.39 5.42-20.56 9.07-32.36 11.34l62.25 134.14 62.57 134.82c26.25-3.08 54.57 1.21 74.92 12.96 19.61 11.32 27.22 26.92 22.98 41.59l232.13 35.91 233.93 36.19c4.01-6.21 10.26-12.05 18.91-17.05 30.65-17.69 79.21-18.36 111.65-2.41m289.96-624.73l338.14-195.23 3.12-1.8c-27.69-18.73-26.26-46.89 4.42-64.6 9.39-5.42 20.56-9.07 32.35-11.33l-62.25-134.14-62.57-134.83c-26.24 3.08-54.56-1.21-74.92-12.96-19.61-11.32-27.22-26.92-22.98-41.59l-232.12-35.91-233.93-36.19c-4.01 6.21-10.26 12.05-18.91 17.05-30.66 17.7-79.22 18.36-111.66 2.41l-341.26 197.03c27.69 18.73 26.25 46.89-4.42 64.6-9.39 5.42-20.56 9.07-32.36 11.34l62.25 134.14 62.57 134.82c26.25-3.08 54.57 1.21 74.93 12.96 19.61 11.32 27.22 26.92 22.98 41.59l232.12 35.91 233.93 36.19c4.01-6.21 10.26-12.05 18.91-17.05 30.65-17.69 79.21-18.36 111.66-2.41m289.95-624.74l338.14-195.22 3.12-1.8c-27.68-18.73-26.25-46.89 4.42-64.6 9.39-5.42 20.56-9.07 32.36-11.34l-62.25-134.14-62.57-134.82c-26.25 3.08-54.57-1.21-74.93-12.96-19.6-11.32-27.21-26.92-22.97-41.59l-232.13-35.91-233.93-36.18c-4.01 6.21-10.26 12.04-18.91 17.04-30.65 17.69-79.21 18.36-111.65 2.41l-338.15 195.23-3.12 1.8c27.69 18.73 26.26 46.89-4.42 64.6-9.39 5.42-20.56 9.07-32.35 11.34l62.25 134.13 62.57 134.83c26.24-3.08 54.57 1.21 74.92 12.96 19.61 11.32 27.22 26.91 22.98 41.59l232.12 35.91 233.94 36.18c4.01-6.21 10.26-12.04 18.9-17.04 30.66-17.69 79.21-18.36 111.66-2.42m-1026.34 530.51c9.39-5.42 20.56-9.07 32.36-11.33l-62.25-134.14-62.57-134.83c-26.25 3.09-54.57-1.21-74.92-12.96-19.61-11.32-27.22-26.91-22.98-41.58l-232.13-35.91-233.93-36.19c-4.01 6.21-10.26 12.05-18.91 17.04-30.65 17.7-79.2 18.37-111.65 2.42l-338.15 195.23-3.11 1.8c27.68 18.73 26.25 46.89-4.43 64.6-9.39 5.42-20.55 9.07-32.35 11.33l62.25 134.14 62.57 134.83c26.24-3.09 54.57 1.21 74.92 12.96 19.61 11.32 27.22 26.91 22.98 41.59l232.12 35.9 233.94 36.19c4-6.21 10.26-12.05 18.9-17.04 30.66-17.7 79.22-18.37 111.66-2.42l338.14-195.22 3.12-1.8c-27.68-18.74-26.25-46.89 4.42-64.61m-1232.25 833.72l232.12 35.91 233.94 36.19c4.01-6.21 10.26-12.05 18.9-17.04 30.65-17.7 79.21-18.36 111.65-2.42l338.15-195.23 3.12-1.8c-27.69-18.73-26.25-46.88 4.42-64.59 9.39-5.43 20.56-9.08 32.36-11.34l-62.25-134.14-62.58-134.83c-26.24 3.09-54.56-1.21-74.92-12.96-19.6-11.32-27.22-26.91-22.98-41.58l-232.12-35.91-233.93-36.19c-4.01 6.21-10.26 12.05-18.91 17.04-30.65 17.7-79.22 18.37-111.66 2.42l-338.14 195.22-3.12 1.81c27.69 18.73 26.26 46.89-4.42 64.6-9.39 5.42-20.56 9.07-32.35 11.33l62.24 134.14 62.58 134.83c26.24-3.09 54.56 1.21 74.92 12.96 19.6 11.32 27.21 26.91 22.98 41.58m-982.48-792.17c-9.39 5.42-20.56 9.07-32.35 11.34l62.24 134.13 62.57 134.83c26.25-3.08 54.57 1.21 74.92 12.96 19.61 11.32 27.22 26.91 22.99 41.59l232.12 35.91 233.93 36.18c4.01-6.21 10.26-12.04 18.91-17.04 30.65-17.69 79.21-18.36 111.65-2.42l338.15-195.22 3.12-1.8c-27.69-18.73-26.26-46.89 4.42-64.6 9.39-5.42 20.56-9.07 32.35-11.34l-62.25-134.13-62.57-134.83c-26.24 3.08-54.56-1.21-74.92-12.96-19.61-11.32-27.22-26.92-22.98-41.59l-232.12-35.91-233.93-36.18c-4.01 6.21-10.27 12.04-18.91 17.04-30.66 17.69-79.21 18.36-111.65 2.41l-338.15 195.23-3.12 1.8c27.69 18.73 26.26 46.89-4.42 64.6m1232.25-833.72l-232.12-35.91-233.93-36.19c-4.01 6.21-10.26 12.05-18.91 17.04-30.65 17.7-79.21 18.37-111.66 2.42l-341.26 197.03c27.69 18.73 26.26 46.89-4.42 64.6-9.39 5.42-20.56 9.07-32.35 11.34l62.25 134.14 62.57 134.82c26.24-3.08 54.56 1.21 74.92 12.96 19.61 11.32 27.22 26.92 22.98 41.59l232.12 35.91 233.93 36.19c4.01-6.21 10.26-12.05 18.91-17.05 30.66-17.69 79.22-18.36 111.66-2.41l338.15-195.23 3.11-1.8c-27.69-18.73-26.26-46.89 4.42-64.6 9.39-5.42 20.56-9.07 32.36-11.34l-62.25-134.14-62.57-134.82c-26.25 3.08-54.57-1.21-74.93-12.96-19.61-11.32-27.22-26.92-22.98-41.59m139.77 41.59c-9.39 5.42-20.56 9.07-32.36 11.33l62.25 134.14 62.57 134.83c26.25-3.09 54.57 1.2 74.92 12.96 19.61 11.32 27.22 26.91 22.98 41.59l232.13 35.91 233.93 36.18c4.01-6.21 10.26-12.05 18.91-17.04 30.65-17.7 79.22-18.37 111.66-2.42l341.26-197.03c-27.69-18.73-26.26-46.88 4.42-64.6 9.39-5.42 20.56-9.07 32.35-11.33l-62.25-134.14-62.57-134.83c-26.24 3.09-54.56-1.21-74.92-12.96-19.61-11.32-27.22-26.91-22.98-41.59l-232.12-35.91-233.94-36.18c-4 6.21-10.26 12.05-18.9 17.04-30.66 17.7-79.22 18.37-111.66 2.42l-338.14 195.22-3.12 1.8c27.68 18.73 26.25 46.89-4.42 64.61m1392.73-644.35l-62.58-134.829c-26.24 3.089-54.56-1.211-74.92-12.961-19.6-11.321-27.22-26.91-22.98-41.578l-232.12-35.911-233.93-36.191c-4.01 6.211-10.26 12.051-18.91 17.039-30.65 17.703-79.21 18.359-111.65 2.422L3525.7 975.43l-3.12 1.808c27.69 18.731 26.26 46.882-4.42 64.602-9.39 5.41-20.56 9.06-32.35 11.33l62.25 134.14 62.57 134.83c26.24-3.09 54.56 1.2 74.92 12.96 19.61 11.32 27.22 26.91 22.98 41.58l232.12 35.91 233.93 36.19c4.01-6.21 10.26-12.05 18.91-17.04 30.65-17.7 79.21-18.37 111.66-2.42l338.14-195.23 3.12-1.8c-27.69-18.73-26.25-46.89 4.42-64.6 9.39-5.42 20.56-9.07 32.35-11.33l-62.24-134.14M2726.05 584.512c-9.39 5.418-20.56 9.07-32.36 11.328l62.25 134.14 62.58 134.829c26.24-3.09 54.56 1.211 74.91 12.961 19.61 11.32 27.22 26.91 22.99 41.589l232.12 35.911 233.93 36.179c4.01-6.211 10.26-12.051 18.91-17.039 30.65-17.699 79.21-18.359 111.66-2.422l338.14-195.218 3.12-1.801c-27.69-18.731-26.26-46.887 4.42-64.598 9.39-5.422 20.56-9.07 32.35-11.34l-62.25-134.14-6.91-14.891h10.26l5.84 12.582 62.57 134.816c26.24-3.078 54.57 1.211 74.92 12.961 19.61 11.332 27.22 26.922 22.98 41.602l232.13 35.898 233.92 36.192c4.01-6.211 10.27-12.051 18.91-17.039 30.66-17.703 79.22-18.371 111.66-2.422l341.26-197.031c-24.25-16.411-26.15-40.039-5.64-57.559h136.73c12.08 10.309 16.52 22.711 13.1 34.539l232.12 35.91 233.93 36.192c4.01-6.211 10.27-12.051 18.91-17.039 30.65-17.692 79.21-18.364 111.65-2.422l17.84-10.301v10.762l-5.17 2.98-3.12 1.801c3.16 2.137 5.89 4.41 8.29 6.758v48.3c-3.47 3.399-7.65 6.629-12.71 9.551-9.39 5.41-20.55 9.059-32.35 11.328l45.06 97.102v22.109l-54.57-117.582c-26.24 3.082-54.57-1.207-74.92-12.957-19.61-11.332-27.22-26.922-22.98-41.601l-232.12-35.91-233.93-36.18c-4.01 6.211-10.26 12.051-18.92 17.039-30.65 17.703-79.21 18.371-111.65 2.422l-341.26 197.031c27.68 18.727 26.25 46.887-4.42 64.598-9.39 5.422-20.56 9.07-32.36 11.332l62.25 134.148 62.57 134.82c26.25-3.08 54.57 1.21 74.92 12.96 19.61 11.32 27.22 26.92 22.98 41.59l232.13 35.91 233.93 36.19c4.01-6.22 10.26-12.05 18.91-17.05 30.65-17.69 79.21-18.36 111.65-2.41l307.79-177.7v10.75l-295.12 170.39-3.12 1.8c27.69 18.73 26.26 46.89-4.42 64.6-9.39 5.42-20.56 9.07-32.36 11.33l62.25 134.14 62.58 134.83c26.24-3.09 54.56 1.21 74.91 12.96 19.61 11.32 27.22 26.91 22.99 41.58l112.29 17.38v9.42l-116.37-18c-4.01 6.21-10.26 12.05-18.91 17.04-30.65 17.7-79.21 18.37-111.65 2.42l-338.15 195.22-3.12 1.81c27.69 18.73 26.26 46.89-4.42 64.6-9.38 5.42-20.55 9.07-32.35 11.33l62.25 134.14 62.57 134.83c26.24-3.09 54.57 1.21 74.92 12.96 19.61 11.32 27.22 26.92 22.98 41.59l232.12 35.91 170.13 26.32v9.42l-172.39-26.67-233.93-36.18c-4.01 6.21-10.26 12.04-18.91 17.03-30.65 17.7-79.21 18.37-111.65 2.42l-338.15 195.23-3.12 1.8c27.69 18.73 26.26 46.89-4.42 64.6-9.39 5.42-20.56 9.07-32.36 11.33l62.25 134.14 62.58 134.83c26.24-3.08 54.56 1.21 74.92 12.96 19.61 11.32 27.22 26.92 22.98 41.59l542.45 83.91 149.75-86.46v10.75l-146.52 84.6-1.42.82-548.33-84.83c-4.01 6.21-10.26 12.05-18.91 17.04-30.66 17.7-79.22 18.37-111.66 2.42l-341.26 197.03c27.69 18.73 26.26 46.89-4.42 64.6-9.39 5.42-20.56 9.07-32.35 11.33l147.36 317.54L4176.46 3801l-1.42.82-548.33-84.82c-4.01 6.21-10.26 12.05-18.91 17.04-30.66 17.7-79.21 18.36-111.66 2.42l-341.26 197.02c7.34 4.97 12.57 10.6 15.81 16.52h-202.01l-190.11-29.41-233.93-36.19c-4.01 6.21-10.26 12.05-18.91 17.05-30.65 17.69-79.21 18.36-111.65 2.41l-79.92 46.14h-18.62l85.87-49.58 3.12-1.8c-27.69-18.73-26.26-46.89 4.42-64.6 9.39-5.42 20.56-9.07 32.35-11.33l-62.24-134.14-62.58-134.83c-26.24 3.08-54.56-1.21-74.91-12.96-19.61-11.32-27.22-26.91-22.99-41.59l-232.12-35.9-233.93-36.19c-4.01 6.21-10.26 12.04-18.91 17.04-30.65 17.69-79.21 18.36-111.65 2.42l-338.15 195.22-3.12 1.8c27.69 18.73 26.26 46.89-4.42 64.6-9.39 5.42-20.56 9.07-32.35 11.34l62.25 134.14 44.72 96.36h-10.26l-43.65-94.05-62.57-134.82c-26.24 3.08-54.57-1.22-74.92-12.97-19.61-11.32-27.22-26.91-22.98-41.58l-232.125-35.91-233.93-36.19c-4.012 6.21-10.262 12.05-18.91 17.04-30.653 17.7-79.211 18.37-111.653 2.42L305 3749.56v-10.75l222.234-128.31 3.121-1.8c-27.687-18.73-26.257-46.89 4.418-64.6 9.391-5.42 20.559-9.07 32.356-11.33l-62.25-134.14-62.574-134.83c-26.242 3.08-54.563-1.21-74.918-12.96-19.606-11.32-27.219-26.92-22.981-41.59L305 3203.16v-9.43l43.477 6.73c4.011-6.21 10.261-12.05 18.91-17.05 30.656-17.7 79.215-18.36 111.66-2.41l341.258-197.03c-27.684-18.73-26.254-46.89 4.422-64.6 9.39-5.42 20.558-9.07 32.359-11.34l-62.254-134.14-62.566-134.82c-26.246 3.08-54.571-1.21-74.926-12.96-19.61-11.32-27.219-26.92-22.981-41.59l-232.121-35.91L305 2533.57v-9.43l99.504 15.39 233.93 36.19c4.011-6.21 10.261-12.04 18.91-17.04 30.652-17.7 79.211-18.36 111.652-2.42l338.144-195.22 3.12-1.8c-27.69-18.73-26.26-46.89 4.42-64.6 9.39-5.42 20.56-9.07 32.36-11.34l-62.25-134.14-62.58-134.82c-26.237 3.08-54.562-1.21-74.917-12.96-19.605-11.32-27.219-26.92-22.98-41.59l-232.122-35.91-233.933-36.19c-4.012 6.21-10.262 12.05-18.91 17.04-30.653 17.7-79.207 18.37-111.653 2.42L305 1920.26v-10.76l13.148-7.59c-5.589-3.78-9.933-7.96-13.148-12.34v-37.26c4.016-5.45 9.867-10.55 17.57-15 9.387-5.42 20.555-9.07 32.352-11.33L305 1718.4v-22.1l59.43 128.05c26.242-3.08 54.566 1.21 74.922 12.96 19.609 11.32 27.218 26.91 22.98 41.59l232.121 35.91 233.934 36.18c4.008-6.21 10.258-12.04 18.91-17.04 30.652-17.7 79.213-18.36 111.653-2.42l338.14-195.22 3.13-1.8c-27.69-18.73-26.26-46.89 4.41-64.6 9.39-5.42 20.56-9.07 32.36-11.34l-62.25-134.14-62.57-134.82c-26.25 3.08-54.57-1.21-74.92-12.96-19.61-11.33-27.22-26.92-22.98-41.6l-542.446-83.91L305 1462.93v-10.75l363.59-209.92 1.418-.83 548.332 84.83c4.01-6.21 10.26-12.05 18.91-17.04 30.65-17.7 79.21-18.36 111.65-2.42l341.27-197.02c-27.69-18.73-26.26-46.89 4.42-64.61 9.39-5.41 20.56-9.06 32.35-11.33l-147.36-317.539L1867.62 550h18.62L1591.6 720.109l144.85 312.101c26.24-3.08 54.57 1.21 74.92 12.96 19.61 11.33 27.22 26.92 22.98 41.59l232.12 35.91 233.93 36.19c4.02-6.21 10.27-12.05 18.91-17.04 30.66-17.7 79.21-18.37 111.66-2.42l336.33-194.181 4.93-2.848c-27.69-18.73-26.25-46.891 4.42-64.601 9.39-5.418 20.56-9.071 32.36-11.329l-62.25-134.14-62.57-134.832c-26.25 3.082-54.57-1.207-74.92-12.957-16.48-9.512-24.37-22.043-24-34.512h164.83c.38 12.461-7.57 24.988-24.05 34.512"
       fill="url(#B)"
       id="path12"
       style="fill:#b14a87;fill-opacity:0.4156585" />
  </g>
</svg>
