<svg xmlns="http://www.w3.org/2000/svg" xmlns:xlink="http://www.w3.org/1999/xlink" width="597.936" height="615.517" xmlns:v="https://vecta.io/nano"><style><![CDATA[.B{fill:#27debf}.C{fill:#fff}.D{opacity:.6}.E{opacity:.8}.F{fill:#37474f}.G{fill:#455a64}.H{fill:#263238}.I{fill:#e6e6e6}.J{opacity:.5}.K{fill:#ffa8a7}.L{opacity:.15}.M{fill:#f5f5f5}.N{fill:#f0f0f0}.O{stroke-miterlimit:10}]]></style><defs><clipPath id="A"><path d="M0 500h500V0H0z"/></clipPath><clipPath id="B"><path d="M0 500h500V0H0z"/></clipPath><clipPath id="C"><path d="M0 500h500V0H0z"/></clipPath><clipPath id="D"><path d="M155.728 372.47h297.293V196.768H155.728z"/></clipPath><clipPath id="E"><path d="M338.819 268.461h114.2v-71.7h-114.2z"/></clipPath><clipPath id="F"><path d="M156.922 372.47h294.905V202.286H156.922z"/></clipPath><clipPath id="G"><path d="M218.583 314.246h107.312v-61.94H218.583z"/></clipPath><clipPath id="H"><path d="M270.816 344.343h137.718v-79.511H270.816z"/></clipPath><clipPath id="I"><path d="M278.465 435.652h107.117V295.383H278.465z"/></clipPath><clipPath id="J"><path d="M293.387 463.025H427.72v-77.668H293.387z"/></clipPath><clipPath id="K"><path d="M425.234 386.793h3.081v-9.751h-3.081z"/></clipPath><clipPath id="L"><path d="M425.119 378.505h3.196v-90.197h-3.196z"/></clipPath><clipPath id="M"><path d="M331.617 414.64h15.104v-9.585h-15.104z"/></clipPath><clipPath id="N"><path d="M331.617 408.643h7.805v-5.404h-7.805z"/></clipPath><clipPath id="O"><path d="M331.617 396.627h7.805v-5.404h-7.805z"/></clipPath><clipPath id="P"><path d="M331.617 390.619h7.805v-5.404h-7.805z"/></clipPath><clipPath id="Q"><path d="M348.022 405.207h9.614v-6.468h-9.614z"/></clipPath><clipPath id="R"><path d="M342.023 402.635h15.105v-9.585h-15.105z"/></clipPath><clipPath id="S"><path d="M358.429 393.201h58.611v-34.807h-58.611z"/></clipPath><clipPath id="T"><path d="M331.617 372.47h7.805v-5.404h-7.805z"/></clipPath><clipPath id="U"><path d="M331.617 366.464h7.805v-5.404h-7.805z"/></clipPath><clipPath id="V"><path d="M331.617 360.458h7.805v-5.404h-7.805z"/></clipPath><clipPath id="W"><path d="M321.621 426.679h5.142v-72.046h-5.142z"/></clipPath><clipPath id="X"><path d="M321.621 426.679h5.142v-5.334h-5.142z"/></clipPath><clipPath id="Y"><path d="M321.621 420.615h5.142v-5.335h-5.142z"/></clipPath><clipPath id="Z"><path d="M321.621 414.55h5.142v-5.334h-5.142z"/></clipPath><clipPath id="a"><path d="M321.621 408.485h5.142v-5.334h-5.142z"/></clipPath><clipPath id="b"><path d="M321.621 402.42h5.142v-5.334h-5.142z"/></clipPath><clipPath id="c"><path d="M321.621 396.355h5.142v-5.334h-5.142z"/></clipPath><clipPath id="d"><path d="M321.621 390.291h5.142v-5.334h-5.142z"/></clipPath><clipPath id="e"><path d="M321.621 384.226h5.142v-5.334h-5.142z"/></clipPath><clipPath id="f"><path d="M321.621 378.161h5.142v-5.334h-5.142z"/></clipPath><clipPath id="g"><path d="M321.621 372.096h5.142v-5.334h-5.142z"/></clipPath><clipPath id="h"><path d="M321.621 366.032h5.142v-5.334h-5.142z"/></clipPath><clipPath id="i"><path d="M321.621 359.967h5.142v-5.334h-5.142z"/></clipPath><clipPath id="j"><path d="M298.48 423.037h3.265v-2.788h-3.265z"/></clipPath><clipPath id="k"><path d="M298.48 442.327h3.265v-2.789h-3.265z"/></clipPath><clipPath id="l"><path d="M301.12 436.954h3.264v-2.789h-3.264z"/></clipPath><clipPath id="m"><path d="M301.12 433.106h3.264v-2.789h-3.264z"/></clipPath><clipPath id="n"><path d="M298.48 430.756h3.265v-2.789h-3.265z"/></clipPath><clipPath id="o"><path d="M301.12 425.379h3.264v-2.788h-3.264z"/></clipPath><clipPath id="p"><path d="M303.623 439.356h12.855v-8.324h-12.855z"/></clipPath><clipPath id="q"><path d="M303.623 420.067h12.855v-8.325h-12.855z"/></clipPath><clipPath id="r"><path d="M306.262 433.984h10.216v-6.81h-10.216z"/></clipPath><clipPath id="s"><path d="M306.262 430.126h10.216v-6.81h-10.216z"/></clipPath><clipPath id="t"><path d="M303.623 427.782h12.855v-8.324h-12.855z"/></clipPath><clipPath id="u"><path d="M306.262 422.409h10.216V415.6h-10.216z"/></clipPath><clipPath id="v"><path d="M298.48 411.176h3.265v-2.789h-3.265z"/></clipPath><clipPath id="w"><path d="M301.12 405.802h3.264v-2.788h-3.264z"/></clipPath><clipPath id="x"><path d="M301.12 401.954h3.264v-2.788h-3.264z"/></clipPath><clipPath id="y"><path d="M298.48 399.605h3.265v-2.789h-3.265z"/></clipPath><clipPath id="z"><path d="M303.623 408.205h12.855v-8.325h-12.855z"/></clipPath><clipPath id="AA"><path d="M306.262 402.832h10.216v-6.809h-10.216z"/></clipPath><clipPath id="AB"><path d="M306.262 398.975h10.216v-6.81h-10.216z"/></clipPath><clipPath id="AC"><path d="M303.623 396.631h12.855v-8.324h-12.855z"/></clipPath><clipPath id="AD"><path d="M301.12 394.205h3.264v-2.788h-3.264z"/></clipPath><clipPath id="AE"><path d="M301.12 390.357h3.264v-2.788h-3.264z"/></clipPath><clipPath id="AF"><path d="M306.262 391.235h10.216v-6.809h-10.216z"/></clipPath><clipPath id="AG"><path d="M306.262 387.378h10.216v-6.81h-10.216z"/></clipPath><clipPath id="AH"><path d="M298.48 380.269h3.265v-2.789h-3.265z"/></clipPath><clipPath id="AI"><path d="M303.623 377.295h12.855v-8.324h-12.855z"/></clipPath><clipPath id="AJ"><path d="M301.12 374.87h3.264v-2.789h-3.264z"/></clipPath><clipPath id="AK"><path d="M301.12 371.022h3.264v-2.789h-3.264z"/></clipPath><clipPath id="AL"><path d="M306.262 371.9h10.216v-6.81h-10.216z"/></clipPath><clipPath id="AM"><path d="M306.262 368.042h10.216v-6.81h-10.216z"/></clipPath><clipPath id="AN"><path d="M301.12 386.53h3.264v-2.789h-3.264z"/></clipPath><clipPath id="AO"><path d="M298.48 384.18h3.265v-2.788h-3.265z"/></clipPath><clipPath id="AP"><path d="M306.262 383.55h10.216v-6.81h-10.216z"/></clipPath><clipPath id="AQ"><path d="M303.623 381.207h12.855v-8.325h-12.855z"/></clipPath><clipPath id="AR"><path d="M298.48 368.618h3.265v-2.788h-3.265z"/></clipPath><clipPath id="AS"><path d="M303.623 365.645h12.855v-8.325h-12.855z"/></clipPath><clipPath id="AT"><path d="M410.784 350.836h47.054V245.111h-47.054z"/></clipPath><clipPath id="AU"><path d="M411.311 352.257h48.575v-28.103h-48.575z"/></clipPath><clipPath id="AV"><path d="M457.362 325.595h3.008v-8.199h-3.008z"/></clipPath><clipPath id="AW"><path d="M457.255 318.859h3.112v-73.601h-3.112z"/></clipPath><clipPath id="AX"><path d="M414.347 324.016h16.505V313.76h-16.505z"/></clipPath><clipPath id="AY"><path d="M414.347 319.141h6.344v-4.392h-6.344z"/></clipPath><clipPath id="AZ"><path d="M414.347 314.258h6.344v-4.392h-6.344z"/></clipPath><clipPath id="Aa"><path d="M414.347 309.376h6.344v-4.392h-6.344z"/></clipPath><clipPath id="Ab"><path d="M422.806 304.492h16.505v-10.255h-16.505z"/></clipPath><clipPath id="Ac"><path d="M440.368 294.36h7.814v-5.258h-7.814z"/></clipPath><clipPath id="Ad"><path d="M422.806 304.492h16.505v-10.255h-16.505z"/></clipPath><clipPath id="Ae"><path d="M440.368 294.36h7.814v-5.258h-7.814z"/></clipPath><clipPath id="Af"><path d="M414.347 304.491h6.344v-4.392h-6.344z"/></clipPath><clipPath id="Ag"><path d="M431.909 313.883h7.815v-5.257h-7.815z"/></clipPath><clipPath id="Ah"><path d="M422.806 314.258h16.505v-10.256h-16.505z"/></clipPath><clipPath id="Ai"><path d="M440.368 304.125h7.814v-5.257h-7.814z"/></clipPath><clipPath id="Aj"><path d="M333.937 265.452h39.53v-23.94h-39.53z"/></clipPath><clipPath id="Ak"><path d="M0 500h500V0H0z"/></clipPath><clipPath id="Al"><path d="M361.164 157.27h61.87V87.607h-61.87z"/></clipPath><clipPath id="Am"><path d="M362.009 165.836h60.182v-35.137h-60.182z"/></clipPath><clipPath id="An"><path d="M370.002 161.169h44.196v-25.803h-44.196z"/></clipPath><clipPath id="Ao"><path d="M386.387 215.53h47.638v-74.252h-47.638z"/></clipPath><clipPath id="Ap"><path d="M355.033 194.08h50.245v-56.488h-50.245z"/></clipPath><clipPath id="Aq"><path d="M0 500h500V0H0z"/></clipPath><clipPath id="Ar"><path d="M211.714 158.65h48.622v-23.755h-48.622z"/></clipPath><clipPath id="As"><path d="M245.301 142.234h52.859v-24.661h-52.859z"/></clipPath><clipPath id="At"><path d="M95.576 229.462h131.306v-75.946H95.576z"/></clipPath><clipPath id="Au"><path d="M169.345 192.06h57.379v-41.924h-57.379z"/></clipPath><clipPath id="Av"><path d="M116.047 325.385h100.424V200.892H116.047z"/></clipPath><clipPath id="Aw"><path d="M116.047 298.207h100.417v-97.315H116.047z"/></clipPath><clipPath id="Ax"><path d="M87.221 267.502h82.661v-116.41h-82.66z"/></clipPath><clipPath id="Ay"><path d="M0 500h500V0H0z"/></clipPath><clipPath id="Az"><path d="M181.727 417.878h11.611v-24.572h-11.611z"/></clipPath><clipPath id="BA"><path d="M163.228 448.653h11.75v-55.359h-11.75z"/></clipPath><clipPath id="BB"><path d="M164.183 475.12h54.739v-31.71h-54.739z"/></clipPath><clipPath id="BC"><path d="M0 500h500V0H0z"/></clipPath><path id="BD" d="M453.021 264.388v.812c0 1.3-.912 2.88-2.037 3.529L271.968 371.983c-1.125.65-2.95.65-4.075 0l-110.127-63.604c-1.125-.649-2.037-2.229-2.037-3.529v-.812c0-1.299.912-2.879 2.037-3.529l179.016-103.254c1.125-.65 2.949-.65 4.075 0l110.127 63.604c1.125.65 2.037 2.23 2.037 3.529"/><path id="BE" d="M338.818 202.282v-5.521c.737 0 1.475.172 2.039.486l110.123 63.606c1.129.659 2.039 2.228 2.039 3.53v.815c0 1.145-.706 2.525-1.663 3.263.737-.628.612-1.506-.376-2.087l-110.123-63.606c-.564-.329-1.302-.486-2.039-.486"/><path id="BF" d="M450.983 266.376l-110.127-63.603c-1.126-.65-2.95-.65-4.075 0L157.765 306.026c-1.125.65-1.125 1.704 0 2.353l110.127 63.603c1.125.65 2.95.65 4.075 0l179.016-103.253c1.125-.649 1.125-1.703 0-2.353"/><path id="BG" d="M385.582 296.257l-.001 76.68c0 .78-.547 1.729-1.223 2.119l-104.666 60.429c-.675.39-1.223.074-1.223-.707l-.003-76.681c-.001-.78.547-1.729 1.222-2.119l104.671-60.428c.676-.39 1.223-.073 1.223.707"/><path id="BH" d="M342.717 390.521l10.323-5.937c.383-.221.694-.737.694-1.151s-.311-.572-.694-.351l-10.323 5.937c-.383.221-.693.736-.693 1.151s.31.572.693.351"/><path id="BI" d="M332.311 414.54l13.718-7.882a1.49 1.49 0 0 0 .693-1.151c0-.415-.31-.572-.693-.351l-13.718 7.882c-.383.221-.693.736-.693 1.151s.31.572.693.351"/><path id="BJ" d="M332.311 408.543l6.418-3.701c.383-.221.693-.736.693-1.151s-.31-.572-.693-.351l-6.418 3.701a1.49 1.49 0 0 0-.693 1.151c0 .415.31.572.693.351"/><path id="BK" d="M332.311 396.527l6.418-3.701a1.49 1.49 0 0 0 .693-1.152c0-.415-.31-.571-.693-.351l-6.418 3.702c-.383.221-.693.736-.693 1.151s.31.572.693.351"/><path id="BL" d="M332.311 390.519l6.418-3.701c.383-.221.693-.736.693-1.152s-.31-.571-.693-.35l-6.418 3.701c-.383.221-.693.736-.693 1.151s.31.572.693.351"/><path id="BM" d="M348.716 405.106l8.227-4.765c.382-.221.693-.737.693-1.152s-.311-.571-.693-.351l-8.227 4.766c-.383.221-.693.736-.693 1.151s.309.572.693.351"/><path id="BN" d="M342.717 402.534l13.718-7.882a1.49 1.49 0 0 0 .693-1.151c0-.415-.31-.572-.693-.351l-13.718 7.882a1.49 1.49 0 0 0-.693 1.151c0 .415.31.572.693.351"/><path id="BO" d="M359.122 393.101l57.225-33.105a1.49 1.49 0 0 0 .693-1.151c0-.415-.31-.573-.693-.351l-57.225 33.105c-.383.221-.693.736-.693 1.151s.31.572.693.351"/><path id="BP" d="M342.717 366.364l74.039-42.697c.383-.221.693-.736.693-1.151s-.31-.572-.693-.351l-74.039 42.697c-.383.221-.693.736-.693 1.151s.31.572.693.351"/><path id="BQ" d="M322.306 420.521l3.772-2.178a1.52 1.52 0 0 0 .685-1.187v-1.386c0-.437-.307-.615-.685-.396l-3.772 2.178c-.378.218-.685.749-.685 1.186l-.001 1.387c0 .438.307.614.686.396"/><path id="BR" d="M322.306 414.456l3.772-2.178a1.52 1.52 0 0 0 .685-1.187v-1.386c0-.437-.307-.614-.685-.396l-3.772 2.178a1.52 1.52 0 0 0-.685 1.187l-.001 1.386c0 .438.307.615.686.396"/><path id="BS" d="M322.306 408.392l3.772-2.178a1.52 1.52 0 0 0 .685-1.187v-1.386c0-.437-.307-.615-.685-.396l-3.772 2.177a1.52 1.52 0 0 0-.685 1.187l-.001 1.387c0 .437.307.614.686.396"/><path id="BT" d="M299.174 422.937l1.878-1.086c.383-.221.693-.736.693-1.151s-.31-.572-.693-.351l-1.878 1.086c-.383.221-.693.736-.693 1.151s.31.572.693.351"/><path id="BU" d="M301.814 436.854l1.878-1.086a1.49 1.49 0 0 0 .693-1.151c0-.415-.31-.572-.693-.351l-1.878 1.086c-.383.221-.693.736-.693 1.151s.31.572.693.351"/><path id="BV" d="M304.316 439.256l11.469-6.622c.383-.221.693-.736.693-1.151s-.31-.572-.693-.351l-11.469 6.622c-.383.221-.693.736-.693 1.151s.31.572.693.351"/><path id="BW" d="M306.956 433.883l8.829-5.107a1.49 1.49 0 0 0 .693-1.151c0-.415-.31-.572-.693-.351l-8.829 5.107c-.383.221-.693.736-.694 1.151s.31.572.694.351"/><path id="BX" d="M306.956 422.308l8.829-5.105c.383-.222.693-.737.693-1.152s-.31-.572-.693-.351l-8.829 5.106c-.383.221-.693.736-.694 1.151s.31.572.694.351"/><path id="BY" d="M306.956 402.732l8.829-5.107c.383-.222.693-.737.693-1.152s-.31-.572-.693-.351l-8.829 5.108c-.383.221-.693.736-.694 1.151s.31.572.694.351"/><path id="BZ" d="M304.316 396.531l11.469-6.622c.383-.221.693-.736.693-1.151s-.31-.572-.693-.351l-11.469 6.622a1.49 1.49 0 0 0-.693 1.151c0 .415.31.572.693.351"/><path id="Ba" d="M301.814 394.106l1.878-1.086a1.49 1.49 0 0 0 .693-1.152c0-.414-.31-.572-.693-.35l-1.878 1.086c-.383.221-.693.736-.693 1.151s.31.572.693.351"/><path id="Bb" d="M306.956 391.135l8.829-5.107c.383-.222.693-.737.693-1.152s-.31-.572-.693-.35l-8.829 5.107c-.383.221-.693.736-.694 1.151s.31.572.694.351"/><path id="Bc" d="M306.956 387.277l8.829-5.107a1.49 1.49 0 0 0 .693-1.152c0-.414-.31-.572-.693-.35l-8.829 5.107c-.383.221-.693.736-.694 1.151s.31.572.694.351"/><path id="Bd" d="M304.316 377.195l11.469-6.622a1.49 1.49 0 0 0 .693-1.151c0-.415-.31-.572-.693-.352l-11.469 6.623c-.383.221-.693.736-.693 1.151s.31.572.693.351"/><path id="Be" d="M301.814 374.77l1.878-1.086a1.49 1.49 0 0 0 .693-1.151c0-.415-.31-.573-.693-.351l-1.878 1.086c-.383.221-.693.736-.693 1.151s.31.572.693.351"/><path id="Bf" d="M414.911 328.829l26.364-15.221c.311-.18.564-.599.564-.936s-.253-.465-.564-.285l-26.364 15.221c-.312.179-.563.599-.563.936s.251.465.563.285"/><path id="Bg" d="M443.459 258.631l10.504-6.042c.311-.18.563-.599.563-.936s-.252-.465-.563-.285l-10.504 6.042c-.311.179-.563.598-.563.936s.252.465.563.285"/><path id="Bh" d="M414.911 323.934l15.377-8.872c.311-.179.563-.598.563-.936s-.252-.464-.563-.285l-15.377 8.872a1.21 1.21 0 0 0-.563.936c0 .337.251.465.563.285"/><path id="Bi" d="M414.911 319.06l5.217-3.008c.31-.18.563-.599.563-.936s-.253-.465-.563-.285l-5.217 3.008a1.21 1.21 0 0 0-.563.936c0 .337.251.465.563.285"/><path id="Bj" d="M414.911 314.176l5.217-3.008c.31-.18.563-.599.563-.936s-.253-.465-.563-.285l-5.217 3.008c-.312.179-.563.599-.563.936s.251.465.563.285"/><path id="Bk" d="M414.911 309.293l5.217-3.008c.31-.18.563-.599.563-.936s-.253-.465-.563-.285l-5.217 3.008c-.312.179-.563.598-.563.936s.251.465.563.285"/><path id="Bl" d="M423.369 304.411l15.378-8.872c.311-.179.563-.598.563-.936s-.252-.464-.563-.285l-15.378 8.872c-.311.18-.563.599-.563.936s.252.465.563.285"/><path id="Bm" d="M440.932 294.278l6.687-3.874c.311-.179.563-.598.563-.935s-.252-.465-.563-.285l-6.687 3.873c-.312.179-.563.598-.563.935s.251.466.563.286"/><path id="Bn" d="M414.911 304.41l5.217-3.009c.31-.179.563-.598.563-.935s-.253-.465-.563-.285l-5.217 3.008c-.312.179-.563.598-.563.936s.251.465.563.285"/><path id="Bo" d="M432.473 313.802l6.687-3.874a1.21 1.21 0 0 0 .564-.935c0-.337-.253-.465-.564-.285l-6.687 3.873c-.311.179-.563.598-.563.936s.251.465.563.285"/><path id="Bp" d="M447.276 280.855l6.687-3.873c.311-.18.563-.599.563-.936s-.252-.465-.563-.285l-6.687 3.873c-.312.179-.563.598-.563.936s.251.465.563.285"/><path id="Bq" d="M423.369 314.176l15.378-8.872c.311-.18.563-.599.563-.936s-.252-.464-.563-.285l-15.378 8.872c-.311.179-.563.598-.563.936s.252.465.563.285"/><path id="Br" d="M372.698 94.488c-10.378 10.708-16.474 54.288-6.352 62.781h51.503c10.12-8.49 4.032-52.055-6.34-62.771-.089-.1-.191-.196-.285-.295l-.357-.353c-.293-.287-.604-.568-.939-.843-.081-.069-.165-.131-.247-.198-.254-.201-.505-.404-.784-.598-.442-.317-.888-.613-1.341-.867-8.537-4.983-22.377-4.983-30.913 0h-.001-.001c-.456.256-.905.554-1.35.873-.259.182-.491.371-.73.558l-.306.243a14.45 14.45 0 0 0-.905.814c-.138.132-.276.271-.412.408-.079.083-.165.164-.24.248"/><path id="Bs" d="M413.378 160.69c11.751-6.861 11.751-17.985-.001-24.846s-30.804-6.861-42.555 0-11.751 17.985 0 24.846 30.804 6.861 42.556 0"/><path id="Bt" d="M407.726 157.391c8.63-5.039 8.63-13.208 0-18.246s-22.622-5.039-31.252 0-8.63 13.207.001 18.246 22.621 5.039 31.251 0"/><path id="Bu" d="M387.881 170.723c-.576 1.171-1.062 2.388-1.313 3.758-.578 3.137.205 6.734 2.744 8.665 1.01.768 2.325 1.338 2.755 2.533.236.658.147 1.384.025 2.073-.472 2.679-1.376 5.436-.631 8.052.69 2.42 2.722 4.275 4.995 5.353s4.796 1.492 7.279 1.901c1.323.219 2.677.449 3.847 1.104 1.44.806 1.887 2.228 2.783 3.476.988 1.375 2.272 2.648 3.531 3.772 2.622 2.344 5.907 4.272 9.538 4.111 7.575-.335 7.361-6.853 5.174-11.795s-2.762-6.55 1.97-11.697 4.742-11.494-.903-15.049-9.321-4.021-7.086-10.862c1.996-6.108 3.232-11.323-2.412-17.85-3.649-4.219-8.637-7.231-14.877-6.974-1.77.073-5.656.886-7.298 1.702-1.719.854-.56 2.189-1.141 3.884l-3.741 10.925c-.965 2.818-1.699 5.945-2.974 8.615-.715 1.498-1.558 2.866-2.265 4.303"/><path id="Bv" d="M392.922 138.973s-7.003-2.65-16.429-.608-15.191 10.843-15.191 10.843 10.194 4.085 16.141 4.482c0 0-9.226 1.572-17.857-.383 0 0-5.456 2.032-4.423 11.246 0 0 5.136 3.785 16.956 2.302 0 0-5.923 4.228-16.307 5.476-.818-.008.289 11.995 1.279 17.345s2.954 4.525 7.201 4.063 16.806-3.321 18.4-6.402.044-10.935.044-10.935 3.453 4.296 3.466 10.28c0 0 4.728-1.728 7.255-3.96s3.791-4.036 4.521-5.66c-.59-4.212-2.573-10.638-5.351-14.228 0 0 6.261 4.043 7.692 11.491 0 0 5.007-6.396 4.958-14.654-.056-9.417-4.243-16.407-12.355-20.698"/><path id="Bw" d="M228.252 156.924c2.483-1.717 7.62-.525 13.171.107 5.233.596 11.127 2.435 14.684 1.202s6.533-5.421 1.725-10.791c-1.391-1.553-4.335-4.286-6.687-5.128-5.977-2.14-11.34-2.313-15.185-3.262-5.002-1.234-7.736-3.449-12.364-3.986-5.988-.695-9.776.844-10.812 2.443s-1.997 14.49.571 14.223c0 0 1.08-4.171 10.861-.12 4.271 1.769 4.203 4.373 4.036 5.312"/><path id="Bx" d="M263.628 141.128l1.229-.762c.444-.227.873-.217 1.365-.276 1.089-.131 2.179-.137 3.274-.083l8.21.794c5.635.502 12.011 2.321 15.797.903s7.244-5.976 1.94-11.613c-1.533-1.63-4.69-4.381-7.106-5.391-6.29-2.631-12.816-2.139-16.969-3.056-5.403-1.194-8.396-3.5-13.379-3.954-6.447-.589-10.473 1.163-11.542 2.907-.597.974.067 6.028-.741 9.954-.696 3.38-.514 5.682.702 5.526.191-.436.641-.828.941-1.195.39-.477.883-.85 1.43-1.13.759-.389 1.593-.604 2.419-.813 1.472-.373 2.977-.733 4.491-.617.431.033.882.115 1.219.388.445.36.59.964.709 1.524l.318 1.492c.057.27.118.548.272.777.183.273.478.448.766.608.908.508 1.883 1.004 2.455 1.872.448.68.594 1.51.721 2.314.021.14.05.293.161.381.184.146.451.022.649-.104.224-.142.445-.294.669-.446"/><path id="By" d="M226.724 192.06c1.167 6.561-4.178 11.68-14.233 18.467s-22.913 13.512-29.136 16.369c-8.412 3.861-17.018 3.506-27.788-2.028-14.963-7.688-59.991-34.994-59.991-34.994s67.319-38.006 80.272-36.302 45.326 22.757 47.891 30.166l2.985 8.322"/><path id="Bz" d="M193.338 393.306l-4.369 8.214 3.515 10.147v6.211l-10.756-6.211v-6.211l4.624-8.01a.67.67 0 0 1 .314-.28l-.002-.004z"/></defs><g transform="matrix(1.333333 0 0 -1.333333 -34.177966 633.50065)"><g clip-path="url(#A)" class="M"><path d="M408.412 225.426c87.565-48.484 87.565-127.091-.001-175.575s-229.539-48.484-317.104 0-87.565 127.091.001 175.574 229.539 48.484 317.104.001"/></g><g clip-path="url(#B)" class="I"><path d="M451.688 156.852L326.696 84.65c-.927-.536-2.431-.536-3.359 0L143.118 188.7c-.928.536-.928 1.404 0 1.939l124.992 72.202c.927.536 2.431.536 3.358 0l180.22-104.05c.928-.535.928-1.403 0-1.939M214.321 56.954c29.322 16.929 29.322 44.376 0 61.305s-76.861 16.929-106.183 0-29.321-44.376 0-61.305 76.862-16.929 106.183 0"/><path d="M294.442 113.738c23.08 13.325 23.08 34.93 0 48.255s-60.5 13.325-83.58-.001-23.079-34.929 0-48.254 60.5-13.325 83.58 0M410.319 76.99c14.487 8.364 14.487 21.925 0 30.29s-37.976 8.364-52.463 0-14.487-21.926 0-30.29 37.976-8.364 52.463 0"/></g><g clip-path="url(#C)"><path d="M329.42 213.636V102.692c0-.714-.501-1.582-1.119-1.939l-2.381-1.374c-.618-.357-1.621-.357-2.239 0l-2.38 1.374a2.48 2.48 0 0 0-1.12 1.939v110.944c0 .714.502 1.003 1.12.646l2.38-1.374c.618-.357 1.621-.357 2.239 0l2.381 1.374c.618.357 1.119.068 1.119-.646" class="F"/><path d="M323.681 99.379l-2.38 1.374a2.48 2.48 0 0 0-1.12 1.939v110.944c0 .714.502 1.003 1.12.646l2.38-1.374a2.48 2.48 0 0 0 1.12-1.939l-.001-110.944c0-.714-.501-1.003-1.119-.646" class="G"/><path d="M430.934 272.279V161.336c0-.715-.501-1.582-1.119-1.939l-2.382-1.375c-.618-.357-1.62-.357-2.239 0l-2.38 1.375c-.618.357-1.119 1.224-1.119 1.939v110.943c0 .714.501 1.003 1.119.646l2.381-1.374c.618-.357 1.62-.357 2.238 0l2.382 1.374c.618.357 1.119.068 1.119-.646" class="F"/><path d="M425.193 158.023l-2.38 1.375c-.618.356-1.119 1.224-1.119 1.938V272.28c0 .714.501 1.003 1.119.646l2.381-1.374c.618-.357 1.119-1.225 1.119-1.939V158.669c0-.713-.501-1.003-1.12-.646" class="G"/><path d="M192.708 292.527V181.583c0-.714-.501-1.582-1.12-1.939l-2.381-1.374c-.618-.357-1.621-.357-2.239 0l-2.38 1.374a2.48 2.48 0 0 0-1.12 1.939v110.944c0 .714.502 1.003 1.12.646l2.381-1.374c.618-.357 1.62-.357 2.239 0l2.38 1.374c.619.357 1.12.068 1.12-.646" class="F"/><path d="M186.968 178.271l-2.38 1.374c-.619.357-1.12 1.225-1.12 1.939v110.944c0 .714.501 1.003 1.12.646l2.38-1.374c.619-.357 1.12-1.225 1.12-1.939V178.917c0-.713-.502-1.003-1.12-.646" class="G"/><use xlink:href="#BD" class="B"/><g clip-path="url(#D)" class="D"><use xlink:href="#BD"/></g><use xlink:href="#BE" class="B"/><g clip-path="url(#E)" class="J"><use xlink:href="#BE"/></g><use xlink:href="#BF" class="B"/><g clip-path="url(#F)" opacity=".4"><use xlink:href="#BF"/></g><g clip-path="url(#G)" class="L"><path d="M325.29 267.765l-26.092-15.107c-.807-.468-2.116-.469-2.924-.003l-77.084 44.443c-.808.466-.809 1.223-.002 1.69l26.092 15.107c.807.468 2.116.469 2.924.003l77.084-44.444c.809-.466.809-1.222.002-1.689"/></g><path d="M220.77 301.466c0 .306.202.611.605.845l24.514 14.15c.807.466 2.116.465 2.923-.001l74.796-43.255c.404-.234.606-.539.605-.844v-2.57c.001-.306-.201-.612-.607-.845l-24.5-14.148c-.808-.465-2.118-.464-2.925.002l-74.806 43.186c-.401.232-.603.536-.605.841v2.639" class="H"/><path d="M299.106 257.434l24.5 14.084c.809.465.81 1.22.002 1.687l-74.796 43.255c-.808.467-2.116.467-2.924.001l-24.513-14.15c-.807-.466-.807-1.222 0-1.689l74.805-43.185c.808-.466 2.117-.467 2.926-.003" class="F"/><path d="M297.737 257.086v-2.628c.495.011.991.124 1.374.337l24.491 14.149c.406.236.609.54.609.844v2.577c0-.303-.203-.608-.609-.844l-24.491-14.092c-.383-.214-.879-.332-1.374-.343" class="H"/><path d="M316.294 272.736c0 .017.014.029.02.033l1.029.608 2.055-1.186-1.055-.651-2.043 1.179zm-3.358 1.94c0 .017.011.029.017.033l1.03.607 2.054-1.185-1.055-.651-2.042 1.179zm-2.226-5.163c0 .015.012.028.018.031l2.425 1.4 2.054-1.185-2.442-1.448-2.049 1.183zm-1.135 7.103c0 .017.012.029.018.033l1.03.607 2.054-1.186-1.055-.65-2.043 1.179zm-2.225-5.163c0 .015.011.028.017.031l2.426 1.4 2.054-1.185-2.443-1.448-2.048 1.184zm-1.134 7.103c0 .017.011.029.016.032l1.031.608 2.053-1.185-1.054-.651-2.043 1.179zm-2.226-5.163c0 .015.011.027.017.03l2.426 1.401 2.053-1.185-2.442-1.448-2.049 1.184zm-.438-4.133c0 .016.012.027.017.03l2.427 1.403 2.053-1.186-2.443-1.449-2.048 1.184zm-.436-4.133c0 .016.011.028.017.032l6.224 3.594 2.052-1.186-6.237-3.643-2.052 1.185zm-1.944 15.214c0 .017.012.029.018.032l2.425 1.402 2.054-1.186-2.442-1.449-2.051 1.184zm-.542-5.008c0 .015.011.028.017.031l2.425 1.4 2.054-1.185-2.442-1.448-2.048 1.184zm-.439-4.134c0 .016.012.028.018.031l2.427 1.402 2.053-1.186-2.443-1.448-2.049 1.184zm-.435-4.132c0 .017.012.028.017.032l2.425 1.401 2.053-1.186-2.441-1.449-2.05 1.184zm-1.944 15.215c0 .016.011.028.017.031l2.426 1.402 2.054-1.187-2.443-1.448-2.051 1.184zm-.981-9.143c0 .016.012.028.018.031l2.427 1.402 2.052-1.186-2.442-1.448-2.049 1.184zm-.267 4.542c0 .016.01.028.016.032l2.426 1.4 2.054-1.186-2.443-1.447-2.05 1.183zm-.168-8.674c0 .017.011.028.017.032l2.425 1.401 2.053-1.186-2.442-1.449-2.05 1.184zm-.438-4.132c0 .016.011.028.017.032l2.425 1.4 2.054-1.186-2.442-1.448-2.051 1.184zm-.438-4.133c0 .016.011.028.017.032l6.224 3.593 2.054-1.186-6.239-3.642-2.053 1.185zm-1.068 23.479c0 .017.011.029.017.032l2.426 1.401 2.053-1.186-2.442-1.448-2.05 1.184zm-1.249-4.6c0 .016.011.028.017.032l2.426 1.4 2.053-1.186-2.442-1.447-2.05 1.183zm-.168-8.674a.04.04 0 0 0 .018.032l2.425 1.401 2.052-1.186-2.44-1.448-2.051 1.183zm-.27 4.541c0 .017.011.029.017.033l2.425 1.4 2.055-1.186-2.443-1.449-2.05 1.184zm-.167-8.674c0 .017.011.029.016.033l2.426 1.4 2.055-1.186-2.444-1.448-2.049 1.184zm-.439-4.132a.04.04 0 0 0 .018.032l2.425 1.399 2.054-1.185-2.442-1.448-2.051 1.184zm-1.81 23.908c0 .017.011.029.017.032l2.425 1.402 2.053-1.186-2.441-1.449-2.05 1.184zm-.506-5.029c0 .015.011.028.016.031l2.426 1.402 2.055-1.186-2.443-1.448-2.05 1.183zm-.439-4.133c0 .016.012.029.018.033l2.426 1.399 2.053-1.185-2.442-1.449-2.051 1.184zm-.167-8.673c0 .016.012.028.017.032l2.426 1.4 2.054-1.186-2.441-1.449-2.052 1.184zm-2.248 19.775c0 .017.011.029.017.032l2.426 1.402 2.051-1.186-2.44-1.449-2.051 1.184zm-.945-9.162c0 .016.012.029.018.033l2.425 1.399 2.054-1.186-2.44-1.448-2.052 1.184zm-.604-12.806c0 .016.01.028.016.031l2.426 1.401 5.414-3.126-2.442-1.448-5.412 3.124zm-1.257 18.267c0 .016.011.028.016.032l2.426 1.399 3.647-2.105-2.444-1.447-3.639 2.102zm-.554 5.641c0 .017.011.029.017.032l2.425 1.401 2.052-1.186-2.44-1.448-2.051 1.184zm-1.82-17.427c0 .016.011.028.016.032l2.428 1.4 2.053-1.186-2.443-1.448-2.05 1.184zm-.439-4.133a.04.04 0 0 0 .02.033l2.425 1.399 2.052-1.185-2.442-1.448-2.049 1.184zm-.548 17.859c0 .016.012.028.018.031l2.425 1.4 2.054-1.186-2.442-1.448-2.049 1.185zm-.553 5.641c0 .017.011.029.016.032l2.426 1.401 2.055-1.186-2.444-1.448-2.049 1.184zm-2.005-8.549c0 .016.01.028.016.031l2.426 1.401 2.053-1.185-2.444-1.449-2.047 1.183zm-.251-13.011c0 .016.01.029.016.032l2.426 1.401 2.052-1.186-2.442-1.448-2.049 1.184zm-.551 17.858c0 .016.012.028.018.031l2.424 1.401 2.055-1.186-2.442-1.447-2.049 1.184zm-2.016 6.487c0 .016.011.028.017.031l2.426 1.402 2.053-1.186-2.442-1.449-2.051 1.184zm-.097-14.037c0 .015.011.026.017.03l2.427 1.402 1.876-1.084c.131-.076.352-.121.592-.121.251 0 .477.046.621.129l3.184 1.84 2.407-1.391-6.237-3.642-4.881 2.819zm-.446 4.642c0 .017.012.029.017.032l2.426 1.402 2.052-1.187-2.44-1.447-2.051 1.183zm-.253-13.01c0 .016.011.027.017.03l2.428 1.403 2.052-1.186-2.443-1.448-2.048 1.184zm-.548 17.859c0 .016.011.028.017.031l2.427 1.401 2.053-1.186-2.443-1.449-2.049 1.185zm-2.016 6.485c0 .017.011.029.017.032l2.425 1.402 2.054-1.186-2.442-1.449-2.05 1.184zm-.098-14.036c0 .015.012.028.018.031l2.427 1.401 2.052-1.186-2.442-1.448-2.049 1.184zm-.445 4.642c0 .017.012.029.018.032l2.425 1.401 2.054-1.186-2.442-1.448-2.051 1.184zm-.801 4.849c0 .016.011.028.017.031l2.428 1.401 2.051-1.187-2.442-1.448-2.049 1.184zm-.783-12.706c0 .017.014.028.02.032l2.424 1.402 6.476-3.739-2.443-1.448-6.471 3.736zm-.612-4.03c0 .017.01.029.016.031l2.426 1.402 3.291-1.901-2.442-1.448-3.288 1.898zm-.621 23.222c0 .016.011.028.016.031l2.426 1.401 2.055-1.186-2.444-1.448-2.049 1.184zm-.098-14.037c0 .015.012.028.018.031l2.427 1.401 2.052-1.186-2.442-1.448-2.049 1.184zm-.445 4.643c0 .016.011.028.017.031l2.425 1.401 2.055-1.186-2.443-1.448-2.05 1.184zm-.801 4.847c0 .018.015.031.018.033l2.424 1.399 2.054-1.185-2.442-1.449-2.049 1.184zm-.783-12.703c0 .015.011.027.017.03l2.427 1.402 2.053-1.187-2.443-1.448-2.048 1.184zm-1.144-3.725c0 .016.011.028.017.032l2.426 1.4 2.584-1.492-2.442-1.449-2.582 1.491zm-.09 22.915c0 .016.012.028.018.031l2.425 1.401 2.054-1.186-2.443-1.448-2.05 1.184zm-.096-14.037c0 .015.01.028.016.031l2.428 1.401 2.052-1.186-2.443-1.448-2.049 1.184zm-.446 4.643c0 .016.011.028.017.031l2.426 1.401 2.051-1.186-2.44-1.447-2.051 1.183zm-.801 4.847c0 .016.01.028.016.031l2.428 1.402 2.052-1.186-2.443-1.449-2.048 1.184zm-.783-12.705c0 .017.013.03.019.034l2.426 1.399 2.051-1.186-2.44-1.447-2.051 1.183zm-1.331 5.154c0 .017.013.029.019.033l2.426 1.4 2.052-1.186-2.443-1.448-2.048 1.184zm-.344-8.572c0 .017.012.03.018.034l2.426 1.399 2.584-1.492-2.442-1.448-2.581 1.49zm-.102 13.215c0 .017.012.029.018.032l2.425 1.401 2.054-1.186-2.442-1.448-2.051 1.184zm-.801 4.847c0 .017.013.03.019.034l2.426 1.399 2.051-1.186-2.442-1.448-2.049 1.184zm-.118 5.392a.04.04 0 0 0 .017.031l2.425 1.401 2.055-1.185-2.442-1.449-2.051 1.184zm-.663-18.095a.04.04 0 0 0 .018.032l2.425 1.4 2.052-1.186-2.442-1.448-2.049 1.184zm-1.332 5.154c0 .016.012.027.017.031l2.427 1.401 2.052-1.186-2.442-1.449-2.048 1.185zm-.445 4.643c0 .016.01.028.016.031l2.426 1.401 2.054-1.186-2.443-1.448-2.05 1.185zm-.429-12.909c0 .017.012.028.017.032l2.425 1.401 2.584-1.492-2.443-1.449-2.579 1.49zm-.371 17.756c0 .016.012.029.016.033l2.426 1.399 2.053-1.186-2.442-1.448-2.049 1.184zm-.12 5.391c0 .017.011.029.017.033l2.425 1.399 2.055-1.185-2.443-1.449-2.05 1.184zm-.662-18.095c0 .016.01.028.016.031l2.426 1.401 2.052-1.186-2.441-1.447-2.051 1.183zm-1.333 5.154c0 .016.011.027.017.031l2.427 1.401 2.053-1.186-2.443-1.448-2.049 1.184zm-.446 4.643c0 .016.011.028.017.031l2.426 1.401 2.053-1.186-2.442-1.448-2.05 1.184zm-.802 4.848c0 .016.012.027.018.03l2.427 1.401 2.053-1.186-2.444-1.448-2.048 1.184zm-.118 5.389c0 .017.012.03.018.034l2.425 1.399 2.054-1.186-2.442-1.448-2.051 1.184zm-.664-18.095c0 .016.013.028.019.032l2.426 1.401 2.051-1.186-2.442-1.448-2.048 1.184zm-1.331 5.154c0 .017.014.029.02.033l2.425 1.4 2.052-1.186-2.442-1.448-2.049 1.184zm-.445 4.644c0 .016.012.028.016.031l2.426 1.401 2.055-1.186-2.443-1.448-2.05 1.184zm-.802 4.847c0 .016.013.029.019.032l2.425 1.4 2.053-1.185-2.442-1.449-2.049 1.185zm-.118 5.391c0 .016.012.028.018.031l2.426 1.401 2.053-1.186-2.442-1.448-2.051 1.184zm-.662-18.095c0 .017.011.028.017.032l2.425 1.4 2.053-1.186-2.441-1.448-2.05 1.184zm-1.331 5.153c0 .017.011.029.017.032l2.426 1.401 2.052-1.186-2.443-1.448-2.048 1.184zm-.447 4.643c0 .017.011.029.017.032l2.425 1.402 2.055-1.187-2.443-1.448-2.051 1.184zm-.8 4.848c0 .017.011.028.017.032l2.426 1.4 2.052-1.185-2.441-1.448-2.05 1.184zm-.782-12.704c0 .017.011.028.017.032l2.425 1.4 2.052-1.186-2.44-1.447-2.051 1.183zm-1.33 19.245c0 .016.012.028.018.032l2.425 1.401 2.584-1.493-2.443-1.448-2.58 1.491zm-.003-14.092c0 .016.013.028.019.032l2.425 1.401 2.053-1.186-2.443-1.448-2.049 1.184zm-.445 4.644c0 .016.01.028.017.031l2.425 1.401 2.054-1.186-2.443-1.448-2.05 1.184zm-.8 4.847c0 .017.011.029.017.032l2.425 1.4 2.052-1.185-2.44-1.448-2.05 1.183zm-.783-12.704c0 .017.012.028.017.032l2.426 1.4 2.052-1.186-2.443-1.448-2.048 1.184zm-1.33 5.154c0 .016.011.028.017.032l2.425 1.4 2.052-1.186-2.442-1.448-2.049 1.184zm-.448 4.643a.04.04 0 0 0 .017.031l2.426 1.401 2.054-1.186-2.443-1.448-2.05 1.184zm-.799 4.847c0 .017.011.029.017.032l2.425 1.401 2.052-1.186-2.44-1.449-2.051 1.184zm-.783-12.704c0 .017.012.028.017.032l2.426 1.4 2.052-1.186-2.441-1.447-2.05 1.183zm-1.331 5.154c0 .016.011.028.017.032l2.426 1.4 2.052-1.186-2.441-1.448-2.05 1.184zm-.698-8.367c0 .015.011.027.017.03l2.425 1.401 18.679-10.783-2.445-1.448-18.673 10.781zm-.987 13.725c0 .016.012.028.017.032l2.426 1.4 3.292-1.901-2.443-1.448-3.288 1.899zm-.346-8.573c0 .017.013.03.019.033l2.425 1.4 2.053-1.186-2.441-1.447-2.051 1.183zm-2.559-2.906a.04.04 0 0 0 .017.031l2.426 1.4 2.585-1.491-2.442-1.448-2.58 1.49zm-.799 4.847c0 .016.011.028.017.031l2.425 1.401 2.054-1.185-2.442-1.449-2.051 1.184zm-.094 4.439c0 .016.012.029.017.032l2.426 1.4 4.175-2.411-2.44-1.448-4.174 2.409zm-2.998-7.04c0 .016.011.028.017.031l2.427 1.401 2.584-1.492-2.443-1.448-2.579 1.49zm-.8 4.847c0 .016.012.028.017.032l2.426 1.4 2.585-1.492-2.443-1.448-2.581 1.491zm-3.798-2.192c0 .016.011.028.017.031l2.426 1.401 3.291-1.901-2.44-1.447-3.288 1.898z" class="B"/><g clip-path="url(#H)" class="L"><path d="M385.581 264.832l22.953 13.252-114.765 66.259-22.953-13.251z"/></g><path d="M320.594 286.404l-16.387 9.475c-1.688.975-2.533 2.253-2.534 3.531l-.007 2.279 15.42 8.752c.901.52 1.631 1.785 1.631 2.825v20.203l28.621-16.538.001-20.203c0-1.04-.73-2.305-1.631-2.825l-12.881-7.499c-3.378-1.951-8.855-1.95-12.233 0" class="I"/><path d="M340.467 293.15v-2.27l5.245 3.023c.896.518 1.63 1.781 1.63 2.826v20.201l-5.453 3.145-.349-4.209 3.824-2.214v-15.784c0-1.045-.725-2.307-1.629-2.825z" fill="#e0e0e0"/><path d="M345.364 297.865c0-1.041-.729-2.305-1.631-2.825l-10.903-6.358c-3.379-1.95-8.857-1.951-12.236-.001l-16.394 9.474c-3.379 1.95-3.379 5.111-.001 7.062l10.912 6.362c.9.52 1.631 1.785 1.631 2.826v15.785l28.622-16.538z" class="M"/><g fill="#ebebeb"><path d="M311.789 309.659v.002l3.322 1.919c.902.52 1.631 1.785 1.631 2.825v15.786l28.623-16.539v-15.786c0-1.041-.73-2.306-1.632-2.826l-3.264-1.885zm-10.12-7.971v-2.279c0-1.281.848-2.552 2.534-3.532l16.389-9.469c1.62-.942 3.72-1.413 5.839-1.45v2.269c-2.119.028-4.219.518-5.839 1.451l-16.389 9.478c-1.686.97-2.534 2.251-2.534 3.532"/></g><path d="M391.32 276.07c-1.057-.61-2.826-.577-3.952.073l-110.689 63.905c-1.126.65-2.038 2.231-2.038 3.531v96.884c0 1.3.857 2.849 1.913 3.459s2.826.577 3.952-.073l110.686-63.904c1.126-.651 2.039-2.232 2.039-3.532l.002-96.884c0-1.3-.856-2.849-1.913-3.459" class="G"/><path d="M387.368 276.146L276.68 340.05c-1.126.651-2.04 2.232-2.04 3.532v96.884c0 1.301.914 1.827 2.04 1.178l110.686-63.905c1.127-.651 2.039-2.232 2.039-3.532l.002-96.884c0-1.3-.913-1.827-2.039-1.177" class="F"/><path d="M387.668 275.741c1.13-.5 2.693-.48 3.654.075 1.055.612 1.912 2.157 1.912 3.466v10.896l-3.824-2.213v-10.896c0-1.187-.753-1.724-1.742-1.328" fill="#e0e0e0"/><path d="M389.407 287.968v-10.896c0-1.3-.913-1.827-2.039-1.177L276.679 339.8c-1.126.649-2.039 2.231-2.039 3.531v10.897z" class="C"/><use xlink:href="#BG" class="B"/><g clip-path="url(#I)" class="J C"><use xlink:href="#BG"/></g><path d="M332.025 316.93c1.057-.61 1.913-2.093 1.913-3.313s-.856-1.715-1.913-1.105-1.913 2.094-1.913 3.314.856 1.714 1.913 1.104" class="G"/><path d="M388.808 376.224c.367-.64.593-1.365.603-2.015v-86.243l3.824 2.213v86.233c0 .65-.237 1.375-.604 2.016z" class="H"/><path d="M292.752 460.468c.007.064.013.122.032.179-.007.013 0 .026.007.039.006.064.025.121.044.173.026.089.064.172.116.249.013.039.038.07.064.103.019.026.032.051.057.07.038.051.077.09.128.128.065.052.122.083.18.109.352.167.807.122 1.312-.166l129.175-74.546c1.076-.621 1.953-2.139 1.953-3.382v-93.492l-.001-.443a1.32 1.32 0 0 0-.703-1.173l-.083-.056-.102-.058c-.052-.025-.11-.044-.167-.057a1.12 1.12 0 0 0-.25-.032c-.199-.006-.423.058-.647.186l-.052.029-1.865 1.077-127.258 73.471c-1.075.621-1.953 2.133-1.953 3.382v93.966c0 .084.006.167.013.244" class="G"/><g class="B"><path d="M293.38 461.519c.353.167.807.122 1.312-.167l129.175-74.545c1.076-.621 1.953-2.14 1.953-3.382v-6.379l2.493 1.46v6.334c0 1.243-.871 2.755-1.948 3.376l-129.18 74.546c-.558.326-1.057.333-1.416.115l-2.389-1.358"/><path d="M292.744 460.238c.007 1.232.876 1.731 1.949 1.111l129.175-74.545c1.077-.622 1.951-2.135 1.951-3.379l-.002-6.382-133.073 76.791z"/></g><g clip-path="url(#J)" class="J C"><path d="M294.694 461.35l129.172-74.545c.533-.313 1.024-.841 1.374-1.448l2.479 1.435c-.349.602-.83 1.125-1.357 1.425l-129.177 74.546c-.557.325-1.055.33-1.417.115l-2.382-1.356c.344.165.805.117 1.308-.172"/></g><g clip-path="url(#K)" class="L"><path d="M428.315 378.498l-.002 6.344c0 .632-.231 1.331-.594 1.951l-2.485-1.43c.362-.614.583-1.307.583-1.939v-6.381z"/></g><g class="G"><path d="M421.419 385.457c.608-.352 1.103-1.397 1.103-2.334s-.495-1.413-1.103-1.061-1.103 1.396-1.103 2.334.494 1.413 1.103 1.061m-3.97 2.295c.609-.352 1.103-1.396 1.103-2.334s-.494-1.412-1.103-1.061-1.103 1.397-1.103 2.334.495 1.413 1.103 1.061m-3.968 2.296c.608-.352 1.103-1.396 1.103-2.334s-.495-1.412-1.103-1.061-1.103 1.397-1.103 2.334.494 1.413 1.103 1.061"/></g><g clip-path="url(#L)" opacity=".9" class="H"><path d="M425.118 288.308l.102.057 2.057 1.19c.557.316.93.88 1.019 1.513.012.095.019.19.019.285v87.152l-2.494-1.462v-87.551a1.28 1.28 0 0 0-.607-1.108c-.02-.019-.045-.032-.064-.044z"/></g><path d="M332.311 420.562l27.234-15.694c.383-.221.694-.736.694-1.151s-.311-.572-.694-.351l-27.234 15.694c-.383.221-.693.736-.693 1.151s.31.572.693.351" class="B"/><g class="I"><use xlink:href="#BH"/><path d="M342.717 384.512l10.323-5.937c.383-.221.694-.737.694-1.151s-.311-.572-.694-.351l-10.323 5.937c-.383.221-.693.736-.693 1.151s.31.572.693.351"/></g><g class="B"><path d="M362.231 403.316l54.524-31.401c.383-.221.694-.736.694-1.151s-.311-.572-.694-.351l-54.523 31.401c-.384.221-.693.736-.693 1.151s.309.572.692.351m-19.29-54.927l16.604-9.606c.382-.221.693-.737.693-1.152s-.311-.572-.693-.35l-16.604 9.606c-.383.221-.693.736-.693 1.151s.31.572.693.351m19.29-11.158l54.524-31.44c.383-.222.694-.737.694-1.152s-.311-.572-.694-.351l-54.523 31.441c-.384.221-.693.736-.693 1.151s.309.572.692.351"/><use xlink:href="#BI"/></g><g clip-path="url(#M)" class="D C"><use xlink:href="#BI"/></g><use xlink:href="#BJ" class="B"/><g clip-path="url(#N)" class="D C"><use xlink:href="#BJ"/></g><use xlink:href="#BK" class="B"/><g clip-path="url(#O)" class="D C"><use xlink:href="#BK"/></g><use xlink:href="#BL" class="B"/><g clip-path="url(#P)" class="D C"><use xlink:href="#BL"/></g><use xlink:href="#BM" class="B"/><g clip-path="url(#Q)" class="D C"><use xlink:href="#BM"/></g><g class="C"><path d="M361.438 361.672l55.318-31.85c.383-.221.694-.736.694-1.151s-.311-.572-.694-.351l-55.318 31.85c-.383.221-.693.736-.693 1.151s.31.572.693.351m47.091-21.067l8.227-4.765c.382-.221.693-.737.693-1.152s-.311-.571-.693-.351l-8.227 4.766c-.383.221-.693.736-.693 1.151s.31.572.693.351m-58.006 33.401l55.319-31.85c.383-.221.694-.736.694-1.151s-.311-.572-.694-.351l-55.319 31.85c-.383.221-.693.736-.693 1.151s.31.572.693.351"/></g><use xlink:href="#BN" class="B"/><g clip-path="url(#R)" class="D C"><use xlink:href="#BN"/></g><use xlink:href="#BO" class="B"/><g clip-path="url(#S)" class="D C"><use xlink:href="#BO"/></g><use xlink:href="#BP" class="I"/><path d="M332.311 372.37l6.418-3.701c.383-.221.693-.736.693-1.152s-.31-.571-.693-.35l-6.418 3.701c-.383.221-.693.736-.693 1.151s.31.572.693.351" class="B"/><g clip-path="url(#T)" class="D C"><path d="M332.311 372.37l6.418-3.701c.383-.221.693-.736.693-1.152s-.31-.571-.693-.35l-6.418 3.701c-.383.221-.693.736-.693 1.151s.31.572.693.351"/></g><path d="M342.717 360.357l74.039-42.696a1.49 1.49 0 0 0 .693-1.152c0-.415-.31-.571-.693-.351l-74.039 42.697c-.383.221-.693.736-.693 1.151s.31.572.693.351" class="I"/><path d="M332.311 366.364l6.418-3.701a1.49 1.49 0 0 0 .693-1.152c0-.415-.31-.571-.693-.351l-6.418 3.702c-.383.221-.693.736-.693 1.151s.31.572.693.351" class="B"/><g clip-path="url(#U)" class="D C"><path d="M332.311 366.364l6.418-3.701a1.49 1.49 0 0 0 .693-1.152c0-.415-.31-.571-.693-.351l-6.418 3.702c-.383.221-.693.736-.693 1.151s.31.572.693.351"/></g><path d="M342.717 354.352l74.039-42.697c.383-.221.693-.736.693-1.151s-.31-.572-.693-.351l-74.039 42.697c-.383.221-.693.736-.693 1.151s.31.572.693.351" class="I"/><path d="M332.311 360.357l6.418-3.701c.383-.221.693-.736.693-1.152s-.31-.571-.693-.35l-6.418 3.701c-.383.221-.693.736-.693 1.151s.31.572.693.351" class="B"/><g clip-path="url(#V)" class="D C"><path d="M332.311 360.357l6.418-3.701c.383-.221.693-.736.693-1.152s-.31-.571-.693-.35l-6.418 3.701c-.383.221-.693.736-.693 1.151s.31.572.693.351"/></g><g clip-path="url(#W)" class="D C"><g clip-path="url(#X)"><path d="M322.306 426.586l3.772-2.178a1.52 1.52 0 0 0 .685-1.187v-1.386c0-.438-.307-.615-.685-.396l-3.772 2.177a1.52 1.52 0 0 0-.685 1.187l-.001 1.387c0 .437.307.614.686.396"/></g><g clip-path="url(#Y)"><use xlink:href="#BQ"/></g><g clip-path="url(#Z)"><use xlink:href="#BR"/></g><g clip-path="url(#a)"><use xlink:href="#BS"/></g><g clip-path="url(#b)"><path d="M322.306 402.327l3.772-2.178a1.52 1.52 0 0 0 .685-1.187v-1.386c0-.437-.307-.615-.685-.396l-3.772 2.178a1.52 1.52 0 0 0-.685 1.187l-.001 1.386c0 .438.307.615.686.396"/></g><g clip-path="url(#c)"><path d="M322.306 396.262l3.772-2.178a1.52 1.52 0 0 0 .685-1.187v-1.386c0-.437-.307-.615-.685-.396l-3.772 2.177a1.52 1.52 0 0 0-.685 1.187l-.001 1.387c0 .437.307.614.686.396"/></g><g clip-path="url(#d)"><path d="M322.306 390.197l3.772-2.178a1.52 1.52 0 0 0 .685-1.187v-1.386c0-.437-.307-.615-.685-.396l-3.772 2.177a1.52 1.52 0 0 0-.685 1.187l-.001 1.387c0 .437.307.614.686.396"/></g><g clip-path="url(#e)"><path d="M322.306 384.132l3.772-2.178a1.52 1.52 0 0 0 .685-1.187v-1.386c0-.437-.307-.614-.685-.396l-3.772 2.178a1.52 1.52 0 0 0-.685 1.187l-.001 1.386c0 .438.307.615.686.396"/></g><g clip-path="url(#f)"><path d="M322.306 378.068l3.772-2.178a1.52 1.52 0 0 0 .685-1.187v-1.386c0-.437-.307-.615-.685-.396l-3.772 2.177a1.52 1.52 0 0 0-.685 1.187l-.001 1.387c0 .437.307.614.686.396"/></g><g clip-path="url(#g)"><path d="M322.306 372.003l3.772-2.178a1.52 1.52 0 0 0 .685-1.187v-1.386c0-.437-.307-.615-.685-.396l-3.772 2.178c-.378.218-.685.749-.685 1.186l-.001 1.387c0 .438.307.614.686.396"/></g><g clip-path="url(#h)"><path d="M322.306 365.938l3.772-2.178a1.52 1.52 0 0 0 .685-1.187v-1.386c0-.437-.307-.614-.685-.396l-3.772 2.178a1.52 1.52 0 0 0-.685 1.187l-.001 1.386c0 .438.307.615.686.396"/></g><g clip-path="url(#i)"><path d="M322.306 359.874l3.772-2.178a1.52 1.52 0 0 0 .685-1.187v-1.386c0-.437-.307-.615-.685-.396l-3.772 2.177a1.52 1.52 0 0 0-.685 1.187l-.001 1.387c0 .437.307.614.686.396"/></g></g><path d="M297.28 446.286l20.399-11.777c.757-.437 1.371-1.5 1.371-2.374V408.58c0-.874-.614-1.228-1.371-.791l-20.399 11.778c-.757.437-1.37 1.499-1.37 2.373v23.555c0 .874.613 1.228 1.37.791" class="F"/><use xlink:href="#BT" class="B"/><g clip-path="url(#j)" class="D C"><use xlink:href="#BT"/></g><path d="M299.174 442.227l1.878-1.086c.383-.221.693-.736.693-1.151s-.31-.572-.693-.351l-1.878 1.086c-.383.221-.693.736-.693 1.151s.31.572.693.351" class="B"/><g clip-path="url(#k)" class="D C"><path d="M299.174 442.227l1.878-1.086c.383-.221.693-.736.693-1.151s-.31-.572-.693-.351l-1.878 1.086c-.383.221-.693.736-.693 1.151s.31.572.693.351"/></g><use xlink:href="#BU" class="B"/><g clip-path="url(#l)" class="D C"><use xlink:href="#BU"/></g><path d="M301.814 433.005l1.878-1.086c.383-.221.693-.736.693-1.151s-.31-.572-.693-.351l-1.878 1.086c-.383.221-.693.736-.693 1.151s.31.572.693.351" class="B"/><g clip-path="url(#m)" class="D C"><path d="M301.814 433.005l1.878-1.086c.383-.221.693-.736.693-1.151s-.31-.572-.693-.351l-1.878 1.086c-.383.221-.693.736-.693 1.151s.31.572.693.351"/></g><path d="M299.174 430.656l1.878-1.086a1.49 1.49 0 0 0 .693-1.151c0-.415-.31-.572-.693-.351l-1.878 1.086c-.383.221-.693.736-.693 1.151s.31.572.693.351" class="B"/><g clip-path="url(#n)" class="D C"><path d="M299.174 430.656l1.878-1.086a1.49 1.49 0 0 0 .693-1.151c0-.415-.31-.572-.693-.351l-1.878 1.086c-.383.221-.693.736-.693 1.151s.31.572.693.351"/></g><path d="M301.814 425.279l1.878-1.086c.383-.221.693-.736.693-1.151s-.31-.572-.693-.351l-1.878 1.086c-.383.221-.693.736-.693 1.151s.31.572.693.351" class="B"/><g clip-path="url(#o)" class="D C"><path d="M301.814 425.279l1.878-1.086c.383-.221.693-.736.693-1.151s-.31-.572-.693-.351l-1.878 1.086c-.383.221-.693.736-.693 1.151s.31.572.693.351"/></g><use xlink:href="#BV" class="B"/><g clip-path="url(#p)" class="E C"><use xlink:href="#BV"/></g><path d="M304.316 419.966l11.469-6.622c.383-.221.693-.736.693-1.151s-.31-.572-.693-.351l-11.469 6.622c-.383.221-.693.736-.693 1.151s.31.572.693.351" class="B"/><g clip-path="url(#q)" class="E C"><path d="M304.316 419.966l11.469-6.622c.383-.221.693-.736.693-1.151s-.31-.572-.693-.351l-11.469 6.622c-.383.221-.693.736-.693 1.151s.31.572.693.351"/></g><use xlink:href="#BW" class="B"/><g clip-path="url(#r)" class="E C"><use xlink:href="#BW"/></g><path d="M306.956 430.025l8.829-5.107a1.49 1.49 0 0 0 .693-1.151c0-.415-.31-.572-.693-.351l-8.829 5.107c-.383.221-.693.736-.694 1.151s.31.572.694.351" class="B"/><g clip-path="url(#s)" class="E C"><path d="M306.956 430.025l8.829-5.107a1.49 1.49 0 0 0 .693-1.151c0-.415-.31-.572-.693-.351l-8.829 5.107c-.383.221-.693.736-.694 1.151s.31.572.694.351"/></g><path d="M304.316 427.682l11.469-6.622c.383-.221.693-.736.693-1.151s-.31-.572-.693-.351l-11.469 6.622c-.383.221-.693.736-.693 1.151s.31.572.693.351" class="B"/><g clip-path="url(#t)" class="E C"><path d="M304.316 427.682l11.469-6.622c.383-.221.693-.736.693-1.151s-.31-.572-.693-.351l-11.469 6.622c-.383.221-.693.736-.693 1.151s.31.572.693.351"/></g><use xlink:href="#BX" class="B"/><g clip-path="url(#u)" class="E C"><use xlink:href="#BX"/></g><path d="M297.28 415.135l20.399-11.777c.757-.437 1.371-1.5 1.371-2.374v-46.545c0-.874-.614-1.228-1.371-.791l-20.399 11.778c-.757.437-1.37 1.5-1.37 2.374v46.544c0 .874.613 1.228 1.37.791" class="F"/><path d="M299.174 411.075l1.878-1.086c.383-.221.693-.736.693-1.151s-.31-.572-.693-.351l-1.878 1.086c-.383.221-.693.736-.693 1.151s.31.572.693.351" class="B"/><g clip-path="url(#v)" class="D C"><path d="M299.174 411.075l1.878-1.086c.383-.221.693-.736.693-1.151s-.31-.572-.693-.351l-1.878 1.086c-.383.221-.693.736-.693 1.151s.31.572.693.351"/></g><path d="M301.814 405.702l1.878-1.086a1.49 1.49 0 0 0 .693-1.151c0-.415-.31-.572-.693-.351l-1.878 1.086c-.383.221-.693.736-.693 1.151s.31.572.693.351" class="B"/><g clip-path="url(#w)" class="D C"><path d="M301.814 405.702l1.878-1.086a1.49 1.49 0 0 0 .693-1.151c0-.415-.31-.572-.693-.351l-1.878 1.086c-.383.221-.693.736-.693 1.151s.31.572.693.351"/></g><path d="M301.814 401.854l1.878-1.086c.383-.221.693-.736.693-1.151s-.31-.572-.693-.351l-1.878 1.086c-.383.221-.693.736-.693 1.151s.31.572.693.351" class="B"/><g clip-path="url(#x)" class="D C"><path d="M301.814 401.854l1.878-1.086c.383-.221.693-.736.693-1.151s-.31-.572-.693-.351l-1.878 1.086c-.383.221-.693.736-.693 1.151s.31.572.693.351"/></g><path d="M299.174 399.504l1.878-1.086a1.49 1.49 0 0 0 .693-1.151c0-.415-.31-.572-.693-.351l-1.878 1.086c-.383.221-.693.736-.693 1.151s.31.572.693.351" class="B"/><g clip-path="url(#y)" class="D C"><path d="M299.174 399.504l1.878-1.086a1.49 1.49 0 0 0 .693-1.151c0-.415-.31-.572-.693-.351l-1.878 1.086c-.383.221-.693.736-.693 1.151s.31.572.693.351"/></g><path d="M304.316 408.105l11.469-6.622c.383-.221.693-.736.693-1.151s-.31-.572-.693-.351l-11.469 6.622c-.383.221-.693.736-.693 1.151s.31.572.693.351" class="B"/><g clip-path="url(#z)" class="E C"><path d="M304.316 408.105l11.469-6.622c.383-.221.693-.736.693-1.151s-.31-.572-.693-.351l-11.469 6.622c-.383.221-.693.736-.693 1.151s.31.572.693.351"/></g><use xlink:href="#BY" class="B"/><g clip-path="url(#AA)" class="E C"><use xlink:href="#BY"/></g><path d="M306.956 398.875l8.829-5.107c.383-.222.693-.737.693-1.152s-.31-.572-.693-.351l-8.829 5.108c-.383.221-.693.736-.694 1.151s.31.572.694.351" class="B"/><g clip-path="url(#AB)" class="E C"><path d="M306.956 398.875l8.829-5.107c.383-.222.693-.737.693-1.152s-.31-.572-.693-.351l-8.829 5.108c-.383.221-.693.736-.694 1.151s.31.572.694.351"/></g><use xlink:href="#BZ" class="B"/><g clip-path="url(#AC)" class="E C"><use xlink:href="#BZ"/></g><use xlink:href="#Ba" class="B"/><g clip-path="url(#AD)" class="D C"><use xlink:href="#Ba"/></g><path d="M301.814 390.257l1.878-1.086a1.49 1.49 0 0 0 .693-1.151c0-.415-.31-.572-.693-.351l-1.878 1.086c-.383.221-.693.736-.693 1.151s.31.572.693.351" class="B"/><g clip-path="url(#AE)" class="D C"><path d="M301.814 390.257l1.878-1.086a1.49 1.49 0 0 0 .693-1.151c0-.415-.31-.572-.693-.351l-1.878 1.086c-.383.221-.693.736-.693 1.151s.31.572.693.351"/></g><use xlink:href="#Bb" class="B"/><g clip-path="url(#AF)" class="E C"><use xlink:href="#Bb"/></g><use xlink:href="#Bc" class="B"/><g clip-path="url(#AG)" class="E C"><use xlink:href="#Bc"/></g><path d="M299.174 380.169l1.878-1.086a1.49 1.49 0 0 0 .693-1.151c0-.415-.31-.572-.693-.351l-1.878 1.086c-.383.221-.693.736-.693 1.151s.31.572.693.351" class="B"/><g clip-path="url(#AH)" class="D C"><path d="M299.174 380.169l1.878-1.086a1.49 1.49 0 0 0 .693-1.151c0-.415-.31-.572-.693-.351l-1.878 1.086c-.383.221-.693.736-.693 1.151s.31.572.693.351"/></g><use xlink:href="#Bd" class="B"/><g clip-path="url(#AI)" class="E C"><use xlink:href="#Bd"/></g><use xlink:href="#Be" class="B"/><g clip-path="url(#AJ)" class="D C"><use xlink:href="#Be"/></g><path d="M301.814 370.921l1.878-1.086a1.49 1.49 0 0 0 .693-1.151c0-.415-.31-.572-.693-.351l-1.878 1.086c-.383.221-.693.736-.693 1.151s.31.572.693.351" class="B"/><g clip-path="url(#AK)" class="D C"><path d="M301.814 370.921l1.878-1.086a1.49 1.49 0 0 0 .693-1.151c0-.415-.31-.572-.693-.351l-1.878 1.086c-.383.221-.693.736-.693 1.151s.31.572.693.351"/></g><path d="M306.956 371.799l8.829-5.107c.383-.222.693-.737.693-1.152s-.31-.572-.693-.35l-8.829 5.107c-.383.221-.693.736-.694 1.151s.31.572.694.351" class="B"/><g clip-path="url(#AL)" class="E C"><path d="M306.956 371.799l8.829-5.107c.383-.222.693-.737.693-1.152s-.31-.572-.693-.35l-8.829 5.107c-.383.221-.693.736-.694 1.151s.31.572.694.351"/></g><path d="M306.956 367.941l8.829-5.107c.383-.222.693-.737.693-1.152s-.31-.572-.693-.35l-8.829 5.107c-.383.221-.693.736-.694 1.151s.31.572.694.351" class="B"/><g clip-path="url(#AM)" class="E C"><path d="M306.956 367.941l8.829-5.107c.383-.222.693-.737.693-1.152s-.31-.572-.693-.35l-8.829 5.107c-.383.221-.693.736-.694 1.151s.31.572.694.351"/></g><path d="M301.814 386.43l1.878-1.086a1.49 1.49 0 0 0 .693-1.151c0-.415-.31-.572-.693-.351l-1.878 1.086c-.383.221-.693.736-.693 1.151s.31.572.693.351" class="B"/><g clip-path="url(#AN)" class="D C"><path d="M301.814 386.43l1.878-1.086a1.49 1.49 0 0 0 .693-1.151c0-.415-.31-.572-.693-.351l-1.878 1.086c-.383.221-.693.736-.693 1.151s.31.572.693.351"/></g><path d="M299.174 384.08l1.878-1.086a1.49 1.49 0 0 0 .693-1.152c0-.414-.31-.572-.693-.35l-1.878 1.086c-.383.221-.693.736-.693 1.151s.31.572.693.351" class="B"/><g clip-path="url(#AO)" class="D C"><path d="M299.174 384.08l1.878-1.086a1.49 1.49 0 0 0 .693-1.152c0-.414-.31-.572-.693-.35l-1.878 1.086c-.383.221-.693.736-.693 1.151s.31.572.693.351"/></g><path d="M306.956 383.45l8.829-5.107a1.49 1.49 0 0 0 .693-1.152c0-.414-.31-.572-.693-.35l-8.829 5.107c-.383.221-.693.736-.694 1.151s.31.572.694.351" class="B"/><g clip-path="url(#AP)" class="E C"><path d="M306.956 383.45l8.829-5.107a1.49 1.49 0 0 0 .693-1.152c0-.414-.31-.572-.693-.35l-8.829 5.107c-.383.221-.693.736-.694 1.151s.31.572.694.351"/></g><path d="M304.316 381.106l11.469-6.622c.383-.221.693-.736.693-1.151s-.31-.572-.693-.351l-11.469 6.622c-.383.221-.693.736-.693 1.151s.31.572.693.351" class="B"/><g clip-path="url(#AQ)" class="E C"><path d="M304.316 381.106l11.469-6.622c.383-.221.693-.736.693-1.151s-.31-.572-.693-.351l-11.469 6.622c-.383.221-.693.736-.693 1.151s.31.572.693.351"/></g><path d="M299.174 368.518l1.878-1.086a1.49 1.49 0 0 0 .693-1.151c0-.415-.31-.572-.693-.351l-1.878 1.086c-.383.221-.693.736-.693 1.151s.31.572.693.351" class="B"/><g clip-path="url(#AR)" class="D C"><path d="M299.174 368.518l1.878-1.086a1.49 1.49 0 0 0 .693-1.151c0-.415-.31-.572-.693-.351l-1.878 1.086c-.383.221-.693.736-.693 1.151s.31.572.693.351"/></g><path d="M304.316 365.544l11.469-6.622c.383-.221.693-.736.693-1.151s-.31-.572-.693-.351l-11.469 6.622c-.383.221-.693.736-.693 1.151s.31.572.693.351" class="B"/><g clip-path="url(#AS)" class="E C"><path d="M304.316 365.544l11.469-6.622c.383-.221.693-.736.693-1.151s-.31-.572-.693-.351l-11.469 6.622c-.383.221-.693.736-.693 1.151s.31.572.693.351"/></g><g clip-path="url(#AT)" class="E G"><path d="M410.784 349.706v-76.378c0-1.015.713-2.244 1.588-2.748l43.879-25.317c.181-.104.364-.156.525-.151.068 0 .136.01.203.026.047.01.094.026.136.047.031.015.057.031.083.046l.094.063c.031.026.062.047.088.078a1.27 1.27 0 0 1 .292.417c.104.234.167.51.167.801v75.993c0 1.01-.714 2.244-1.588 2.749l-43.879 25.29c-.411.234-.781.271-1.067.136-.047-.021-.094-.047-.136-.078-.052-.042-.083-.073-.114-.115-.021-.016-.032-.036-.047-.057-.021-.026-.041-.052-.052-.084a.71.71 0 0 1-.094-.203.52.52 0 0 1-.036-.14c-.006-.011-.011-.021-.006-.031-.015-.047-.02-.094-.025-.146l-.011-.198"/></g><g class="B"><path d="M411.305 350.758c.286.135.656.099 1.067-.136l43.879-25.29c.874-.505 1.588-1.739 1.588-2.749v-5.185l2.529 1.462v5.148c0 1.01-.709 2.239-1.584 2.744l-43.883 25.291c-.453.265-.859.27-1.151.093l-2.445-1.378"/><path d="M410.788 349.717c.006 1.001.713 1.407 1.584.903l43.88-25.29c.875-.506 1.585-1.735 1.585-2.746l-.001-5.188-47.048 27.115z"/></g><g clip-path="url(#AU)" class="J C"><path d="M412.373 350.621l43.877-25.291c.434-.254.833-.683 1.117-1.176l2.519 1.441c-.284.489-.675.914-1.104 1.158l-43.88 25.29c-.454.265-.858.269-1.152.095l-2.439-1.377c.279.134.653.094 1.062-.14"/></g><g clip-path="url(#AV)" class="L"><path d="M460.369 318.853l-.001 5.156c0 .514-.188 1.083-.482 1.586l-2.524-1.436c.294-.499.474-1.063.474-1.577v-5.187z"/></g><g class="G"><path d="M455.53 323.197c.495-.286.896-1.135.896-1.897s-.401-1.148-.896-.862-.896 1.135-.896 1.897.402 1.148.896.862m-3.225 1.866c.494-.286.896-1.135.896-1.897s-.402-1.148-.896-.862-.896 1.134-.896 1.897.401 1.148.896.862m-3.227 1.866c.495-.286.896-1.135.896-1.897s-.401-1.148-.896-.862-.896 1.134-.896 1.897.401 1.148.896.862"/></g><g clip-path="url(#AW)" opacity=".9" class="F"><path d="M457.255 245.258l.198.114.489.276.006.006.265.15c.006.006.016.011.021.011l.417.239.852.473.198.109a.89.89 0 0 1 .271.219c.083.088.156.197.213.322.115.24.182.532.182.839v70.844l-2.528-1.462v-70.807c-.016-.313-.073-.578-.167-.802-.073-.161-.167-.302-.292-.417-.021-.031-.052-.057-.088-.078-.011-.015-.02-.026-.037-.036"/></g><g class="B"><path d="M414.431 335.749c0 .095.027.163.081.203l1.14 1.043c.019.013.036.016.052.01l.029-.012c.034-.02.064-.057.09-.11s.037-.106.037-.159v-.793c0-.101-.007-.174-.024-.218a.34.34 0 0 0-.08-.123l-.601-.552.601-1.247a1.13 1.13 0 0 0 .08-.216.97.97 0 0 0 .024-.245v-.793c0-.054-.013-.092-.037-.117s-.056-.025-.09-.006c-.004.002-.014.01-.029.021s-.033.036-.052.07l-1.14 2.361a.63.63 0 0 0-.081.295zm4.172 1.101c.019.054.047.099.086.133s.095.03.168-.013l.428-.247c.035-.02.064-.057.089-.11a.37.37 0 0 0 .038-.159c0-.024-.003-.049-.011-.074l-1.955-6.077c-.016-.051-.043-.095-.082-.132s-.096-.033-.173.012l-.411.237c-.034.02-.065.056-.089.109a.39.39 0 0 0-.038.16c0 .024.004.049.012.074zm3.025-5.845c0-.095-.027-.162-.081-.202l-1.14-1.044c-.019-.012-.037-.016-.052-.009s-.025.009-.029.011c-.035.02-.064.057-.09.11a.36.36 0 0 0-.037.16v.792c0 .101.008.174.023.219s.043.085.081.123l.601.551-.601 1.248c-.038.082-.066.154-.081.216s-.023.144-.023.244v.793c0 .054.012.093.037.117s.055.026.09.006c.004-.002.013-.009.029-.021a.22.22 0 0 0 .052-.07l1.14-2.36c.054-.102.081-.201.081-.296zm3.17-3.112c.042-.024.079-.069.11-.135s.047-.131.047-.196v-.873c0-.066-.016-.112-.047-.143s-.068-.031-.11-.007l-.538.311c-.042.024-.079.069-.109.134a.47.47 0 0 0-.047.196v.873c0 .065.015.113.047.143s.067.032.109.008zm1.8-1.039c.042-.024.079-.069.11-.135s.046-.131.046-.196v-.873c0-.065-.015-.112-.046-.142s-.068-.032-.11-.008l-.538.311c-.043.024-.079.069-.11.134s-.046.131-.046.197v.872c0 .066.015.113.046.143s.067.032.11.008zm1.799-1.039c.042-.024.079-.069.11-.135s.046-.131.046-.196v-.873c0-.066-.015-.112-.046-.143s-.068-.031-.11-.007l-.538.311c-.043.024-.079.069-.109.134a.47.47 0 0 0-.047.196v.873c0 .065.015.113.047.143s.066.032.109.008z"/><use xlink:href="#Bf"/></g><g class="I"><path d="M423.369 309.294l26.364-15.221a1.21 1.21 0 0 0 .564-.936c0-.337-.252-.465-.564-.285l-26.364 15.221c-.311.18-.563.599-.563.936s.252.465.563.285m0-9.767l12.619-7.291a1.21 1.21 0 0 0 .564-.936c0-.337-.252-.464-.564-.285l-12.619 7.291c-.311.179-.563.598-.563.935s.252.466.563.286"/></g><g class="B"><path d="M443.459 312.347l10.504-6.042c.311-.179.563-.598.563-.936s-.252-.464-.563-.285l-10.504 6.042c-.311.18-.563.599-.563.936s.252.465.563.285m-28.548-37.234l26.364-15.221c.311-.18.564-.599.564-.936s-.253-.465-.564-.285l-26.364 15.221c-.312.179-.563.599-.563.936s.251.465.563.285"/><use xlink:href="#Bg"/><path d="M443.459 273.256l10.504-6.042c.311-.18.563-.599.563-.936s-.252-.465-.563-.285l-10.504 6.042c-.311.179-.563.598-.563.936s.252.465.563.285m0-4.882l10.504-6.042c.311-.18.563-.599.563-.936s-.252-.465-.563-.285l-10.504 6.042c-.311.179-.563.598-.563.936s.252.465.563.285m-8.956 10.067l5.901-3.407a1.21 1.21 0 0 0 .564-.936c0-.337-.252-.465-.564-.285l-5.901 3.407c-.312.179-.563.599-.563.936s.251.465.563.285"/><use xlink:href="#Bh"/></g><g clip-path="url(#AX)" class="D C"><use xlink:href="#Bh"/></g><use xlink:href="#Bi" class="B"/><g clip-path="url(#AY)" class="D C"><use xlink:href="#Bi"/></g><use xlink:href="#Bj" class="B"/><g clip-path="url(#AZ)" class="D C"><use xlink:href="#Bj"/></g><use xlink:href="#Bk" class="B"/><g clip-path="url(#Aa)" class="D C"><path d="M414.911 309.294l5.217-3.008c.31-.18.563-.599.563-.936s-.253-.465-.563-.285l-5.217 3.008c-.312.179-.563.598-.563.936s.251.465.563.285"/></g><g clip-path="url(#Ab)" class="D B"><use xlink:href="#Bl"/></g><g clip-path="url(#Ac)" class="D B"><use xlink:href="#Bm"/></g><g clip-path="url(#Ad)" class="D C"><use xlink:href="#Bl"/></g><g clip-path="url(#Ae)" class="D C"><use xlink:href="#Bm"/></g><use xlink:href="#Bn" class="B"/><g clip-path="url(#Af)" class="D C"><use xlink:href="#Bn"/></g><use xlink:href="#Bo" class="B"/><g clip-path="url(#Ag)" class="D C"><use xlink:href="#Bo"/></g><g class="C"><path d="M429.714 290.987l15.378-8.872c.311-.179.563-.598.563-.936s-.252-.464-.563-.284l-15.378 8.871a1.21 1.21 0 0 0-.563.936c0 .337.251.465.563.285m8.872-10.025l15.377-8.872c.311-.18.564-.599.564-.936s-.253-.464-.564-.285l-15.377 8.872c-.312.179-.563.598-.563.936s.251.465.563.285"/><use xlink:href="#Bp"/></g><path d="M447.276 261.513l6.687-3.874c.311-.179.563-.598.563-.935s-.252-.465-.563-.285l-6.687 3.873c-.312.179-.563.598-.563.936s.251.465.563.285" class="I"/><use xlink:href="#Bq" class="B"/><g clip-path="url(#Ah)" class="D C"><use xlink:href="#Bq"/></g><path d="M440.932 304.044l6.687-3.873c.311-.18.563-.599.563-.936s-.252-.465-.563-.285l-6.687 3.873c-.312.179-.563.598-.563.936s.251.465.563.285" class="B"/><g clip-path="url(#Ai)" class="D C"><path d="M440.932 304.044l6.687-3.873c.311-.18.563-.599.563-.936s-.252-.465-.563-.285l-6.687 3.873c-.312.179-.563.598-.563.936s.251.465.563.285"/></g><g clip-path="url(#Aj)" class="L"><path d="M336.115 248.095l9.425-5.441c2.971-1.715 7.627-1.47 10.4.548l15.545 11.351c2.774 2.018 2.616 5.048-.351 6.768l-4.726 2.738c-2.968 1.72-7.859 1.868-10.926.331l-19.193-10.406c-3.067-1.537-3.145-4.174-.174-5.889"/></g><path d="M371.744 259.485l-10.757-8.409-7.936-6.211c-.771-.36-1.653-.558-2.535-.608-1.341-.075-2.708.186-3.763.795l-8.434 4.869c-.028.022-.045.031-.06.04-2.96 1.722-3.658 5.721-1.704 8.533l.249.345c1.602 2.161 3.987 3.727 6.782 4.298l4.272.857c6.919 1.404 12.595 2.087 13.253 1.639l10.571-6.123c.025 0 .049-.013.062-.025" class="F"/><path d="M365.731 254.782l.604.473-9.485 5.477 8.3 2.569-.84.484-8.3-2.568-5.656 3.265-1.072-.203z" class="B"/><path d="M353.982 245.375c.012.012.037.025.05.037l7.564 5.465 10.198 7.366v1.155c0 .038-.013.062-.05.087-.013.013-.037.025-.063.025-.757.261-5.178-1.068-10.52-3.192l-3.54-1.403c-1.106-.436-2.124-1.044-3.018-1.789a11.25 11.25 0 0 1-4.087-8.683v-.186c.882.05 1.764.248 2.534.609z" class="H"/></g><g clip-path="url(#Ak)"><use xlink:href="#Br" class="B"/><g clip-path="url(#Al)" class="J C"><use xlink:href="#Br"/></g><use xlink:href="#Bs" class="B"/><g clip-path="url(#Am)" opacity=".7" class="C"><use xlink:href="#Bs"/></g><use xlink:href="#Bt" class="B"/><g clip-path="url(#An)" opacity=".3"><use xlink:href="#Bt"/></g><path d="M376.475 148.731c8.629 5.039 22.621 5.039 31.251 0 2.397-1.399 4.103-3.044 5.169-4.793-1.066-1.749-2.772-3.394-5.169-4.793-8.63-5.039-22.622-5.039-31.251 0-2.397 1.399-4.104 3.044-5.17 4.793 1.066 1.749 2.773 3.394 5.17 4.793" class="M"/><use xlink:href="#Bu" class="B"/><g clip-path="url(#Ao)" opacity=".25"><use xlink:href="#Bu"/></g><g class="C"><path d="M398.18 143.026a.56.56 0 0 1 .375.537c-.32 37.417 20.303 59.757 20.511 59.978a.57.57 0 0 1-.021.797.55.55 0 0 1-.788-.018c-.211-.224-21.141-22.871-20.816-60.765a.56.56 0 0 1 .561-.559.58.58 0 0 1 .178.03"/><path d="M404.183 177.831c.039.014.077.031.113.054 6.71 4.223 18.686 7.374 18.805 7.407a.56.56 0 0 1 .399.686c-.077.302-.381.483-.679.405-.498-.128-12.261-3.227-19.116-7.54-.261-.165-.34-.512-.177-.776.14-.228.415-.32.655-.236m2.072 5.13a.25.25 0 0 1 .029.011c.285.117.422.447.305.735-2.349 5.801-6.034 10.226-6.19 10.411-.2.238-.553.269-.786.066a.57.57 0 0 1-.063-.795c.037-.044 3.727-4.478 6.008-10.107.112-.279.42-.418.697-.321"/></g><use xlink:href="#Bv" class="B"/><g clip-path="url(#Ap)" opacity=".1"><use xlink:href="#Bv"/></g><path d="M394.168 139.811a.54.54 0 0 0-.341.461c-1.426 17.856-21.404 45.75-30.235 51.35a.55.55 0 0 0-.169.748c.157.253.49.325.739.17 8.976-5.693 29.285-34.04 30.732-52.181a.54.54 0 0 0-.491-.582.5.5 0 0 0-.235.034" class="C"/></g><g clip-path="url(#Aq)"><path d="M213.491 150.974c-.036.2-3.21 11.793-3.21 11.793s1.045-1.066 7.75.702c3.409.9 7.289 3.06 7.289 3.06l1.914-8.475c1.785-3.263 7.704-1.761 14.188-1.022 1.09.124 2.211.306 3.331.499l.068.008c3.501.192 7.016-1.911 3.376-4.897s-9.644-4.116-15.18-5.116c-6.657-1.203-18.333-3.158-19.526 3.448" class="K"/><path d="M260.039 152.001s.703-1.342.485-3.562c-.127-1.292-3.32-5.673-8.961-8.355s-12.62-2.861-15.887-3.801-6.259-2.817-10.108-3.754c-3.967-.965-7.656-1.434-11.514 1.107-.711 1.096-1.498 3.627-1.27 3.874.614.662 47.255 14.491 47.255 14.491" class="H"/><use xlink:href="#Bw" class="B"/><g clip-path="url(#Ar)" opacity=".4"><use xlink:href="#Bw"/></g><g fill="#fafafa"><path d="M244.851 150.006s-.562 5.445-4.584 6.886c0 0-1.297.595-2.217-.291 0 0 3.734-.542 4.957-6.928 0 0 .192-.422 1.005-.275.275.05.878.159.839.608m-10.232 6.171s-.005.18.945.357c.683.128 1.103-.12 1.103-.12s3.001-1.299 3.562-6.99c0 0-.024-.686-.924-.875s-1.073.557-1.073.557-.618 5.987-3.613 7.071m-3.22-.118s.168.343.875.339c.89-.005 1.095-.349 1.095-.349s2.136-2.19 2.161-6.945c0 0 .089-.807-1.032-.888s-.96.828-.96.828-.387 6.059-2.139 7.015"/></g><path d="M209.35 229.804c4.901-14.73 17.901-65.458 17.901-65.458s-8.459-7.6-17.639-4.138l-21.867 63.167z" class="F"/><path d="M247.139 134.598c-1.001 1.487-4.76 11.804-4.76 11.804s3.925-2.242 10.671-.638c3.431.815 6.637 4.541 6.637 4.541l2.881-9.918c1.704-3.306 7.209-2.212 13.709-1.634 1.092.098 2.216.253 3.341.418l.069.007c3.505.106 6.967-2.083 3.254-4.978s-9.742-3.879-15.3-4.743c-6.685-1.039-16.752-.426-20.502 5.141" class="K"/><path d="M297.561 134.909s.719-1.459.427-3.836c-.171-1.384-3.715-6.004-9.841-8.734s-13.624-2.74-17.155-3.663-6.794-2.858-10.952-3.763c-4.284-.932-8.256-1.337-12.332 1.491-.733 1.196-1.513 3.935-1.261 4.193.677.695 51.114 14.312 51.114 14.312" class="H"/><use xlink:href="#Bx" class="B"/><g clip-path="url(#As)" opacity=".4"><use xlink:href="#Bx"/></g><g fill="#fafafa"><path d="M281.202 133.168s-.46 5.86-4.74 7.514c0 0-1.376.673-2.388-.255 0 0 3.994-.68 5.14-7.568 0 0 .195-.458 1.072-.321.296.046.945.147.916.63m-10.822 6.895s-.001.194 1.023.359c.738.119 1.181-.158 1.181-.158s3.189-1.474 3.641-7.599c0 0-.044-.736-1.016-.915s-1.137.626-1.137.626-.505 6.444-3.692 7.687m-3.46-.042s.189.364.948.341c.955-.029 1.167-.403 1.167-.403s2.236-2.408 2.137-7.514c0 0 .073-.867-1.132-.926s-1.009.915-1.009.915-.255 6.515-2.111 7.587"/></g><g class="G"><path d="M243.842 212.41c3.859-11.87 13.713-45.664 18.216-63.043 0 0-8.091-7.275-18.496-6.64l-25.093 65.063 9.994 6.184zM161.23 49.974c.899 0 1.627.728 1.627 1.627v104.59c0 .899-.728 1.627-1.627 1.627s-1.627-.728-1.627-1.627V51.601c0-.899.728-1.627 1.627-1.627M96.519 88.043c.648 0 1.26.389 1.512 1.03l32.072 81.177c.331.835-.079 1.78-.915 2.109a1.62 1.62 0 0 1-2.109-.915L95.006 90.267c-.33-.835.08-1.781.916-2.109.195-.078.398-.115.597-.115"/><path d="M100.371 97.793a1.62 1.62 0 0 1 1.182.51l59.678 63.151 59.57-62.884c.618-.654 1.648-.681 2.299-.062s.68 1.648.062 2.299L162.41 164.94c-.307.324-.734.508-1.181.508h-.001c-.446 0-.874-.184-1.181-.51l-60.858-64.401c-.618-.653-.588-1.682.065-2.299a1.62 1.62 0 0 1 1.117-.445"/><path d="M225.939 88.043c.199 0 .402.037.598.115.835.328 1.245 1.274.915 2.109l-32.073 81.177a1.62 1.62 0 0 1-2.109.915c-.836-.329-1.246-1.274-.915-2.109l32.072-81.177c.252-.641.864-1.03 1.512-1.03"/></g><use xlink:href="#By" class="B"/><g clip-path="url(#At)" opacity=".4"><use xlink:href="#By"/></g><path d="M169.345 161.566c9.664-8.749 19.766-1.219 35.747 9.152 18.086 11.737 21.632 21.342 21.632 21.342s0-7.197-1.349-10.57-4.273-7.196-17.317-16.191-22.487-13.493-31.258-15.163l-6.919.956" class="B"/><g clip-path="url(#Au)" class="J"><path d="M205.092 170.718c18.086 11.737 21.632 21.342 21.632 21.342s0-7.196-1.349-10.57-4.272-7.196-17.316-16.191-22.488-13.493-31.259-15.163l-6.919.956-.536 10.474c9.664-8.749 19.767-1.219 35.747 9.152"/></g><g class="B"><path d="M99.041 100.782L94.086 89.36a1.14 1.14 0 0 1-.053-.296c-.01-.066-.013-.138-.011-.211.029-.24.315-.558.63-.765.72-.464 1.922-.521 2.682-.126.279.146.459.329.548.524.001.006.001.013.008.019l.04.157 4.599 10.711zm124.688-.481l4.24-11.189a1.09 1.09 0 0 0 .038-.287c.007-.063.007-.133 0-.203-.038-.229-.327-.521-.639-.706-.712-.413-1.868-.413-2.58 0-.261.153-.426.337-.502.528 0 .006 0 .012-.007.019l-.032.152-3.931 10.491zm-64.375-40.603v-9.256c0-.277.183-.555.549-.766.733-.423 1.92-.423 2.653 0 .366.211.549.489.549.766v9.256c-1.251.627-2.501.627-3.751 0"/></g><path d="M122.538 231.278c3.834-4.466 38.725 5.572 47.967 6.831 14.908 2.03 27.045 3.515 32.104 1.924s7.209-4.169 8.76-10.229l2.776-10.79s-24.77-9.508-44.302-11.797-47.305 24.061-47.305 24.061" class="F"/><path d="M116.029 224.73c-3.868-14.735-7.343-31.879 1.609-41.264 6.028-6.32 36.312-22.737 55.85-16.27 19.247 6.372 59.1 35.959 63.099 38.938 4.008 2.987 7.637 5.009 7.255 6.276-5.375 17.843-13.229 19.237-27.796 16.033-17.811-3.919-56.918-19.878-56.918-19.878z" class="G"/><path d="M204.52 319.481l-13.437-15.194-21.704 10.298 15.173 20.993z" class="K"/><path d="M221.19 348.341s5.5-7.945 4.914-8.751-4.484-1.611-4.484-1.611z" fill="#f28f8f"/><path d="M227.122 349.672c0-3.3-2.675-5.975-5.975-5.975s-5.975 2.675-5.975 5.975 2.675 5.975 5.975 5.975 5.975-2.675 5.975-5.975z" fill="none" stroke="#263238" stroke-width="1.207" class="O"/><path d="M205.918 370.318c10.81-2.023 14.024-6.681 15.429-23.747 1.468-17.833-.226-23.487-2.517-25.946-1.547-1.658-10.34-2.153-14.808-1.031-5.591 1.405-18.25 5.567-24.336 14.414-7.16 10.41-9.305 24.691-2.034 30.735 10.233 8.508 23.867 6.398 28.266 5.575" class="K"/><path d="M204.52 319.481c4.652-1.051 11.726-.417 13.827.79-.2-.054-3.529-.915-7.825.288-4.43 1.24-7.168 3.16-7.168 3.16z" fill="#f28f8f"/><g class="H"><path d="M223.349 363.335l-.031-.021c-3.017-2.081-6.698-2.948-10.32-3.511.286-2.894-.626-5.757-1.526-8.523-.623-1.913-2.872-7.924-5.319-4.624-1.768 2.384-3.376 4.554-6.762 3.969-5.581-.964-6.173-8.119-2.545-12.374s6.879-2.518 6.879-2.518.515-7.692-3.542-13.129c0 0-6.055-3.722-14.553-.922-5.363 1.767-13.102 8.529-15.954 13.807-7.85 14.524-7.89 28.44 1.63 32.721.88 6.962 6.272 10.198 12.467 11.771 8.586 2.181 17.508-3.207 25.81.35 1.748.749 3.357 1.81 5.145 2.459 1.005.364 2.196.574 3.091-.011.774-.506 1.105-1.462 1.321-2.361.396-1.653.549-3.501-.326-4.958 1.253.604 2.528 1.214 3.902 1.438s2.882.008 3.945-.89c.988-.835 1.462-2.15 1.583-3.438.338-3.637-1.893-7.152-4.895-9.235"/><path d="M171.193 365.883l-6.524 3.647c1.007 1.802 3.284 2.446 5.086 1.438a3.74 3.74 0 0 0 1.438-5.085"/></g><path d="M206.153 346.655l20.901 3.905" fill="none" stroke="#263238" stroke-width="1.027" class="O"/><path d="M249.86 310.603c-.563.942-1.812 1.125-2.849 1.487-1.921.67-3.42 2.201-5.27 3.048-2.06.943-4.453.974-6.657.449-.76-.18-1.5-.423-2.224-.711-1.378-.547-2.696-1.257-3.974-2.014-5.296-3.135-9.276-10.22-14.484-13.472l-5.539-3.406 12.437-11.089c2.562 2.085 5.007 4 6.135 4.672 3.062 1.822 6.151 1.863 9.591 2.361 2.388.346 4.707 1.052 7.014 1.756.813.248 1.718.573 2.067 1.348.442.982-.332 2.165-1.334 2.56-1.073.422-2.485.313-3.636.498-.896.144-3.296-.394-3.827.513-.278.474.067 1.06.41 1.488 2.157 2.689 4.885 5.571 8.338 6.38 1.071.251 2.187.508 3.037 1.205s1.329 1.984.765 2.927" class="K"/><g class="B"><path d="M175.466 323.008c-13.209 7.208-25.237 2.579-29.571-6.69-3.922-8.388-12.165-40.844-12.165-40.844 3.962-7.43 41.736 47.534 41.736 47.534"/><path d="M173.488 320.4l1.978 2.607c-14.913 7.086-28.267-2.222-40.027-20.516-12.676-19.718-19.328-48.03-19.392-77.91 0 0 2.53-13.427 19.497-20.144 18-7.126 43.11-4.107 50.934 14.55 0 0 .157 18.636 5.825 27.811 3.667 5.938 12.219 19.136 18.581 28.6 5.538 8.239 9.842 26.99-1.729 33.85-3.388 2.008-4.794 2.595-9.407 4.8-10.526-3.476-27.619 2.172-26.26 6.352"/></g><g clip-path="url(#Av)" opacity=".75" class="C"><path d="M173.534 320.334l1.933 2.674c-14.913 7.086-28.267-2.222-40.028-20.516-12.676-19.718-19.328-48.03-19.391-77.91 0 0 2.53-13.427 19.497-20.144 17.999-7.126 43.109-4.107 50.933 14.55 0 0 .158 18.636 5.826 27.811 3.667 5.938 12.218 19.136 18.58 28.6 5.539 8.239 9.842 26.99-1.728 33.85-3.389 2.008-4.794 2.595-9.407 4.8-10.527-3.476-27.574 2.105-26.215 6.285"/></g><g clip-path="url(#Aw)" opacity=".1" class="B"><path d="M215.699 287.347c.764 3.592 1.024 7.373.464 10.861-2.705-6.337-6.517-12.202-11.261-17.199-6.069-6.392-13.564-11.37-19.195-18.151-5.964-7.182-10.25-15.866-15.244-23.711-2.004-3.148-4.739-9.22-8.463-9.463-4.539-.295-8.879 5.238-11.354 9.054-3.948 6.087-7.34 13.691-12.249 19.034-4.289 4.669-10.925 10.651-16.769 7.94-.436-1.551-.847-3.12-1.235-4.706a145.04 145.04 0 0 1-1.092-4.827l-.039-.186a149.56 149.56 0 0 1-.927-4.885l-.044-.261c-.277-1.616-.528-3.237-.752-4.861-.965-6.986-1.476-14.165-1.491-21.404 0 0 2.53-13.427 19.497-20.145 18-7.126 43.109-4.107 50.933 14.551 0 0 .158 18.635 5.825 27.811l2.047 3.267.141.221 2.107 3.309.138.217.057.089 5.314 8.216.856 1.311 5.428 8.239c.006.009.013.019.018.028l1.747 2.616.729 1.087a24.54 24.54 0 0 1 .597.943l.175.297a28.59 28.59 0 0 1 .421.744l.182.337c.151.286.3.579.447.879l.113.228a33.78 33.78 0 0 1 .552 1.208c.007.016.013.032.02.048.01.023.019.048.03.072.159.372.315.752.465 1.139l.107.277.405 1.114.03.088.043.124c.237.697.457 1.409.659 2.136.207.743.39 1.483.551 2.231.001.007.002.014.004.021l.013.062"/></g><path d="M284.891 269.198c-.931-1.154-1.999-2.203-3.1-3.2-4.561-4.132-9.892-6.114-16.087-10.138-5.009-3.254-12.734-7.992-19.243-12.049-7.317-4.561-16.139-8.268-20.952-9.682-6.048-1.777-9.431-1.851-13.007 7.835-1.754 4.751-3.143 9.625-4.657 14.458l-6.643 21.609s-8.042 19.83 9.95 29.789c7.829-4.48 10.812-6.294 13.268-15.671 2.935-11.226 7.696-33.385 7.696-33.385 6.364 2.197 12.57 4.919 18.596 7.915 2.283 1.135 5.09 1.923 6.719 3.954 1.106 1.38 2.005 2.909 2.861 4.453.766 1.382 1.32 2.884 2.164 4.205 1.567 2.452 3.83 4.512 5.914 6.513.408.392.865.807 1.429.847.596.043 1.154-.367 1.451-.885.663-1.154.047-2.288-.292-3.468l-1.159-4.04c4.595 2.72 8.49 6.295 11.478 10.759.271.406.539.823.905 1.147s.85.55 1.335.49c1.205-.15 2.397-2.095 2.457-3.205.062-1.131-.19-2.289.09-3.387.267-1.046.976-1.904 1.305-2.925.32-.999.576-2.189.685-3.238.252-2.432-.606-4.723-1.826-6.787a16.07 16.07 0 0 0-1.337-1.914" class="K"/><g class="B"><path d="M210.076 308.65c6.858-2.772 11.793-5.903 14.918-16.361 3.144-10.517 6.517-27.241 6.517-27.241s.064-3.51-8.259-8.417-16.108-2.17-16.108-2.17l-6.285 20.197s-11.142 27.013 9.217 33.992m-40.195-157.558c-5.503.277-9.81 4.317-22.895 9.77-24.16 10.066-42.28 18.119-49.183 30.775S86.01 240.82 87.736 256.639c.229 2.099.637 3.824 1.184 5.244l-1.699.249 4.401 3.747.002-.012c4.514 3.687 11.861.4 17.396-2.612 15.818-8.609 28.187-16.97 37.966-47.17 7.356-22.717 12.207-43.439 22.359-54.519"/></g><g clip-path="url(#Ax)" opacity=".3"><path d="M88.919 261.883l-1.699.249 4.401 3.747.002-.012c4.514 3.687 11.861.4 17.397-2.612 15.817-8.609 28.187-16.97 37.965-47.17 7.356-22.717 12.207-43.439 22.36-54.519l.535-10.474c-5.503.277-9.81 4.317-22.895 9.77-24.16 10.066-42.28 18.119-49.183 30.775S86.01 240.82 87.736 256.639c.228 2.099.637 3.824 1.183 5.244"/></g><path d="M104.436 259.365c15.817-8.608 28.187-16.97 37.966-47.17s15.128-56.882 34.398-62.059c0 0-8.713-3.462-35.415 7.831-8.495 3.593-18.805 10.145-25.578 13.946-13.271 7.448-21.316 13.551-22.588 15.834-7.015 12.594-11.793 49.183-10.067 65.003s13.363 10.926 21.284 6.615" class="B"/></g><g clip-path="url(#Ay)"><use xlink:href="#Bz" class="B"/><g clip-path="url(#Az)" opacity=".2"><use xlink:href="#Bz"/></g><path d="M219.027 467.252c0 2.057-1.444 4.558-3.225 5.586l-2.626 1.517c-1.781 1.028-4.669 1.028-6.45 0l-40.274-23.293c-1.781-1.029-3.225-3.53-3.225-5.587v-44.311c0-2.058 1.445-4.558 3.225-5.587l2.627-1.516c1.781-1.028 4.669-1.028 6.45 0l12.953 7.483 4.615-7.994a.69.69 0 0 1 1.247.119l4.878 14.081 16.58 9.605c1.782 1.027 3.225 3.528 3.225 5.585z" class="B"/><g clip-path="url(#BA)" opacity=".2"><path d="M163.228 401.163c0-2.057 1.444-4.558 3.225-5.586l2.627-1.517c1.609-.929 4.115-1.01 5.899-.259-1.518-.575-2.674.282-2.674 2.122v44.311c0 1.029.361 2.168.944 3.179l-9.076 5.24c-.584-1.011-.945-2.15-.945-3.178z"/></g><g clip-path="url(#BB)" class="J C"><path d="M218.922 468.168c-.376 1.369-1.625 1.806-3.114.948l-40.281-23.299c-.887-.511-1.699-1.384-2.272-2.407l-9.072 5.236c.587 1.023 1.384 1.896 2.271 2.408l40.265 23.298c1.791 1.024 4.68 1.024 6.455 0l2.634-1.519c1.519-.873 2.798-2.829 3.114-4.665"/></g><g class="C"><path d="M178.225 422.835c0 .359.056.666.165.92a6.08 6.08 0 0 0 .471.861l8.756 14.156a1.24 1.24 0 0 0 .142.167.64.64 0 0 0 .099.072c.131.076.24.072.327-.012s.132-.228.132-.431v-5.459c0-.449-.084-.829-.252-1.139l-.448-.748-4.515-6.886 4.515-2.075c.13-.038.28-.109.448-.214s.252-.383.252-.832v-3.878c0-.202-.044-.396-.132-.582a.85.85 0 0 0-.327-.391c-.03-.017-.063-.03-.099-.04s-.085-.01-.142.003l-8.756 4.044c-.205.083-.362.19-.471.318s-.165.37-.165.73zm19.089 21.868c.073.289.182.582.328.88s.358.526.636.686l2.932 1.694c.132.076.245.068.34-.023s.142-.238.142-.44c0-.09-.015-.199-.044-.329l-7.399-31.536c-.058-.258-.16-.542-.307-.85a1.58 1.58 0 0 0-.656-.717l-2.868-1.656c-.13-.075-.244-.067-.338.024s-.143.238-.143.44c0 .09.014.2.045.328zm16.089-5.102c0-.36-.055-.667-.164-.92a6.22 6.22 0 0 0-.472-.863l-8.756-14.154c-.057-.079-.105-.135-.142-.167a.66.66 0 0 0-.098-.074c-.132-.075-.241-.072-.328.013s-.131.228-.131.43v5.46c0 .449.083.823.251 1.122l.448.732 3.83 5.919-3.83 1.46c-.13.038-.28.114-.448.23s-.251.4-.251.849v5.46c0 .202.043.396.131.581s.196.316.328.392a.43.43 0 0 0 .098.041c.037.008.085.008.142-.003l8.756-4.045c.205-.084.362-.189.472-.317s.164-.372.164-.73z"/></g></g><g clip-path="url(#BC)"><path d="M96.495 472.795l-53.888-31.043c-.739-.427-1.338-1.463-1.338-2.316v-30.082c0-.853.602-1.883 1.345-2.302l5.319-3.024c.743-.42 1.943-.414 2.682.013l53.889 31.044c.738.426 1.337 1.462 1.337 2.315v30.081c0 .853-.602 1.884-1.345 2.303l-5.319 3.024c-.743.42-1.944.414-2.682-.013" class="H"/><path d="M105.823 467.724c-.105.673-.654.914-1.322.531L50.618 437.21c-.371-.216-.704-.581-.945-1.001l-7.985 4.592c.241.402.563.748.921.951l53.889 31.046c.736.426 1.934.432 2.681.012l5.316-3.023c.674-.383 1.235-1.267 1.328-2.063" class="G"/><path d="M104.504 468.253L50.615 437.21c-.738-.427-1.337-1.464-1.337-2.316v-30.081c0-.853.599-1.199 1.337-.772l53.889 31.044a2.96 2.96 0 0 1 1.337 2.315v30.081c0 .853-.599 1.198-1.337.772" class="F"/><g class="N"><path d="M62.595 429.5l-.026-.969-.009-1.264.009-1.267.026-.951c.022-.393.074-.752.154-1.077s.206-.578.379-.761.39-.282.654-.298.59.089.981.315a3.78 3.78 0 0 1 .964.768c.252.287.458.578.618.874s.284.592.371.889l.197.803c.058.315.12.551.19.706s.201.288.396.4l2.254 1.302c.103.059.192.053.266-.018s.113-.187.113-.347a10.56 10.56 0 0 0-.431-2.791c-.275-.954-.654-1.861-1.135-2.722a12.94 12.94 0 0 0-1.696-2.369c-.648-.72-1.35-1.297-2.107-1.734-.826-.477-1.564-.713-2.212-.707s-1.201.202-1.66.591-.812.948-1.059 1.681-.386 1.573-.421 2.525l-.035 2.311.035 2.404c.023.985.161 1.987.413 3.007a14.22 14.22 0 0 0 1.059 2.903 11.84 11.84 0 0 0 1.66 2.508c.654.758 1.394 1.374 2.22 1.851.757.437 1.459.671 2.107.701s1.213-.108 1.696-.412.86-.775 1.135-1.411.419-1.401.431-2.295c0-.159-.038-.318-.113-.476s-.163-.266-.266-.325l-2.254-1.302c-.195-.112-.327-.132-.396-.056s-.132.237-.19.486c-.046.185-.111.377-.197.575s-.21.351-.371.462-.366.163-.618.159-.574-.119-.964-.344-.717-.498-.981-.818-.482-.672-.654-1.053-.299-.782-.379-1.2-.132-.835-.154-1.254m14.643 15.765c.734.424 1.408.65 2.022.677s1.144-.085 1.592-.339.797-.617 1.049-1.09a3.41 3.41 0 0 0 .397-1.546c0-.159-.039-.317-.113-.475s-.158-.264-.249-.316l-2.255-1.302c-.161-.093-.289-.132-.386-.117a.65.65 0 0 0-.301.144c-.035.032-.09.09-.164.17s-.181.148-.319.201-.309.068-.516.045-.458-.118-.757-.29c-.218-.126-.427-.269-.628-.429s-.379-.334-.533-.52a2.51 2.51 0 0 1-.379-.63c-.098-.233-.147-.482-.147-.746s.055-.455.165-.568.292-.172.55-.172.599.05 1.024.153l1.583.411c.631.17 1.181.241 1.651.212s.864-.177 1.18-.446.55-.661.705-1.181.232-1.195.232-2.025c0-.902-.132-1.781-.395-2.64s-.635-1.678-1.111-2.455-1.038-1.487-1.685-2.126a10.47 10.47 0 0 0-2.126-1.624c-.78-.451-1.49-.703-2.134-.756s-1.195.047-1.66.301-.828.628-1.093 1.13-.401 1.084-.413 1.748c0 .159.037.317.112.476s.158.263.25.316l2.254 1.301c.16.093.286.134.379.126a.53.53 0 0 0 .275-.119c.046-.044.115-.12.206-.225a1.18 1.18 0 0 1 .371-.276c.154-.079.348-.113.584-.101s.525.118.869.317c.608.351 1.116.745 1.523 1.184s.611.922.611 1.452c0 .265-.074.442-.224.533s-.373.124-.671.103-.679-.097-1.144-.223l-1.643-.42c-1.182-.293-2.045-.142-2.59.452s-.818 1.652-.818 3.171c0 .76.113 1.549.336 2.367s.548 1.614.972 2.389.938 1.49 1.541 2.147a8.49 8.49 0 0 0 2.021 1.631m12.458 7.193c.734.424 1.408.65 2.022.677s1.145-.085 1.592-.339a2.66 2.66 0 0 0 1.05-1.09c.252-.473.384-.988.396-1.546a1.11 1.11 0 0 0-.112-.475c-.075-.158-.158-.264-.25-.316l-2.255-1.302c-.16-.093-.289-.132-.385-.117s-.199.062-.302.144l-.164.17a.82.82 0 0 1-.318.201c-.138.052-.309.068-.517.045s-.458-.118-.757-.29a5.04 5.04 0 0 1-.627-.429 3.71 3.71 0 0 1-.534-.52c-.154-.187-.281-.397-.379-.63s-.146-.482-.146-.746.055-.455.165-.568.291-.172.549-.172.599.05 1.024.153l1.583.411c.631.17 1.181.241 1.652.212s.863-.177 1.179-.446.551-.661.705-1.181.232-1.195.232-2.025c0-.902-.132-1.781-.395-2.64a10.66 10.66 0 0 0-1.11-2.455 11.21 11.21 0 0 0-1.686-2.126c-.647-.639-1.357-1.181-2.125-1.624-.781-.451-1.491-.703-2.134-.756s-1.196.047-1.66.301-.829.628-1.093 1.13-.402 1.084-.414 1.748a1.09 1.09 0 0 0 .113.476c.075.157.158.263.249.316l2.254 1.301c.161.093.287.134.379.126s.183-.049.275-.119a4.04 4.04 0 0 0 .207-.225c.091-.106.216-.199.37-.276s.349-.113.584-.101.525.118.87.317c.607.351 1.115.745 1.522 1.184s.612.922.612 1.452c0 .265-.075.442-.225.533s-.373.124-.671.103-.679-.097-1.143-.223l-1.644-.42c-1.182-.293-2.045-.142-2.59.452s-.817 1.652-.817 3.171c0 .76.112 1.549.336 2.367s.548 1.614.972 2.389a10.89 10.89 0 0 0 1.54 2.147 8.51 8.51 0 0 0 2.021 1.631"/></g><path d="M96.495 410.282l-53.888-31.044c-.739-.426-1.338-1.463-1.338-2.315V346.84c0-.852.602-1.882 1.345-2.301l5.319-3.025c.743-.419 1.943-.413 2.682.014l53.889 31.043c.738.426 1.337 1.463 1.337 2.316v30.081c0 .852-.602 1.883-1.345 2.303l-5.319 3.024c-.743.419-1.944.413-2.682-.013" class="H"/><path d="M105.823 405.21c-.105.673-.654.914-1.322.531l-53.883-31.045c-.371-.216-.704-.581-.945-1.001l-7.985 4.592c.241.402.563.748.921.951l53.889 31.046c.736.426 1.934.432 2.681.012l5.316-3.023c.674-.383 1.235-1.266 1.328-2.063" class="G"/><path d="M104.504 405.74l-53.889-31.043c-.738-.427-1.337-1.464-1.337-2.316V342.3c0-.853.599-1.199 1.337-.772l53.889 31.044a2.96 2.96 0 0 1 1.337 2.315v30.081c0 .853-.599 1.198-1.337.772" class="F"/><g class="N"><path d="M62.853 374.182c.126.073.235.064.326-.023s.138-.23.138-.425V356.62c0-.194-.046-.388-.138-.583s-.2-.327-.326-.4l-2.255-1.302c-.126-.072-.235-.065-.326.024s-.139.229-.139.423v6.491l-3.819-2.205v-6.491a1.34 1.34 0 0 0-.139-.583c-.091-.194-.2-.328-.326-.4l-2.254-1.302c-.127-.073-.235-.069-.327.01s-.138.225-.138.437v17.114c0 .194.046.389.138.583s.2.328.327.401l2.254 1.302c.126.072.235.064.326-.024s.139-.23.139-.424v-6.385l3.819 2.206v6.384c0 .195.046.389.139.584s.2.327.326.4zm12.578 7.262c.126.073.235.064.327-.023s.138-.23.138-.425v-2.807a1.35 1.35 0 0 0-.138-.583c-.092-.195-.201-.329-.327-.401l-3.028-1.749v-13.591a1.35 1.35 0 0 0-.138-.582c-.092-.194-.2-.328-.327-.401l-2.253-1.301c-.127-.073-.236-.066-.328.023s-.138.229-.138.423v13.591l-3.028-1.748c-.126-.073-.236-.066-.326.023s-.138.23-.138.425v2.807c0 .194.045.389.138.584s.2.327.326.4zm7.906-9.305c-.098.094-.175.195-.232.304l-1.618 3.437v-8.77a1.36 1.36 0 0 0-.137-.582c-.092-.195-.201-.328-.327-.401l-2.254-1.301c-.127-.073-.236-.066-.328.023s-.137.229-.137.423v17.115a1.37 1.37 0 0 0 .137.583c.092.193.201.328.328.401l1.996 1.152c.229.133.401.134.515.006a1.55 1.55 0 0 0 .225-.294l2.787-5.729 2.788 8.947c.033.109.11.293.223.553a1.23 1.23 0 0 0 .517.591l1.996 1.152c.125.073.235.064.327-.024s.137-.23.137-.424v-17.114a1.37 1.37 0 0 0-.137-.583c-.092-.194-.202-.327-.327-.4l-2.254-1.302c-.126-.073-.236-.065-.328.024s-.137.229-.137.423v8.769l-1.617-5.304a5.08 5.08 0 0 0-.233-.572c-.098-.207-.232-.359-.404-.458l-1.101-.636c-.173-.099-.307-.103-.405-.009m18.645 10.328c.126.073.235.064.326-.023s.139-.23.139-.425v-2.808a1.34 1.34 0 0 0-.139-.583c-.091-.194-.2-.328-.326-.4l-7.967-4.6c-.127-.073-.235-.066-.327.023s-.138.229-.138.423v17.115c0 .194.046.388.138.583s.2.328.327.401l2.254 1.301c.126.073.235.065.326-.023s.139-.23.139-.424v-13.59z"/></g><path d="M96.495 347.769l-53.888-31.044c-.739-.426-1.338-1.463-1.338-2.315v-30.083c0-.852.602-1.882 1.345-2.301l5.319-3.025c.743-.419 1.943-.413 2.682.014l53.889 31.043c.738.426 1.337 1.463 1.337 2.316v30.081c0 .852-.602 1.883-1.345 2.303l-5.319 3.024c-.743.419-1.944.413-2.682-.013" class="H"/><path d="M105.823 342.697c-.105.673-.654.914-1.322.531l-53.883-31.045c-.371-.216-.704-.581-.945-1.001l-7.985 4.593c.241.401.563.747.921.95l53.889 31.046c.736.426 1.934.432 2.681.012l5.316-3.023c.674-.383 1.235-1.266 1.328-2.063" class="G"/><path d="M104.504 343.226l-53.889-31.043c-.738-.427-1.337-1.464-1.337-2.316v-30.081c0-.853.599-1.198 1.337-.772l53.889 31.044a2.96 2.96 0 0 1 1.337 2.315v30.081c0 .853-.599 1.198-1.337.772" class="F"/><g class="N"><path d="M63.644 305.078l-.025-.969-.009-1.264.009-1.267.025-.951c.023-.393.075-.752.155-1.077s.206-.578.379-.761.39-.282.653-.298.591.089.982.315.71.48.963.768a4.76 4.76 0 0 1 .619.874c.16.296.284.592.371.889l.197.803c.058.315.12.551.19.706s.2.288.395.4l2.254 1.302c.104.059.193.053.267-.018s.112-.187.112-.347c-.012-.907-.155-1.837-.43-2.791a12.88 12.88 0 0 0-1.136-2.722c-.482-.862-1.047-1.652-1.695-2.369s-1.35-1.297-2.107-1.734c-.826-.477-1.564-.713-2.212-.707s-1.201.202-1.66.591-.812.948-1.059 1.681-.386 1.573-.421 2.525l-.035 2.311.035 2.404c.023.985.161 1.987.412 3.007s.606 1.988 1.06 2.903a11.84 11.84 0 0 0 1.66 2.508c.654.758 1.394 1.374 2.22 1.851.757.437 1.459.671 2.107.701s1.213-.108 1.695-.412.86-.775 1.136-1.411.418-1.401.43-2.295c0-.159-.038-.318-.112-.476s-.163-.266-.267-.325l-2.254-1.302c-.195-.112-.327-.132-.395-.056s-.132.237-.19.486c-.046.185-.111.377-.197.575s-.21.351-.371.462-.367.163-.619.159-.573-.119-.963-.344a3.57 3.57 0 0 1-.982-.818 4.66 4.66 0 0 1-.653-1.053c-.172-.381-.299-.782-.379-1.2a9.4 9.4 0 0 1-.155-1.254m15.796 3.53v-4.372a1.36 1.36 0 0 0-.137-.582c-.092-.195-.201-.328-.327-.401l-2.169-1.252c-.126-.073-.235-.065-.326.024s-.138.229-.138.423v4.372l-2.668-1.54c-.126-.073-.234-.066-.326.023s-.138.229-.138.424v2.675a1.35 1.35 0 0 0 .138.583c.092.194.2.329.326.401l2.668 1.54v4.371a1.34 1.34 0 0 0 .138.583c.091.194.2.328.326.4l2.169 1.252c.126.073.235.066.327-.023s.137-.23.137-.423v-4.372l2.65 1.531c.126.072.236.064.328-.025s.137-.229.137-.423v-2.676a1.36 1.36 0 0 0-.137-.582c-.092-.195-.202-.328-.328-.401zm11.409 6.587v-4.372a1.36 1.36 0 0 0-.137-.582c-.092-.195-.202-.328-.328-.401l-2.168-1.252c-.126-.073-.235-.065-.326.024s-.139.229-.139.423v4.372l-2.667-1.54c-.126-.073-.235-.066-.326.023s-.138.229-.138.424v2.675c0 .195.045.389.138.583s.2.329.326.401l2.667 1.54v4.371c0 .194.046.388.139.583s.2.328.326.4l2.168 1.252c.126.073.236.066.328-.023s.137-.23.137-.423v-4.372l2.65 1.531c.126.072.236.064.327-.025s.137-.229.137-.423v-2.676c0-.194-.045-.388-.137-.582s-.201-.328-.327-.401z"/></g></g></g></svg>