<?xml version="1.0" encoding="UTF-8" standalone="no"?>
<svg
   width="3469.2637"
   height="1404.5156"
   viewBox="0 0 917.90986 371.61143"
   version="1.1"
   id="svg128"
   sodipodi:docname="background.svg"
   inkscape:version="1.1 (ce6663b3b7, 2021-05-25)"
   xmlns:inkscape="http://www.inkscape.org/namespaces/inkscape"
   xmlns:sodipodi="http://sodipodi.sourceforge.net/DTD/sodipodi-0.dtd"
   xmlns:xlink="http://www.w3.org/1999/xlink"
   xmlns="http://www.w3.org/2000/svg"
   xmlns:svg="http://www.w3.org/2000/svg">
  <sodipodi:namedview
     id="namedview130"
     pagecolor="#ffffff"
     bordercolor="#666666"
     borderopacity="1.0"
     inkscape:pageshadow="2"
     inkscape:pageopacity="0.0"
     inkscape:pagecheckerboard="0"
     showgrid="false"
     showborder="false"
     inkscape:zoom="0.22409571"
     inkscape:cx="2054.9255"
     inkscape:cy="1198.1488"
     inkscape:window-width="1848"
     inkscape:window-height="1016"
     inkscape:window-x="72"
     inkscape:window-y="27"
     inkscape:window-maximized="1"
     inkscape:current-layer="svg128"
     inkscape:snap-smooth-nodes="true"
     inkscape:snap-midpoints="true"
     inkscape:object-paths="true"
     inkscape:snap-intersection-paths="true" />
  <style
     id="style2"><![CDATA[.J{filter:url(#D)}.K{color-interpolation-filters:sRGB}.L{fill-rule:evenodd}.M{stroke-linejoin:bevel}]]></style>
  <defs
     id="defs46">
    <inkscape:path-effect
       effect="powerclip"
       id="path-effect1962"
       is_visible="true"
       lpeversion="1"
       inverse="true"
       flatten="false"
       hide_clip="false"
       message="Use fill-rule evenodd on &lt;b&gt;fill and stroke&lt;/b&gt; dialog if no flatten result after convert clip to paths." />
    <linearGradient
       id="A"
       x1="-363.41599"
       y1="-247.52299"
       x2="-202.073"
       y2="-48.955002"
       gradientUnits="userSpaceOnUse"
       gradientTransform="translate(755.98983,291.7762)">
      <stop
         offset="0"
         stop-color="#fdfdfd"
         id="stop4" />
      <stop
         offset=".407"
         stop-color="#d2d2d2"
         stop-opacity=".341"
         id="stop6" />
      <stop
         offset="1"
         stop-color="#3b00cf"
         stop-opacity="0"
         id="stop8" />
    </linearGradient>
    <linearGradient
       id="B"
       x1="-282.60199"
       y1="-286.10501"
       x2="-282.47299"
       y2="218.767"
       gradientUnits="userSpaceOnUse"
       gradientTransform="translate(755.98984,291.7762)">
      <stop
         offset="0"
         stop-color="#030516"
         id="stop11" />
      <stop
         offset=".151"
         stop-color="#18006b"
         id="stop13" />
      <stop
         offset=".464"
         stop-color="#3800cd"
         id="stop15" />
      <stop
         offset="1"
         stop-color="#8600ff"
         id="stop17" />
    </linearGradient>
    <filter
       id="C"
       x="-0.15722385"
       y="-0.15722385"
       width="1.3144476"
       height="1.3144476"
       class="K">
      <feGaussianBlur
         stdDeviation="6.09"
         id="feGaussianBlur20" />
    </filter>
    <filter
       id="D"
       x="-0.028346764"
       y="-0.028346764"
       width="1.0566936"
       height="1.0566936"
       class="K">
      <feGaussianBlur
         stdDeviation="1.098"
         id="feGaussianBlur23" />
    </filter>
    <filter
       id="E"
       x="-0.21141315"
       y="-0.21141315"
       width="1.4228263"
       height="1.4228263"
       class="K">
      <feGaussianBlur
         stdDeviation="8.189"
         id="feGaussianBlur26" />
    </filter>
    <filter
       id="F"
       x="-0.16339403"
       y="-0.16339403"
       width="1.3267881"
       height="1.3267881"
       class="K">
      <feGaussianBlur
         stdDeviation="6.329"
         id="feGaussianBlur29" />
    </filter>
    <filter
       id="G"
       x="-0.16512376"
       y="-0.16512376"
       width="1.3302475"
       height="1.3302475"
       class="K">
      <feGaussianBlur
         stdDeviation="6.396"
         id="feGaussianBlur32" />
    </filter>
    <filter
       id="H"
       x="-0.032775629"
       y="-0.059296122"
       width="1.0655513"
       height="1.1185922"
       class="K">
      <feGaussianBlur
         stdDeviation="9.492"
         id="feGaussianBlur35" />
    </filter>
    <filter
       id="I"
       x="-0.41285573"
       y="-0.41285573"
       width="1.8257115"
       height="1.8257115"
       class="K">
      <feGaussianBlur
         stdDeviation="45.228"
         id="feGaussianBlur38" />
    </filter>
    <clipPath
       id="J">
      <path
         d="M -761.13,-405.483 H 167.992 V 338.731 H -761.13 Z m 5.179,5.731 c -0.022,0 -0.039,0.017 -0.039,0.039 v 107.899 c 0,0.022 0.017,0.039 0.039,0.039 h 917.832 c 0.022,0 0.039,-0.017 0.039,-0.039 v -107.899 c 0,-0.022 -0.017,-0.039 -0.039,-0.039 z"
         fill="#000000"
         stroke="#000000"
         stroke-width="0.28"
         class="L M"
         id="path41" />
    </clipPath>
    <path
       id="K"
       d="m -417.848,-204.9 -5.947,-1.225 -2.199,5.122 0.881,-5.541 -5.595,-2.443 5.947,1.225 2.199,-5.122 -0.881,5.541 z" />
    <path
       id="L"
       d="m -2650.319,-1162.312 -10.956,-41.008 -42.423,1.424 41.008,-10.956 -1.424,-42.423 10.956,41.008 42.423,-1.424 -41.008,10.956 z" />
    <clipPath
       clipPathUnits="userSpaceOnUse"
       id="clipPath1958">
      <rect
         style="display:none;fill:#ff0000;stroke-width:0.0300001;stroke-linejoin:bevel"
         id="rect1960"
         width="915.44037"
         height="116.03414"
         x="3.7386007"
         y="-113.91314"
         d="M 3.7386007,-113.91314 H 919.17897 V 2.1210022 H 3.7386007 Z" />
      <path
         id="lpe_path-effect1962"
         style="fill:#ff0000;stroke-width:0.0300001;stroke-linejoin:bevel"
         class="powerclip"
         d="M 211.81978,-111.58621 H 701.83219 V 378.4262 H 211.81978 Z M 3.7386007,-113.91314 V 2.1210022 H 919.17897 V -113.91314 Z" />
    </clipPath>
  </defs>
  <path
     id="path48"
     style="fill:url(#B);fill-rule:evenodd;stroke-width:0.264583"
     class="M"
     d="M 0,0 V 371.61152 H 917.9096 V 0 Z" />
  <path
     fill="#c589ff"
     filter="url(#I)"
     id="circle50"
     style="fill-rule:evenodd"
     clip-path="url(#clipPath1958)"
     inkscape:path-effect="#path-effect1962"
     sodipodi:type="arc"
     sodipodi:cx="456.82599"
     sodipodi:cy="133.42"
     sodipodi:rx="131.459"
     sodipodi:ry="131.459"
     d="M 588.28499,133.42 A 131.459,131.459 0 0 1 456.82599,264.879 131.459,131.459 0 0 1 325.36699,133.42 131.459,131.459 0 0 1 456.82599,1.9609985 131.459,131.459 0 0 1 588.28499,133.42 Z"
     transform="translate(-1.2691735,-2.1208014)" />
  <g
     fill="#ffffff"
     filter="url(#H)"
     id="g68"
     transform="translate(755.98983,291.7762)"
     style="fill-rule:evenodd">
    <path
       d="m -132.476,-61.269 -5.947,-1.225 -2.199,5.122 0.881,-5.541 -5.595,-2.443 5.946,1.225 2.199,-5.122 -0.881,5.541 z"
       id="path52" />
    <use
       xlink:href="#K"
       id="use54"
       x="0"
       y="0"
       width="100%"
       height="100%" />
    <path
       d="m -475.49,107.875 -5.947,-1.225 -2.199,5.122 0.881,-5.541 -5.595,-2.443 5.947,1.225 2.199,-5.122 -0.881,5.541 z"
       id="path56" />
    <path
       d="m -514.232,167.406 -5.947,-1.225 -2.199,5.122 0.881,-5.541 -5.595,-2.443 5.947,1.225 2.199,-5.122 -0.881,5.541 z"
       id="path58" />
    <path
       d="m -190.118,154.177 -5.947,-1.225 -2.199,5.122 0.881,-5.541 -5.595,-2.443 5.946,1.225 2.199,-5.122 -0.881,5.541 z"
       id="path60" />
    <path
       d="m -20.028,31.335 -5.946,-1.225 -2.199,5.122 0.881,-5.541 -5.595,-2.443 5.946,1.225 2.199,-5.122 -0.881,5.541 z"
       id="path62" />
    <path
       d="m -579.433,-176.552 -5.947,-1.225 -2.199,5.122 0.881,-5.541 -5.595,-2.443 5.947,1.225 2.199,-5.122 -0.881,5.541 z"
       id="path64" />
    <path
       d="m -708.665,-63.095 -2.967,-0.796 -1.097,3.331 0.44,-3.603 -2.792,-1.589 2.967,0.796 1.097,-3.331 -0.44,3.603 z"
       id="path66" />
  </g>
  <circle
     cx="455.55682"
     cy="131.29919"
     r="109.353"
     fill="url(#A)"
     id="circle70"
     style="fill:url(#A);fill-rule:evenodd" />
</svg>
