<svg xmlns="http://www.w3.org/2000/svg" xmlns:xlink="http://www.w3.org/1999/xlink" width="728.97" height="285.18" version="1.1" viewBox="0 0 19287 7545"><defs><radialGradient id="d" cx="14955" cy="14527" r="34" fx="149.55" fy="145.27" gradientTransform="matrix(41.51356-.21064.4902 110.59028-614120-1599546)" xlink:href="#a"><stop offset="0" stop-color="#e680ff" stop-opacity=".61"/><stop offset="1" stop-color="#fdf5ff" stop-opacity="0"/></radialGradient><radialGradient id="e" cx="14963" cy="14523" r="34" fx="149.63" fy="145.23" gradientTransform="matrix(15.9896.19928-1.15592 92.74743-216495-1345688)" xlink:href="#a"><stop offset="0" stop-color="#fdf5ff" stop-opacity=".51"/><stop offset="1" stop-color="#fdf5ff" stop-opacity="0"/></radialGradient><radialGradient id="f" cx="14963" cy="14523" r="34" fx="149.63" fy="145.23" gradientTransform="matrix(15.9896.19928-1.15592 92.74743-211333-1346010)" xlink:href="#a"><stop offset="0" stop-color="#00fffd" stop-opacity=".51"/><stop offset="1" stop-color="#9ce4ff" stop-opacity="0"/></radialGradient><radialGradient id="g" cx="14963" cy="14536" r="34" fx="149.63" fy="145.36" gradientTransform="matrix(15.9896.19928-1.15592 92.74753-206105-1345568)" xlink:href="#a"><stop offset="0" stop-color="#ff0002" stop-opacity=".51"/><stop offset="1" stop-color="#ff0024" stop-opacity="0"/></radialGradient><radialGradient id="h" cx="14955" cy="14527" r="34" fx="149.55" fy="145.27" gradientTransform="matrix(23.7421-.0778.28035 40.84554-367854-586043)" xlink:href="#a"><stop offset="0" stop-color="#00a61b" stop-opacity=".61"/><stop offset="1" stop-color="#23a83b" stop-opacity="0"/></radialGradient><radialGradient id="i" cx="230924" cy="267402" r="3118" fx="2309.24" fy="2674.02" gradientTransform="scale(.3198 3.12689)" gradientUnits="userSpaceOnUse" xlink:href="#b"/><radialGradient id="j" cx="162431" cy="175975" r="2052" fx="1624.31" fy="1759.75" gradientTransform="scale(.21045 4.75164)" gradientUnits="userSpaceOnUse" xlink:href="#b"/><linearGradient id="b" xlink:href="#a"><stop offset="0" stop-color="#7e7e7e"/><stop offset="1" stop-color="#d5d0d0" stop-opacity="0"/></linearGradient><linearGradient id="a" gradientUnits="userSpaceOnUse"/><filter id="c" width="101" height="102" x="0" y="-1" color-interpolation-filters="sRGB"><feGaussianBlur stdDeviation="2"/></filter></defs><path d="m83496 4880-35 324-210-258 182 282-295-34 293 76-207 210 232-175 3 330 35-323 210 258-182-282 296 34-294-76 207-210-232 175zM69997 6350l100 512-408-220 381 279-422 181 439-117-190 476 240-444 156 492-100-510 407 210-381-280 422-180-439 117 190-477-240 444zm32669 283 100 511-408-220 380 280-421 180 438-116-188 476 239-444 155 492-100-512 408 220-380-279 421-180-438 116 188-476-239 450zM86543 7340l100 512-408-220 380 280-421 180 438-117-188 476 239-444 155 492-100-510 408 220-380-280 420-180-437 110 188-480-240 445zm-6538 23-35 323-210-258 183 283-295-35 293 77-207 210 232-176 3 330 35-322 210 257-182-282 295 34-293-76 207-210-232 175zM4852 7571l100 511-408-220 380 280-421 180 439-117-190 477 240-445 156 493-100-512 408 220-381-280 422-180-440 117 190-477-240 445zm91308 618 100 510-408-220 381 280-422 180 439-116-190 477 240-445 155 493-100-512 408 220-381-280 422-180-439 117 190-476-240 444zm-22070 957-35 324-210-258 182 282-295-34 293 76-207 210 232-175 3 330 35-320 210 260-182-280 295 37-293-77 207-210-232 176zm13144 433-35 323-210-258 182 283-296-35 294 77-207 209 232-175 2 330 36-323 210 258-182-282 295 34-293-76 207-210-232 175zm-66932 240 100 503-408-220 380 280-420 180 438-117-190 477 240-445 156 493-100-512 408 220-380-280 421-181-439 117 190-477-240 445zm62138 196-35 325-210-258 182 282-296-34 294 76-207 210 232-175 2 330 36-323 210 259-182-282 295 34-293-77 207-210-232 176zm-4754 2007-35 324-210-257 182 282-295-34 293 76-200 209 235-174 3 329 35-323 210 258-182-283 296 34-293-76 207-210-233 176zm-13662 464-35 323-210-256 182 282-295-34 293 76-207 210 233-175 2 330 35-323 210 258-182-284 296 35-294-77 207-208-232 175zm-59672 580 100 512-408-220 380 280-420 180 438-118-190 477 240-446 156 493-100-513 408 220-380-279 421-180-438 116 188-476-240 444zm10750 0 100 512-408-220 380 280-420 180 438-118-190 477 240-446 156 493-100-513 408 220-380-279 421-180-438 116 188-476-240 444zm83038 350 100 520-408-220 380 279-421 180 439-116-190 477 240-447 156 490-100-510 408 220-381-280 422-180-440 118 190-477-240 448zm-8060 150 100 510-409-220 390 280-421 178 439-115-190 476 240-445 157 492-100-512 407 220-382-277 422-180-440 117 190-476-240 444zm-23900 283 100 510-409-220 390 280-421 181 439-116-190 477 240-445 157 493-100-512 407 220-383-279 423-180-440 114 190-476-240 444zm-56680 87 100 508-410-220 380 280-420 180 433-118-188 477 240-445 153 493-100-512 408 220-380-279 421-180L9700 14460l187-476-239 445zm95846 1608 100 510-408-220 380 279-421 180 438-116-188 476 239-445 155 493-100-512 410 220-380-277 422-180-438 116 188-476-239 444zm-32103 140 100 509-408-220 380 280-420 180 438-116-188 476 239-444 156 492-100-510 408 220-381-280 422-181-440 116 189-475-238 444zm6018 534-32 323-210-257 183 280-296-33 294 76-207 210 232-174 3 330 35-322 210 258-182-283 295 36-294-76 207-212-232 176zm8821 102-35 323-211-257 183 280-296-33 295 76-206 210 232-173 2 330 36-326 210 258-182-283 296 37-293-77 207-210-232 176zm-2066 927-35 324-210-258 182 282-296-34 294 77-207 210 232-177 1 330 36-323 210 257-182-283 295 35-293-77 207-209-232 175zm-17820 67-35 323-210-258 182 284-296-33 294 78-209 210 234-174 3 330 35-323 210 258-182-283 296 35-293-74 207-210-233 174zm-4640 581-35 323-210-256 183 282-295-34 293 78-207 209 232-176 3 330 36-323 210 257-182-283 295 34-295-77 207-210-234 176zm11090 175-35 323-210-258 182 282-296-32 294 76-209 210 234-174 2 330 35-325 211 258-182-283 298 37-293-77 207-211-233 178zM4402 19420l100 511-408-220 380 280-421 180 439-117-190 477 240-445 156 493-100-520 408 220-381-280 422-180-440 117 190-477-240 446zm77757 1071 100 512-408-220 381 279-421 181 438-117-188 476 238-444 156 492-100-511 408 220-381-280 422-180-438 117 188-477-239 445zm7778 0 101 512-408-220 380 279-421 181 438-117-188 476 239-444 155 492-100-511 408 220-380-280 420-180-437 117 188-477-240 445zm-9675 148-36 323-210-258 182 282-295-34 293 76-207 210 233-175 2 330 35-323 210 258-182-283 296 34-294-76 207-210-232 175zm-61710 530 100 512-408-220 380 280-421 180 438-117-188 477 240-445 155 493-100-520 408 220-381-280 422-180-439 117 189-476-240 444zm-7800 750 100 512-408-220 380 280-421 180 438-117-188 477 240-445 155 493-100-520 408 220-381-280 422-180-440 117 190-476-240 444zm57544 2438-35 324-211-258 183 282-296-34 293 76-207 210 233-175 2 330 35-323 211 248-183-283 300 36-290-77 209-210-232 177zm34370 1367 100 511-408-220 380 280-421 180 438-116-188 476 238-444 156 492-100-510 408 220-380-280 421-180-438 115 188-476-239 444zm-33376 141 100 512-408-220 381 280-422 180 439-117-189 477 240-445 155 492-100-510 408 220-381-280 422-180-439 116 189-477-240 445zm29840 0 100 512-408-220 381 280-422 180 439-117-190 477 240-445 157 492-100-510 408 220-382-280 423-180-440 116 190-477-240 445zm-9929 40-35 324-210-258 182 283-295-35 293 77-207 209 232-175 3 330 35-323 210 258-182-282 296 34-294-76 207-210-232 180zm-53860 512-24 323-209-258 181 283-295-35 293 77-207 209 232-175 3 330 36-323 210 258-184-282 296 34-294-76 207-210-232 175zM9063 27170l101 512-408-220 380 279-420 181 438-117-189 476 240-444 156 492-100-511 407 220-380-280 420-180-440 117 190-477-240 445zm79755 252 100 510-407-220 380 280-421 180 439-115-190 476 240-444 156 492-100-510 409 220-381-273 420-180-438 117 189-476-240 444zm774 399-35 323-210-258 182 283-295-35 294 77-207 210 233-170 2 330 35-320 210 259-183-282 295 34-293-76 207-210-232 176zm-3768 331-35 324-210-258 183 282-295-34 294 76-207 210 232-175 2 330 35-323 210 258-183-283 295 30-293-80 206-210-232 175zm-60187 600-35 323-210-258 182 282-294-34 293 76-207 220 232-175 3 330 34-324 210 260-183-283 295 35-294-77 207-210-232 177zm7410 852-34 323-210-257 182 282-296-34 294 76-207 210 232-175 3 330 35-330 210 255-182-282 295 34-293-76 207-210-232 176zm43126 256-35 323-210-257 183 282-295-34 293 76-207 210 232-175 3 330 35-323 210 258-183-283 296 35-294-77 207-209-232 175zm-46245 1596-36 323-209-258 182 282-295-34 292 76-207 210 232-175 3 330 35-323 210 258-182-282 296 34-293-76 207-210-232 180zm-3265 710-36 323-210-260 183 274-295-35 294 77-207 210 232-177 2 330 36-323 210 258-184-282 295 34-293-76 207-210-233 176zm10380 1470-35 323-210-270 182 284-295-34 293 76-207 210 231-175 3 330 35-323 210 259-185-283 295 34-293-77 207-210-232 175zM6552 35320l100 512-408-220 380 279-421 181 439-117-190 477 240-445 156 492-100-511 408 220-381-280 422-180-440 117 190-477-240 445zm26026 623-35 324-211-258 182 280-295-40 293 74-207 210 233-176 2 330 35-324 210 258-182-283 296 34-293-76 206-210-232 175zm-4373 16-35 320-210-260 182 280-296-37 294 77-207 210 232-175 2 330 36-324 210 258-182-281 295 34-293-76 207-210-232 176zm49287 2350 100 510-408-220 382 280-423 180 439-120-190 474 240-445 156 492-100-510 408 220-381-280 422-180-438 117 188-477-239 444zm-56640 360 100 510-408-220 380 280-421 180 439-120-190 472 240-444 156 492-100-510 408 221-381-280 422-180-440 116 190-478-240 443zm11978 820-35 320-210-257 182 281-296-34 294 76-207 210 232-176 2 330 35-323 210 258-181-283 295 34-293-76 207-210-232 176zm65876 652 100 511-408-220 380 280-421 180 438-118-188 477 239-444 155 493-100-514 408 220-380-279 410-180-437 116 188-476-240 444zm-6223 1273 100 510-408-219 380 280-421 180 439-117-190 477 240-445 156 493-100-512 408 220-381-279 422-180-440 117 190-477-240 445zm5657 1697 100 510-408-220 380 280-421 180 438-117-188 477 239-445 156 493-100-512 407 220-380-279 420-180-437 116 188-477-240 443zm-55537 452-35 323-210-259 182 283-295-34 293 77-207 210 232-176 3 330 35-323 210 258-182-280 295 33-293-74 207-210-232 175zm-9299 1400-35 324-210-258 182 281-290-34 298 76-207 210 232-175 3 330 35-323 209 258-182-282 295 35-293-78 207-209-231 175" fill="#fdf5ff" fill-opacity=".58" filter="url(#c)" transform="translate(-4082-8615) scale(.26458)"/><rect fill="url(#d)" width="520" height="6392" x="13570" y="0" ry="17"/><rect fill="url(#e)" width="413" height="6392" x="5718" y="786" ry="17"/><rect fill="url(#f)" width="413" height="6392" x="10880" y="463" ry="17"/><rect fill="url(#g)" width="413" height="6392" x="16108" y="907" ry="17"/><path d="m19058 7528-17690-43v-289h138v230h392v-104h421V7000h130v-665l70-80v900h661v-470h84V6540l77-45v-524l46-12v1188h323V5740h46v463h68v357h102v689l23-7V5998h50v705l53 54v455h56v-1100l20-33v-268l10-4v278l30 28V7120h260v-662l20-77v-300l91-90v740h44v-80l40 10v-130l60-32V6800h253v-920l37-20v-93l36-21V5400h92v259l64 37V7340h47V6268l107-185v-129l24-14v-500h110v612h76v-620l14-20h184v676l46-13v-732l70-70h318l121 70v282h125v313l120 120v666h148v-592H6800V5540h115l115 199v758l270 154v565h255V5730h47v187h125l54 94v644h37v178h-67v277h130V5557l31-55 116 67v230l55 14v367h71v-310h50v-671h60v700h75v-707l49-28v-1030l64-66v-432l40-40V2510l87-150 30-9v1260l65 243v578h57l64 100v778h60v437h50v230h38v-444l128-220v-415H9700l545-545v330l32-20v420l-18 30v740l-278 160v770h294V5557l246 66h136v846h112V5080l389-104 308 309v1707H11800v-930h190v1030h110V5000l397-396h169v402s-110-25-163 72c-57 97-34 254-34 254h649l-68 116-528 142 114 1290h192s-93-795 350-811c444-17 397 760 397 760h180v-1970l203-53 100 102v850h410l277 276v520h207V5590l138-240v-204l-103-103v-660l145-145 194 112v640l112 113v769l-114 112v773h436v83h92v-280l347-348h715l223 222v372l77 20v580h352l16 60h187l1287-56" fill="#1c0046"/><rect fill="url(#h)" width="297" height="2361" x="-8870" y="4735" ry="6" transform="scale(-1 1)"/><g transform="matrix(.66805 0 0 .6673 3766-6084)"><path d="m18714 17162-288 94-8 2920-85 3 5-1398-74-220 2-558-14-3-7 568-105 226-12 1534-91-3 4-927-440 466 18-472-420 458-2-425-416 436v-916l-90 4-14 1431h-82l24-1670h-47l6-239-18-8 8-494h-20l-16 745H16500l10-1179-38 92-30 1852h-111v560h-80l-3 320h-81l18-1455-213-137-265 117 2 837-162 4 8-1131-50 86-3 607-83 62-6 360h-71l15-1060c-1-70-88-95-114-94-26 2-66-2-110 52-42 53-30 96-30 96l-6 646-60 6v575l-48 1 2-1029 79-90 10-498-82-80 6-159 90-86v-240l-378 333v346l-80 86-2 651 80 94-810 45v-28l-355 2-31-70-451 1 88 121v14l-754 40 5-576H12300l5-330h-255v160h174v353l-116 67v344l-438 24v-441l-180-51-222 60v450h-35l-48 3v-465l-155-42v-98l-160 54-5 323-306-5-10-400-295-14-66 50 4 380h-185l3-656-215 2v810l-183 5-20-857-290 180v632H8780l-82-47h-320l-94 94V19600l-120 7h-6l-68-119h-130l-76 135-211 11-62-36-180 48-173 10v-310H6830v93h-220v-437h-456v390H5950v330l-521 30v-149h-175v160l-644 35-94-350-96 360-187 10-58 3V17660l-182-105H3870v1240l-91 52v1003l-298 16v-738H3380v-403l-272-158-120 32v1293l-64 4-70 3v-1044l-328 88a685 685 0 00-145 145v810h-880v-795l-253-146h-160l-273 157V20000l-10 10-216 12-92 5v-1050H450v-149H65l-30 50H-86v526h-73l-47-81h-335v220h-96v-200h-94v-1915l-100-174-120 193v1692l-90 90v672h-50v-759l-210 365v617l-77 4v-1810H-1500v1817l-102 5-56 3v-1740l-20-4v-400l-142 38v710l-99 59v900h-60v-767l-148-163v-434l-143-142v1130l-200 200v496h-62v-687h-460v735h-22v-1620h-376v189l-45 45v694h-40v-415l-53-90v-231l-53-30v-437l-14 52V18900l-144 144v625h-227l-70 72v160h-124v230h-91v-226h-40v127h-165V19500h-30v620l-73 19v65h-75v-175h-360v266h-288v-142l-326 4v200l-32 70H23230v-1423l-500-398 14 1490-672 6-30-920c0-169-71-294-217-302-145-7-368 66-416 222s18 972 18 972l-504 20-38-867-420-11-640 433 11 512-547 14-20-2527-90-72-180-330" fill-opacity=".98"/><rect fill="url(#i)" width="447" height="4367" x="13327" y="15997" ry="19"/><rect fill="url(#j)" width="193" height="4367" x="7975" y="16029" ry="19"/></g></svg>
