<svg xmlns="http://www.w3.org/2000/svg" width="629.73" height="460.6" viewBox="0 0 166.616 121.867" xmlns:v="https://vecta.io/nano"><defs><linearGradient id="A" x1="87.977" y1="27.468" x2="90.985" y2="162.456" gradientUnits="userSpaceOnUse"><stop offset="0" stop-color="#1a0015"/><stop offset=".198" stop-color="#530076"/><stop offset=".466" stop-color="#8101ca" stop-opacity=".698"/><stop offset="1" stop-color="#fff" stop-opacity=".944"/></linearGradient><radialGradient id="B" cx="48.727" cy="67.286" fx="48.727" fy="67.286" r="43.534" gradientTransform="matrix(0.12381027,1.3601545,-1.1870741,0.1080547,124.85454,-1.2462394)" gradientUnits="userSpaceOnUse"><stop offset="0" stop-color="#57007d" stop-opacity=".368"/><stop offset=".457" stop-color="#9b00ac" stop-opacity=".279"/><stop offset="1" stop-color="#fff"/></radialGradient><filter id="C" x="-.005" y="-.012" width="1.009" height="1.023" color-interpolation-filters="sRGB"><feGaussianBlur stdDeviation="2"/></filter><filter id="D" x="-.203" y="-.203" width="1.405" height="1.405" color-interpolation-filters="sRGB"><feGaussianBlur stdDeviation="7.32"/></filter></defs><g transform="translate(-5.382 -29.798)"><path d="M-.114 27.468h176.182c.114 0 .206.092.206.206V162.49c0 .114-.092.206-.206.206H-.114c-.114 0-.206-.092-.206-.206V27.674c0-.114.092-.206.206-.206z" fill="url(#A)"/><path d="M834.963 48.807l-.352 3.232-2.107-2.578 1.826 2.824-2.953-.344 2.932.764-2.068 2.094 2.32-1.748.027 3.303.35-3.232 2.109 2.58-1.826-2.826 2.955.346-2.936-.764 2.072-2.094-2.324 1.748zM699.971 63.502l1.006 5.113-4.084-2.197 3.811 2.787-4.221 1.816 4.385-1.172-1.885 4.764 2.391-4.445 1.555 4.924-1.004-5.115 4.084 2.197-3.811-2.787 4.221-1.814-4.385 1.172 1.885-4.764-2.391 4.443zm326.684 2.828l1.006 5.113-4.084-2.197 3.809 2.789-4.219 1.814 4.383-1.172-1.883 4.764 2.389-4.445 1.557 4.924-1.004-5.115 4.084 2.199-3.811-2.789 4.221-1.814-4.385 1.172 1.885-4.764-2.391 4.443zM865.436 73.4l1.004 5.115-4.084-2.197 3.811 2.787-4.221 1.814 4.385-1.172-1.885 4.766 2.391-4.445 1.555 4.922-1.004-5.113 4.084 2.197-3.811-2.787 4.221-1.816-4.385 1.172 1.885-4.764-2.391 4.445zm-65.373.23l-.352 3.232-2.107-2.578 1.826 2.824-2.953-.344 2.934.762-2.07 2.094 2.322-1.746.025 3.303.352-3.232 2.107 2.578-1.826-2.824 2.953.344-2.934-.762 2.072-2.094-2.324 1.746zM48.521 75.705l1.004 5.115-4.084-2.199 3.811 2.789-4.219 1.814 4.383-1.172-1.883 4.764 2.389-4.445 1.557 4.924-1.004-5.115 4.084 2.199-3.811-2.789 4.219-1.814-4.383 1.172 1.883-4.764-2.389 4.445zm913.08 6.182L962.605 87l-4.084-2.197 3.811 2.787-4.221 1.816 4.385-1.172-1.885 4.764 2.391-4.445 1.557 4.924-1.006-5.115 4.084 2.197-3.811-2.787 4.221-1.814-4.385 1.172 1.885-4.764-2.391 4.443zm-220.697 9.576l-.352 3.232-2.107-2.58 1.826 2.826-2.955-.344 2.934.764-2.07 2.092 2.322-1.746.025 3.305.352-3.234 2.107 2.578-1.826-2.824 2.955.344-2.934-.762 2.07-2.094-2.322 1.746zm131.436 4.326l-.352 3.23-2.105-2.578 1.824 2.824-2.953-.342 2.934.762-2.07 2.094 2.322-1.748.025 3.305.352-3.234 2.107 2.58-1.826-2.826 2.953.344-2.932-.762 2.07-2.092-2.322 1.746zm-669.318 2.416l1.004 5.115-4.084-2.199 3.811 2.789-4.219 1.814 4.383-1.172-1.883 4.764 2.389-4.445 1.557 4.924-1.004-5.115 4.084 2.199-3.811-2.789 4.219-1.814-4.383 1.172 1.883-4.764-2.389 4.445zm621.379 2.059l-.352 3.234-2.105-2.578 1.824 2.824-2.953-.344 2.934.762-2.07 2.094L824 104.51l.025 3.303.352-3.232 2.109 2.578-1.828-2.824 2.953.344-2.932-.764 2.07-2.092-2.322 1.746zm-47.539 20.057l-.352 3.234-2.107-2.578 1.826 2.824-2.953-.344 2.934.762-2.07 2.094 2.322-1.746.025 3.303.352-3.232 2.107 2.578-1.826-2.824 2.953.342-2.934-.762 2.072-2.092-2.324 1.746zm-136.617 4.641l-.352 3.232-2.107-2.578 1.826 2.824-2.953-.344 2.934.762-2.07 2.096 2.322-1.748.025 3.303.352-3.232 2.107 2.58-1.826-2.826 2.953.344-2.934-.762 2.07-2.094-2.322 1.748zm-596.723 5.744l1.004 5.115-4.084-2.199 3.811 2.789-4.219 1.814 4.383-1.172-1.883 4.764 2.389-4.445 1.557 4.924-1.004-5.115 4.084 2.199-3.811-2.789 4.219-1.814-4.383 1.172 1.883-4.764-2.389 4.445zm107.5 0l1.004 5.115-4.084-2.199 3.811 2.789-4.219 1.814 4.383-1.172-1.883 4.764 2.389-4.445 1.557 4.924-1.004-5.115 4.084 2.199-3.811-2.789 4.219-1.814-4.383 1.172 1.883-4.764-2.389 4.445zm830.379 3.508l1.004 5.113-4.084-2.197 3.811 2.787-4.221 1.816 4.385-1.172-1.885 4.764 2.391-4.445 1.557 4.924-1.006-5.115 4.084 2.197-3.811-2.787 4.221-1.814-4.385 1.172 1.885-4.766-2.391 4.445zm-80.611 1.414l1.006 5.113-4.084-2.197 3.811 2.787-4.221 1.816 4.385-1.172-1.885 4.764 2.391-4.445 1.555 4.924-1.004-5.115 4.084 2.197-3.811-2.787 4.221-1.814-4.385 1.172 1.885-4.766-2.391 4.445zm-239.002 2.828l1.006 5.113-4.084-2.197 3.811 2.789-4.221 1.814 4.385-1.172-1.885 4.764 2.391-4.445 1.555 4.924-1.004-5.115 4.084 2.199-3.811-2.789 4.221-1.814-4.385 1.172 1.885-4.764-2.391 4.443zm-566.791.869l1.006 5.113-4.084-2.197 3.811 2.787-4.221 1.816 4.385-1.172-1.885 4.764 2.391-4.445 1.555 4.924-1.004-5.115 4.084 2.199-3.811-2.789 4.221-1.814-4.385 1.172 1.885-4.764-2.391 4.443zm958.529 16.102l1.004 5.113-4.084-2.197 3.811 2.787-4.221 1.816 4.385-1.172-1.885 4.764 2.391-4.445 1.557 4.924-1.006-5.115 4.084 2.197-3.811-2.787 4.221-1.814-4.385 1.172 1.885-4.764-2.391 4.443zm-321.027 1.414l1.006 5.113-4.086-2.197 3.811 2.789-4.219 1.814 4.383-1.172-1.883 4.764 2.389-4.445 1.557 4.924-1.004-5.115 4.084 2.199-3.811-2.789 4.221-1.814-4.385 1.172 1.883-4.764-2.389 4.443zm60.182 5.34l-.352 3.232-2.107-2.578 1.826 2.824-2.953-.344 2.934.762-2.072 2.094 2.324-1.748.025 3.305.352-3.232 2.107 2.58-1.826-2.826 2.953.344-2.934-.762 2.072-2.094-2.324 1.748zm88.178 1.021l-.35 3.232-2.109-2.578 1.828 2.824-2.955-.344 2.932.764-2.068 2.092 2.32-1.746.027 3.305.352-3.234 2.107 2.578-1.826-2.824 2.955.344-2.934-.762 2.07-2.094-2.322 1.746zm-20.658 9.271l-.352 3.234-2.109-2.58 1.828 2.826-2.955-.344 2.934.762-2.07 2.094 2.322-1.748.025 3.305.352-3.232 2.107 2.578-1.826-2.824 2.955.342-2.934-.762 2.07-2.092-2.322 1.746zM682 173.137l-.35 3.23-2.107-2.578 1.826 2.824-2.955-.342 2.934.764-2.07 2.092 2.322-1.746.027 3.303.35-3.232 2.107 2.578-1.824-2.826 2.953.346-2.934-.764 2.07-2.092-2.322 1.746zm-46.418 5.834l-.352 3.232-2.107-2.578 1.826 2.824-2.953-.344 2.934.764-2.07 2.092 2.322-1.746.025 3.303.352-3.232 2.107 2.58-1.826-2.826 2.955.344-2.936-.762 2.072-2.094-2.324 1.746zm110.896 1.744l-.35 3.232-2.107-2.578 1.826 2.824-2.955-.344 2.934.764-2.07 2.092 2.322-1.746.027 3.303.35-3.232 2.109 2.58-1.826-2.826 2.953.344-2.934-.762 2.07-2.094-2.322 1.748zm-702.457 13.49l1.004 5.115-4.084-2.199 3.811 2.789-4.219 1.814 4.383-1.172-1.883 4.764 2.389-4.445 1.557 4.924-1.004-5.115 4.084 2.199-3.811-2.789 4.219-1.814-4.383 1.172 1.883-4.764-2.389 4.445zm777.572 10.719l1.004 5.113-4.084-2.197 3.811 2.787-4.219 1.814 4.383-1.172-1.883 4.766 2.389-4.445 1.557 4.924-1.004-5.115 4.084 2.197-3.811-2.787 4.219-1.814-4.383 1.172 1.883-4.766-2.389 4.445zm77.781 0l1.006 5.113-4.084-2.197 3.811 2.787-4.221 1.814 4.385-1.172-1.885 4.766 2.391-4.445 1.555 4.924-1.004-5.115 4.084 2.197-3.811-2.787 4.221-1.814-4.385 1.172 1.885-4.766-2.391 4.445zm-96.758 1.473l-.352 3.232-2.105-2.58 1.824 2.826-2.953-.344 2.934.762-2.07 2.094 2.322-1.746.025 3.305.352-3.234 2.107 2.578-1.826-2.824 2.955.344-2.934-.762 2.07-2.094-2.324 1.746zm-617.096 5.309l1.004 5.115-4.084-2.199 3.811 2.789-4.219 1.814 4.383-1.172-1.883 4.764 2.389-4.445 1.557 4.924-1.004-5.115 4.084 2.199-3.811-2.789 4.219-1.814-4.383 1.172 1.883-4.764-2.389 4.445zm-78 7.5l1.004 5.115-4.084-2.199 3.811 2.789-4.219 1.814 4.383-1.172-1.883 4.764 2.389-4.445 1.557 4.924-1.004-5.115 4.084 2.199-3.811-2.789 4.219-1.814-4.383 1.172 1.883-4.764-2.389 4.445zm575.438 24.377l-.352 3.232-2.107-2.578 1.826 2.824-2.955-.342 2.934.762-2.07 2.092 2.322-1.746.027 3.305.35-3.234 2.109 2.578-1.828-2.824 2.955.344-2.932-.762 2.068-2.092-2.32 1.746zm343.695 13.666l1.006 5.115-4.084-2.197 3.809 2.787-4.219 1.814 4.383-1.172-1.883 4.766 2.389-4.445 1.557 4.922-1.004-5.113 4.084 2.197-3.811-2.787 4.221-1.816-4.385 1.172 1.885-4.764-2.391 4.445zM692.9 258.662l1.004 5.115-4.084-2.197 3.811 2.787-4.221 1.814 4.385-1.172-1.883 4.766 2.389-4.445 1.557 4.922-1.006-5.113 4.086 2.197-3.811-2.787 4.219-1.814-4.383 1.172 1.883-4.766-2.389 4.445zm298.398 0l1.006 5.115-4.084-2.197 3.811 2.787-4.221 1.814 4.385-1.172-1.885 4.766 2.391-4.445 1.555 4.922-1.004-5.113 4.084 2.197-3.811-2.787 4.221-1.814-4.385 1.172 1.885-4.766-2.391 4.445zm-99.285.406l-.35 3.232-2.109-2.578 1.828 2.824-2.955-.342 2.934.762-2.07 2.092 2.322-1.746.027 3.305.35-3.234 2.107 2.578-1.826-2.824 2.955.344-2.934-.762 2.07-2.094-2.322 1.746zm-538.6 5.109l-.35 3.234-2.109-2.58 1.826 2.826-2.953-.346 2.934.764-2.07 2.092 2.322-1.746.025 3.303.352-3.232 2.107 2.58-1.826-2.826 2.955.344-2.934-.762 2.068-2.094-2.32 1.746zm-262.893 7.527l1.004 5.115-4.084-2.199 3.811 2.789-4.219 1.814 4.383-1.172-1.883 4.764 2.389-4.445 1.557 4.924-1.004-5.115 4.084 2.199-3.811-2.789 4.219-1.814-4.383 1.172 1.883-4.764-2.389 4.445zm797.541 2.514l1.004 5.115-4.084-2.197 3.811 2.787-4.221 1.814 4.385-1.172-1.885 4.766 2.391-4.445 1.557 4.922-1.006-5.113 4.084 2.197-3.811-2.787 4.221-1.816-4.385 1.172 1.885-4.764-2.391 4.445zm7.73 3.992l-.352 3.232-2.105-2.578 1.824 2.824-2.953-.344 2.934.764-2.07 2.094 2.322-1.748.025 3.303.352-3.232 2.107 2.58-1.826-2.826 2.953.344-2.934-.762 2.072-2.094-2.324 1.748zm-37.68 3.313l-.35 3.232-2.107-2.58 1.824 2.826-2.953-.344 2.934.764-2.07 2.092 2.322-1.746.025 3.303.352-3.232 2.107 2.578-1.826-2.824 2.955.344-2.934-.764 2.07-2.092-2.322 1.746zm-601.875 5.99l-.352 3.234-2.107-2.58 1.826 2.826-2.955-.346 2.934.764-2.068 2.092 2.32-1.746.027 3.303.35-3.232 2.109 2.58-1.826-2.826 2.953.344-2.934-.762 2.07-2.094-2.322 1.746zm74.102 8.529l-.35 3.232-2.107-2.578 1.824 2.824-2.953-.344 2.934.764-2.07 2.092 2.322-1.746.027 3.303.35-3.232 2.107 2.578-1.826-2.824 2.955.344-2.934-.764 2.07-2.092-2.322 1.746zm431.256 2.561l-.352 3.232-2.107-2.578 1.826 2.824-2.953-.342 2.932.762-2.07 2.092 2.322-1.746.027 3.305.352-3.234 2.105 2.58-1.824-2.826 2.953.344-2.934-.762 2.07-2.094-2.322 1.746zm-462.459 15.955l-.352 3.232-2.107-2.578 1.826 2.822-2.955-.342 2.934.762-2.07 2.094 2.322-1.748.027 3.305.35-3.234 2.107 2.58-1.826-2.826 2.955.346-2.934-.764 2.07-2.092-2.322 1.746zm-32.648 7.102l-.35 3.232-2.107-2.578 1.826 2.826-2.955-.346 2.934.764-2.07 2.092 2.322-1.746.027 3.303.35-3.232 2.107 2.578-1.824-2.824 2.953.344-2.934-.764 2.07-2.092-2.322 1.746zm103.816 14.695l-.352 3.232-2.107-2.58 1.826 2.826-2.955-.344 2.934.762-2.068 2.094 2.32-1.746.027 3.303.35-3.232 2.109 2.578-1.826-2.826 2.953.346-2.934-.764 2.07-2.092-2.322 1.746zm-304.783 16.85l1.004 5.115-4.084-2.199 3.811 2.789-4.219 1.814 4.383-1.172-1.883 4.764 2.389-4.445 1.557 4.924-1.004-5.115 4.084 2.199-3.811-2.789 4.219-1.814-4.383 1.172 1.883-4.764-2.389 4.445zm260.256 6.23l-.35 3.234-2.109-2.58 1.826 2.826-2.953-.346 2.934.764-2.07 2.092 2.322-1.746.025 3.303.352-3.232 2.107 2.58-1.826-2.826 2.955.344-2.934-.762 2.068-2.094-2.32 1.748zm-43.727.154l-.35 3.232-2.109-2.58 1.826 2.826-2.953-.344 2.934.762-2.07 2.094 2.322-1.748.025 3.303.352-3.232 2.107 2.58-1.826-2.826 2.955.346-2.934-.764 2.068-2.094-2.32 1.748zm492.875 23.523l1.004 5.115-4.084-2.197 3.811 2.787-4.221 1.814 4.385-1.172-1.885 4.766 2.391-4.445 1.555 4.922-1.004-5.113 4.084 2.197L777.15 389l4.221-1.816-4.385 1.172 1.885-4.764-2.391 4.445zm-566.404 3.592l1.004 5.115-4.084-2.199 3.811 2.789-4.219 1.814 4.383-1.172-1.883 4.764 2.389-4.445 1.557 4.924-1.004-5.115 4.084 2.199-3.811-2.789 4.219-1.814-4.383 1.172 1.883-4.764-2.389 4.445zm119.779 8.238l-.35 3.234-2.109-2.58 1.826 2.826-2.955-.346 2.934.764-2.068 2.092 2.32-1.746.027 3.303.35-3.232 2.109 2.58-1.826-2.826 2.955.344-2.934-.762 2.068-2.094-2.32 1.748zm658.756 6.555l1.006 5.115-4.086-2.197 3.811 2.787-4.219 1.814 4.383-1.172-1.883 4.766 2.389-4.445 1.557 4.922-1.004-5.113 4.084 2.197-3.811-2.787 4.221-1.816-4.385 1.172 1.883-4.764-2.389 4.445zm-62.225 12.729l1.004 5.113-4.084-2.197 3.811 2.789-4.221 1.814 4.385-1.172-1.885 4.764 2.391-4.445 1.557 4.924-1.006-5.115 4.084 2.199-3.811-2.789 4.221-1.814-4.385 1.172 1.885-4.764-2.391 4.445zm56.568 16.971l1.004 5.113-4.084-2.197 3.811 2.789-4.221 1.814 4.385-1.172-1.885 4.764 2.391-4.445 1.557 4.924-1.006-5.115 4.084 2.199-3.811-2.789 4.221-1.814-4.385 1.172 1.885-4.764-2.391 4.443zm-555.367 4.533l-.35 3.232-2.109-2.58 1.826 2.826-2.953-.344 2.934.762-2.07 2.094 2.322-1.746.025 3.303.352-3.234 2.107 2.58-1.826-2.826 2.955.346-2.934-.764 2.068-2.092-2.32 1.746zm-92.99 14.004l-.35 3.232-2.109-2.578 1.826 2.824-2.953-.344 2.934.764-2.07 2.092 2.322-1.746.025 3.303.352-3.232 2.107 2.578-1.826-2.824 2.955.344-2.934-.764 2.068-2.092-2.32 1.746z" transform="matrix(.161836 0 0 .161836 -.320301 47.600592)" fill="#fdf5ff" fill-opacity=".581" filter="url(#C)"/><circle cx="72.078" cy="90.732" r="43.366" fill="#d7b8e4" fill-opacity=".368" filter="url(#D)"/><circle cx="71.755" cy="81.787" r="26.628" fill="url(#B)"/></g></svg>