<svg xmlns="http://www.w3.org/2000/svg" xmlns:xlink="http://www.w3.org/1999/xlink" width="861.45" height="594.94" version="1.1" viewBox="0 0 227.92 157.41"><defs><linearGradient id="a" x1="93.9" x2="93.36" y1="92.09" y2="228.37" gradientUnits="userSpaceOnUse"><stop offset="0" stop-color="#3f0066"/><stop offset="1" stop-color="#1c0046" stop-opacity=".6"/></linearGradient><linearGradient id="b" x1="93.9" x2="93.36" y1="92.09" y2="228.37" gradientTransform="translate(-8.22 -213.63) scale(3.62151)" gradientUnits="userSpaceOnUse" xlink:href="#a"/><linearGradient id="c" x1="93.9" x2="93.36" y1="92.09" y2="228.37" gradientTransform="translate(-2.18 -56.52) scale(.25352)" gradientUnits="userSpaceOnUse" xlink:href="#a"/><linearGradient id="d" x1="93.9" x2="93.36" y1="92.09" y2="228.37" gradientTransform="translate(-2.18 -56.52) scale(.9582)" gradientUnits="userSpaceOnUse" xlink:href="#a"/></defs><rect fill="none" width="227.92" height="157.41" x="0" y="0" ry=".2" stop-color="#000"/><path d="M256.04 65.22c-8.07-.07-13.82.84-13.82.84l-15.5 26.86v18.67l3.15 5.45v20.9l4.1 7.1v7.77l-8.8 15.23v31.36l11.76 6.8v79.85l5.99 5.98-8.89 8.88v52.79l11.84 20.5v110.25h-49.92V375.18h-3.88v-10.14l5.68-1.52v-16.97l-4.3-4.3v-24.33H145.3v2.06h-10.23l-1.74 3.02v51.18l-7.97 4.6v15.65l-.9.9v30.07l-21.28-36.87H88.67v15.17l-1.6.92v8.7l-8.7 5.02v-52.02l-1.91-3.3v-21.2l-10.92-6.32H48.56l-3.2 2.56v37.82l1.9 1.1v2.72l-1.62.93v7.5l1.7 2.96v4.5l-1.84 1.05v6.1H31.97l-18.82 32.6v72.35h630.22l.13-19.25h-8.64v-30.28l12.74-22.06v-44.58l-5.6-9.7v-30.49s-.43-3.18-8.62-8.62c-8.2-5.44-11.92-5.14-11.92-5.14v-33.04H597.6l-5.26 3.04v37.61h-4.6l-5.4 9.37v39.82l5.4 9.36v7.2l-8.61 14.92v12.68h-6.4v20.73H558.2v-19.42l-4.46-2.58v-24.62l-4.18-4.18H537.8v-33.88h5.8V356.2l-4.02-4.01v-12.4l5.46-3.14V318.6l-9.8-9.8s-7.56-1.04-13.28 0c-5.73 1.03-13.43 4.42-13.43 4.42v17.3l-3.07.82v44.85h-4l-3.94-6.8h-8.93l-4.5 7.8-7.74-7.73v-13.22l-6.64-11.51h-4.25v-12.41h-.96v16.26h-13.2l-1-3.77h-4.7l-1.1 4.09v24.9h-3.6v-37.5H438v-23.58h-4.95v-16.48l-2.06-3.57v-40.4l-1.1.3v46.03l-2.75 1.58v17.33l-2.68 2.69v15.4l-4.75 1.28v16.93h-4.43v57.32l-6.3-10.9-8.64-331.87-11.66-3.13-23.52 13.58-8.3 14.4v27.46l-14.6 25.3v24.29l4.85 8.42v59.4l-11.08 6.4v54.45l-1.91 1.9v63.5l10.05 17.38v112.92h-17.23V307.44s-.15-16.15-4.85-18.1c-4.7-1.94-5.2-1.22-5.2-1.22l-7.66.36v-7.41h-6.5v-48.01l-1.5-5.61h2.8v-67.77l-4.07-1.1v-42.05h-4.33l3.33-4.48-2.54-37.9s-19.33-7.24-31.64-8.47a95.6 95.6 0 0 0-8.72-.46z" fill="url(#b)" transform="matrix(.29972 0 0 .26458 14.94 23.09)"/><path d="m102.84 17.26-.4.23-2.49 4.26v7.61l-3.89 6.74v6.6l1.4 2.42v16.02h.77v-16l-1.37-2.39v-6.98l3.97-6.91v-7.74zM101 18.32l-.43.24-2.22 3.86v7.26l.55-.15-4.3 7.44.12 6.55 1.2 2.14v15.81l.37-.17V45.4l-1.16-2.12.23-6.61 4.1-7.38-.22-7.64zm-1.29.74-.62.36-1.84 3.19v7.2l-4.2 7.25v7.03l1.3 2.26v15.5l.35-.1v-15.6l-1.3-2.24v-6.64l4.26-7.37v-7.3zm-1.6.93-.6.34-1.99 3.44v7.5L91.4 38.4v6.35l1.34 2.32v15.21l.3-.17V46.43l-1.14-1.96v-6.54l4.29-7.42v-7.2z" fill="url(#c)" transform="matrix(1.13282 0 0 1 14.94 23.09)"/><path d="m104.38 17.67-2.03 3.51v46.18l2.4 4.16v26.04l-.84.23V71.9l-2.28-3.95V21l2.03-3.52z" fill="url(#d)" transform="matrix(1.13282 0 0 1 14.94 23.09)"/><path d="M102.9 48.92v1.72l-9.84-1.37-1.34.96 11.61 1.44v-2.64zM88.45 83.09l-2.51 2.75v.71l2.71-3.17 5.02-.06.82.43 3.26.14v-.38h-3.11l-.82-.42zm.32 8.98-2.83 2.65v.77l2.83-2.77 5.25.4 3.78.03.02-.5-3.7-.02zm105.61 13.85v10.81l11.95.08 1.02.52v-.65l-.93-.54H194.9v-10.22zm-133.45 2.09-1.92.45v16.1l.34-.09v4.4l.22-.07h1.36zm106.4 2.53-.44.11 2.45 3.74 4.55-.11.02-.55-4.44.06zM63.8 117.92v5.73l5.55-2.83zm97.76 3.85s-1.36 2.02-1.45 2.51l-.96 5.38.53-.23 1.36-5.7c.35-.35.61-.32.61-.32zm38.3-9.75h-2.96v-3.7l1.02-.91.23-.2v3.96h1.17z" fill="#ad5afc"/></svg>