<?xml version="1.0" encoding="UTF-8" standalone="no"?>
<!-- Created with Inkscape (http://www.inkscape.org/) -->

<svg
   width="97.873795mm"
   height="65.351387mm"
   viewBox="0 0 97.873795 65.351387"
   version="1.1"
   id="svg5"
   inkscape:version="1.1 (ce6663b3b7, 2021-05-25)"
   sodipodi:docname="404.svg"
   xmlns:inkscape="http://www.inkscape.org/namespaces/inkscape"
   xmlns:sodipodi="http://sodipodi.sourceforge.net/DTD/sodipodi-0.dtd"
   xmlns="http://www.w3.org/2000/svg"
   xmlns:svg="http://www.w3.org/2000/svg">
  <sodipodi:namedview
     id="namedview7"
     pagecolor="#ffffff"
     bordercolor="#666666"
     borderopacity="1.0"
     inkscape:pageshadow="2"
     inkscape:pageopacity="0.0"
     inkscape:pagecheckerboard="0"
     inkscape:document-units="mm"
     showgrid="false"
     showborder="false"
     inkscape:zoom="2"
     inkscape:cx="181.25"
     inkscape:cy="138.25"
     inkscape:window-width="1848"
     inkscape:window-height="1016"
     inkscape:window-x="72"
     inkscape:window-y="27"
     inkscape:window-maximized="1"
     inkscape:current-layer="layer1" />
  <defs
     id="defs2" />
  <g
     inkscape:label="Layer 1"
     inkscape:groupmode="layer"
     id="layer1"
     transform="translate(-52.721985,-115.64994)">
    <rect
       style="fill:#ffffff;fill-opacity:1;stroke:none;stroke-width:0.264999;stroke-linecap:round;stroke-linejoin:round;stroke-opacity:1;stop-color:#000000"
       id="rect846"
       width="97.873795"
       height="65.351387"
       x="52.721985"
       y="115.64994"
       ry="0.20324603" />
    <g
       id="g6032"
       transform="translate(-1.2366168,-0.31206056)">
      <path
         id="circle1160"
         style="fill:#400049;fill-opacity:1;stroke:none;stroke-width:1.26255;stroke-linecap:round;stroke-linejoin:round;stroke-opacity:1;stop-color:#000000"
         d="m 388.47852,495.63281 a 66.146742,66.146742 0 0 0 -66.14649,66.14649 66.146742,66.146742 0 0 0 66.14649,66.14843 66.146742,66.146742 0 0 0 66.14648,-66.14843 66.146742,66.146742 0 0 0 -66.14648,-66.14649 z m 0,13.67383 a 52.47372,52.47372 0 0 1 52.47265,52.47266 52.47372,52.47372 0 0 1 -52.47265,52.47461 52.47372,52.47372 0 0 1 -52.47461,-52.47461 52.47372,52.47372 0 0 1 52.47461,-52.47266 z"
         transform="scale(0.26458333)" />
      <path
         id="circle2653"
         style="fill:#400049;fill-opacity:1;stroke:none;stroke-width:0.311068;stroke-linecap:round;stroke-linejoin:round;stroke-opacity:1;stop-color:#000000"
         d="m 97.993985,139.82557 a 2.8522856,2.8522856 0 0 0 -2.852023,2.85203 2.8522856,2.8522856 0 0 0 2.852023,2.85253 2.8522856,2.8522856 0 0 0 2.852535,-2.85253 2.8522856,2.8522856 0 0 0 -2.852535,-2.85203 z m 0,0.4222 a 2.4298744,2.4298744 0 0 1 2.429825,2.42983 2.4298744,2.4298744 0 0 1 -2.429825,2.42982 2.4298744,2.4298744 0 0 1 -2.429825,-2.42982 2.4298744,2.4298744 0 0 1 2.429825,-2.42983 z" />
      <path
         id="circle2653-4"
         style="fill:#400049;fill-opacity:1;stroke:none;stroke-width:0.311068;stroke-linecap:round;stroke-linejoin:round;stroke-opacity:1;stop-color:#000000"
         d="m 107.85228,140.43016 a 2.8522856,2.8522856 0 0 0 -2.85203,2.85202 2.8522856,2.8522856 0 0 0 2.85203,2.85254 2.8522856,2.8522856 0 0 0 2.85253,-2.85254 2.8522856,2.8522856 0 0 0 -2.85253,-2.85202 z m 0,0.42219 a 2.4298744,2.4298744 0 0 1 2.42982,2.42983 2.4298744,2.4298744 0 0 1 -2.42982,2.42982 2.4298744,2.4298744 0 0 1 -2.42983,-2.42982 2.4298744,2.4298744 0 0 1 2.42983,-2.42983 z" />
      <path
         id="path3500"
         style="fill:#400049;fill-opacity:1;stroke:none;stroke-width:0.339667;stroke-linecap:round;stroke-linejoin:round;stroke-opacity:1;stop-color:#000000"
         d="m 103.35371,151.31427 a 8.8558006,8.8558006 0 0 0 -8.067212,5.21053 h 0.884185 a 8.1103411,8.1103411 0 0 1 7.113257,-4.22816 8.1103411,8.1103411 0 0 1 7.11378,4.22816 h 1.02319 a 8.8558006,8.8558006 0 0 0 -8.0672,-5.21053 z" />
    </g>
    <text
       xml:space="preserve"
       style="font-style:normal;font-variant:normal;font-weight:normal;font-stretch:normal;font-size:52.9167px;line-height:1.25;font-family:sans-serif;-inkscape-font-specification:'sans-serif, Normal';font-variant-ligatures:normal;font-variant-caps:normal;font-variant-numeric:normal;font-variant-east-asian:normal;letter-spacing:0px;word-spacing:0px;fill:#400049;fill-opacity:1;stroke:none;stroke-width:0.264583"
       x="51.971218"
       y="167.61388"
       id="text4745"><tspan
         sodipodi:role="line"
         id="tspan4743"
         style="font-style:normal;font-variant:normal;font-weight:normal;font-stretch:normal;font-size:52.9167px;font-family:sans-serif;-inkscape-font-specification:'sans-serif, Normal';font-variant-ligatures:normal;font-variant-caps:normal;font-variant-numeric:normal;font-variant-east-asian:normal;fill:#400049;fill-opacity:1;stroke-width:0.264583"
         x="51.971218"
         y="167.61388">4</tspan></text>
    <text
       xml:space="preserve"
       style="font-style:normal;font-variant:normal;font-weight:normal;font-stretch:normal;font-size:52.9167px;line-height:1.25;font-family:sans-serif;-inkscape-font-specification:'sans-serif, Normal';font-variant-ligatures:normal;font-variant-caps:normal;font-variant-numeric:normal;font-variant-east-asian:normal;letter-spacing:0px;word-spacing:0px;fill:#400049;fill-opacity:1;stroke:none;stroke-width:0.264583"
       x="117.84579"
       y="167.61388"
       id="text4745-9"><tspan
         sodipodi:role="line"
         id="tspan4743-7"
         style="font-style:normal;font-variant:normal;font-weight:normal;font-stretch:normal;font-size:52.9167px;font-family:sans-serif;-inkscape-font-specification:'sans-serif, Normal';font-variant-ligatures:normal;font-variant-caps:normal;font-variant-numeric:normal;font-variant-east-asian:normal;fill:#400049;fill-opacity:1;stroke-width:0.264583"
         x="117.84579"
         y="167.61388">4</tspan></text>
  </g>
</svg>
